<?xml version="1.0" encoding="utf-8"?>
<!-- Generator: Adobe Illustrator 22.0.1, SVG Export Plug-In . SVG Version: 6.00 Build 0)  -->
<svg version="1.1" id="Layer_1" xmlns="http://www.w3.org/2000/svg" xmlns:xlink="http://www.w3.org/1999/xlink" x="0px" y="0px"
	 viewBox="0 0 42 42" style="enable-background:new 0 0 42 42;" xml:space="preserve">
<style type="text/css">
	.st0{opacity:0;clip-path:url(#SVGID_2_);fill:#4bbdec;}
	.st1{clip-path:url(#SVGID_2_);fill-rule:evenodd;clip-rule:evenodd;fill:#4bbdec;}
</style>
<g>
	<defs>
		<rect id="SVGID_1_" width="42" height="42"/>
	</defs>
	<clipPath id="SVGID_2_">
		<use xlink:href="#SVGID_1_"  style="overflow:visible;"/>
	</clipPath>
	<rect class="st0" width="42" height="42"/>
	<path class="st1" d="M21,26.3l-8.9-8.9c-0.2-0.2-0.4-0.3-0.7-0.3c-0.5,0-1,0.4-1,1c0,0.3,0.1,0.5,0.3,0.7l9.5,9.5
		c0.2,0.2,0.4,0.3,0.7,0.3c0.3,0,0.5-0.1,0.7-0.3l0,0l15.9-16.7c0,0,0,0,0,0l1.4-1.4c0,0,0,0,0,0l2.7-2.9l0,0
		C41.9,7.2,42,6.9,42,6.7c0-0.5-0.4-1-1-1c-0.3,0-0.5,0.1-0.7,0.3l0,0l-2.5,2.6c0,0,0,0,0,0L36.6,10c0,0,0,0,0,0L21,26.3z M40.3,13
		c-0.4-0.4-1-0.4-1.3,0c-0.3,0.3-0.3,0.6-0.2,1l0,0c0.9,2.2,1.4,4.6,1.4,7c0,10.5-8.5,19.1-19.1,19.1C10.5,40.1,1.9,31.5,1.9,21
		S10.5,1.9,21,1.9c5.4,0,10.3,2.2,13.7,5.8l0,0c0.4,0.3,1,0.3,1.3,0c0.4-0.4,0.4-1,0-1.4c0,0-0.1-0.1-0.1-0.1C32.1,2.4,26.9,0,21,0
		C9.4,0,0,9.4,0,21c0,11.6,9.4,21,21,21s21-9.4,21-21c0-2.7-0.5-5.3-1.5-7.6C40.5,13.2,40.4,13.1,40.3,13"/>
</g>
</svg>
