<?xml version="1.0" encoding="utf-8"?>
<!-- Generator: Adobe Illustrator 22.0.1, SVG Export Plug-In . SVG Version: 6.00 Build 0)  -->
<svg version="1.1" id="Layer_1" xmlns="http://www.w3.org/2000/svg" xmlns:xlink="http://www.w3.org/1999/xlink" x="0px" y="0px"
	 viewBox="0 0 44 48" style="enable-background:new 0 0 44 48;" xml:space="preserve">
<style type="text/css">
	.st0{opacity:0;clip-path:url(#SVGID_2_);fill:#4bbdec;}
	.st1{clip-path:url(#SVGID_2_);fill-rule:evenodd;clip-rule:evenodd;fill:#4bbdec;}
</style>
<g>
	<defs>	
		<rect id="SVGID_1_" width="44" height="48"/>
	</defs>
	<clipPath id="SVGID_2_">
		<use xlink:href="#SVGID_1_"  style="overflow:visible;"/>
	</clipPath>
	<rect class="st0" width="44" height="48"/>
	<path class="st1" d="M22.5,7l1.2,0l1.2,0.1L26,7.4l1.1,0.3l1.1,0.4l1,0.5l1,0.6L31,9.8l0.9,0.7l0.8,0.7l0.7,0.8l0.7,0.9l0.6,0.9
		l0.6,1l0.5,1l0.4,1l0.3,1.1l0.2,1.1l0.1,1.1l0.1,1.2l0,1l-0.1,0.9l-0.1,0.9l-0.2,0.9l-0.2,0.8l-0.2,0.7l-0.3,0.7l-0.3,0.7l-0.3,0.6
		L35,29.1l-0.3,0.6l-0.3,0.5l-0.3,0.5l-0.3,0.5l-0.3,0.5l-0.4,0.6l-0.3,0.5l-0.3,0.5l-0.2,0.4l-0.1,0.4L32,34.3l0,0.4l0,0.7L31.8,36
		l-0.2,0.7l-0.3,0.6l-0.4,0.6l-0.5,0.6L29.9,39l-0.6,0.5l0,0.3l0,0.4l0,0.4l0,0.4l0,0.4l0,0.4l0,0.4l0,0.3l0,0.3l0,0.3v0.1l0,0v0.2
		l0,0.2L29,43.9l-0.1,0.2l-0.1,0.3l-0.1,0.3L28.5,45l-0.2,0.3l-0.3,0.3l-0.4,0.3l-0.4,0.2l-0.5,0.2l-0.6,0.2l-0.3,0.4l-0.4,0.4
		l-0.4,0.4l-0.3,0.2L24.3,48l-0.4,0h-2.8l-0.4,0l-0.3-0.1l-0.3-0.2l-0.5-0.4l-0.4-0.4l-0.3-0.4l-0.6-0.3L17.8,46l-0.5-0.3L17,45.5
		l-0.3-0.3l-0.2-0.3l-0.2-0.3l-0.2-0.3L16,44l-0.1-0.3l0-0.2l0-0.2v0l0-0.1l0-0.3l0-0.3l0-0.3l0-0.4l0-0.4l0-0.4l0-0.4l0-0.4l0-0.4
		l0-0.3L15.1,39l-0.5-0.6l-0.5-0.6l-0.4-0.6l-0.3-0.6L13.2,36L13,35.3l0-0.7l0-0.4l-0.1-0.4l-0.2-0.4l-0.2-0.4l-0.3-0.5l-0.3-0.5
		l-0.4-0.6l-0.3-0.5l-0.3-0.5l-0.3-0.5l-0.3-0.5L10,29.1l-0.3-0.6l-0.3-0.6l-0.3-0.7l-0.3-0.7l-0.2-0.7l-0.2-0.8l-0.2-0.9l-0.1-0.9
		L8,22.2l0-1l0-1.2l0.2-1.1l0.2-1.1l0.3-1.1l0.4-1l0.5-1l0.6-1l0.6-0.9l0.7-0.9l0.8-0.8l0.8-0.7L14,9.8l0.9-0.6l1-0.6l1-0.5l1.1-0.4
		L19,7.4l1.1-0.2L21.3,7L22.5,7z M22.5,10.7l-1,0l-1,0.1l-0.9,0.2l-0.9,0.3l-0.9,0.4L17,12.2l-0.8,0.5l-0.7,0.6l-0.7,0.6l-0.6,0.6
		l-0.6,0.7l-0.5,0.8l-0.4,0.8l-0.4,0.8l-0.3,0.9l-0.2,0.9l-0.1,0.9l0,1l0,0.9l0.1,0.8l0.1,0.8l0.2,0.7l0.2,0.7l0.2,0.6l0.2,0.6
		L13,27l0.3,0.6l0.3,0.5l0.3,0.5l0.3,0.5l0.3,0.5l0.4,0.5l0.4,0.5l0.3,0.5l0.3,0.5l0.2,0.6l0.2,0.6l0.2,0.6l0.1,0.6l0,0.7l0,0.4
		l0.1,0.3l0.2,0.3l0.2,0.3l0.3,0.3l0.3,0.2l0.3,0.2H27l0.3-0.2l0.3-0.2l0.3-0.3l0.2-0.3l0.2-0.3l0.1-0.3l0.1-0.4l0-0.7l0.1-0.6
		l0.2-0.6l0.2-0.6l0.3-0.6l0.3-0.6l0.3-0.5l0.4-0.5l0.4-0.5l0.3-0.5l0.3-0.5l0.3-0.5l0.3-0.5L32,27l0.3-0.6l0.3-0.6l0.2-0.6l0.2-0.7
		l0.2-0.7l0.1-0.8l0.1-0.8l0-0.9l0-1l-0.1-0.9l-0.2-0.9l-0.3-0.9l-0.4-0.8l-0.4-0.8l-0.5-0.7l-0.6-0.7l-0.6-0.6l-0.7-0.6l-0.7-0.6
		L28,12.2l-0.8-0.4l-0.9-0.4l-0.9-0.3l-0.9-0.2l-1-0.1L22.5,10.7z"/>
	<polygon class="st1" points="22,0 22,0 22.3,0 22.5,0.1 22.7,0.2 22.9,0.4 23,0.6 23,0.8 23,3.2 23,3.4 22.9,3.6 22.7,3.8 
		22.5,3.9 22.3,4 22,4 21.7,4 21.5,3.9 21.3,3.8 21.1,3.6 21,3.4 21,3.2 21,0.8 21,0.6 21.1,0.4 21.3,0.2 21.5,0.1 21.7,0 	"/>
	<polygon class="st1" points="11.8,2 12.1,2 12.3,2.1 12.5,2.3 12.6,2.6 13.9,5.4 14,5.6 14,5.9 14,6.2 13.9,6.5 13.8,6.7 13.6,6.9 
		13.4,7 13.2,7 12.9,7 12.7,6.9 12.5,6.7 12.4,6.5 11.1,3.6 11,3.4 11,3.1 11,2.8 11.1,2.6 11.2,2.3 11.4,2.2 11.6,2 	"/>
	<polygon class="st1" points="3.9,10 4.1,10 4.3,10.1 6.6,11.4 6.8,11.5 6.9,11.7 7,11.9 7,12.1 7,12.4 6.9,12.6 6.8,12.8 6.6,12.9 
		6.3,13 6.1,13 5.9,13 5.7,12.9 3.4,11.6 3.2,11.5 3.1,11.3 3,11.1 3,10.9 3,10.6 3.1,10.4 3.2,10.2 3.4,10.1 3.6,10 	"/>
	<polygon class="st1" points="1,20 4,20 4.3,20 4.5,20.1 4.7,20.3 4.9,20.5 5,20.7 5,21 5,21.3 4.9,21.5 4.7,21.7 4.5,21.9 4.3,22 
		4,22 1,22 0.7,22 0.5,21.9 0.3,21.7 0.1,21.5 0,21.3 0,21 0,20.7 0.1,20.5 0.3,20.3 0.5,20.1 0.7,20 	"/>
	<polygon class="st1" points="6.1,29 6.4,29.1 6.6,29.1 6.8,29.3 6.9,29.6 7,29.8 7,30.2 7,30.4 6.9,30.7 6.8,30.9 6.6,31.1 
		4.3,32.8 4.1,32.9 3.9,33 3.6,32.9 3.4,32.9 3.2,32.7 3.1,32.4 3,32.2 3,31.8 3,31.6 3.1,31.3 3.2,31.1 3.4,30.9 5.7,29.2 5.9,29 	
		"/>
	<polygon class="st1" points="37.9,29 38.1,29 38.3,29.2 40.6,30.9 40.8,31.1 40.9,31.3 41,31.6 41,31.8 41,32.2 40.9,32.4 
		40.8,32.7 40.6,32.9 40.4,32.9 40.1,33 39.9,32.9 39.7,32.8 37.4,31.1 37.2,30.9 37.1,30.7 37,30.4 37,30.2 37,29.8 37.1,29.6 
		37.2,29.3 37.4,29.1 37.6,29.1 	"/>
	<polygon class="st1" points="40.8,20 43.2,20 43.4,20 43.6,20.1 43.8,20.3 43.9,20.5 44,20.7 44,21 44,21.3 43.9,21.5 43.8,21.7 
		43.6,21.9 43.4,22 43.2,22 40.8,22 40.6,22 40.4,21.9 40.2,21.7 40.1,21.5 40,21.3 40,21 40,20.7 40.1,20.5 40.2,20.3 40.4,20.1 
		40.6,20 	"/>
	<polygon class="st1" points="40.1,10 40.4,10 40.6,10.1 40.8,10.2 40.9,10.4 41,10.6 41,10.9 41,11.1 40.9,11.3 40.8,11.5 
		40.6,11.6 38.3,12.9 38.1,13 37.9,13 37.7,13 37.4,12.9 37.2,12.8 37.1,12.6 37,12.4 37,12.1 37,11.9 37.1,11.7 37.2,11.5 
		37.4,11.4 39.7,10.1 39.9,10 	"/>
	<polygon class="st1" points="32.8,2 33.1,2 33.4,2.2 33.7,2.3 33.9,2.6 34,2.8 34,3.1 34,3.4 33.9,3.6 32.1,6.5 31.9,6.7 31.7,6.9 
		31.4,7 31.1,7 30.9,7 30.6,6.9 30.3,6.7 30.2,6.5 30,6.2 30,5.9 30,5.7 30.2,5.4 31.9,2.6 32.1,2.3 32.3,2.1 32.6,2 	"/>
	<polygon class="st1" points="22.5,14 23,14 23.5,14.1 23.9,14.2 24.2,14.4 24.5,14.7 24.7,15 24.9,15.3 25,15.7 25,16.1 25,19.3 
		25,19.7 24.9,20.1 24.9,20.6 23.9,27 23.8,27.3 23.7,27.5 23.6,27.7 23.4,27.9 23.1,27.9 22.8,28 22.5,28 22.2,28 21.9,27.9 
		21.6,27.9 21.4,27.7 21.3,27.5 21.2,27.3 21.1,27 20.1,20.6 20.1,20.1 20,19.7 20,19.3 20,16.1 20,15.7 20.1,15.3 20.3,15 
		20.5,14.7 20.8,14.4 21.1,14.2 21.5,14.1 22,14 	"/>
	<polygon class="st1" points="22.5,30 23,30.1 23.5,30.2 23.9,30.3 24.3,30.6 24.6,30.9 24.8,31.2 25,31.6 25,32 25,32.4 24.8,32.8 
		24.6,33.1 24.3,33.4 23.9,33.7 23.5,33.8 23,33.9 22.5,34 22,33.9 21.5,33.8 21.1,33.7 20.7,33.4 20.4,33.1 20.2,32.8 20,32.4 
		20,32 20,31.6 20.2,31.2 20.4,30.9 20.7,30.6 21.1,30.3 21.5,30.2 22,30.1 	"/>
</g>
</svg>
