<?xml version="1.0" encoding="utf-8"?>
<!-- Generator: Adobe Illustrator 22.0.1, SVG Export Plug-In . SVG Version: 6.00 Build 0)  -->
<svg version="1.1" id="Layer_1" xmlns="http://www.w3.org/2000/svg" xmlns:xlink="http://www.w3.org/1999/xlink" x="0px" y="0px"
	 viewBox="0 0 59 37" style="enable-background:new 0 0 59 37;" xml:space="preserve">
<style type="text/css">
	.st0{opacity:0;clip-path:url(#SVGID_2_);fill:#4bbdec;}
	.st1{clip-path:url(#SVGID_2_);fill-rule:evenodd;clip-rule:evenodd;fill:#4bbdec;}
</style>
<g>
	<defs>
		<rect id="SVGID_1_" width="59" height="37"/>
	</defs>
	<clipPath id="SVGID_2_">
		<use xlink:href="#SVGID_1_"  style="overflow:visible;"/>
	</clipPath>
	<rect class="st0" width="59" height="37"/>
	<path class="st1" d="M43.6,2.6c-8.5,0-15.4,6.8-15.4,15.2v1.3c0,6.9-5.7,12.6-12.7,12.6c-7,0-12.7-5.6-12.7-12.6v-1.3
		c0-6.9,5.7-12.6,12.7-12.6c2.8,0,5.3,0.9,7.3,2.6h-5.3c-0.7,0-1.3,0.6-1.3,1.3s0.6,1.3,1.3,1.3h8c0.7,0,1.3-0.6,1.3-1.3V1.3
		c0-0.7-0.6-1.3-1.3-1.3c-0.7,0-1.3,0.6-1.3,1.3v4.4c-2.6-2-5.8-3-8.7-3C6.9,2.6,0,9.4,0,17.8v1.3c0,8.4,6.9,15.2,15.4,15.2
		s15.4-6.8,15.4-15.2v-1.3c0-6.9,5.7-12.6,12.7-12.6c7,0,12.7,5.6,12.7,12.6v1.3c0,6.9-5.7,12.6-12.7,12.6c-2.8,0-5.3-0.9-7.3-2.6
		h5.3c0.7,0,1.3-0.6,1.3-1.3s-0.6-1.3-1.3-1.3h-8c-0.7,0-1.3,0.6-1.3,1.3v7.9c0,0.7,0.6,1.3,1.3,1.3c0.7,0,1.3-0.6,1.3-1.3v-4.4
		c2.6,2,5.8,3,8.7,3c8.5,0,15.4-6.8,15.4-15.2v-1.3C59,9.4,52.1,2.6,43.6,2.6"/>
</g>
</svg>
