<?xml version="1.0" encoding="utf-8"?>
<!-- Generator: Adobe Illustrator 22.0.1, SVG Export Plug-In . SVG Version: 6.00 Build 0)  -->
<svg version="1.1" id="Layer_1" xmlns="http://www.w3.org/2000/svg" xmlns:xlink="http://www.w3.org/1999/xlink" x="0px" y="0px"
	 viewBox="0 0 44 44" style="enable-background:new 0 0 44 44;" xml:space="preserve">
<style type="text/css">
	.st0{opacity:0;clip-path:url(#SVGID_2_);fill:#4bbdec;}
	.st1{clip-path:url(#SVGID_2_);fill-rule:evenodd;clip-rule:evenodd;fill:#4bbdec;}
</style>
<g>
	<defs>
		<rect id="SVGID_1_" width="44" height="44"/>
	</defs>
	<clipPath id="SVGID_2_">
		<use xlink:href="#SVGID_1_"  style="overflow:visible;"/>
	</clipPath>
	<rect class="st0" width="44" height="44"/>
	<path class="st1" d="M43.7,0.3C43.4,0.1,42.9,0,42.1,0c-4.2,0-15.3,3.1-21.2,9c-1.4,1.4-6,5.6-7.1,7.1c-3.5,0.9-8.5,2.8-11.3,5.7
		c0,0,3.4,0,7.6,2.7c-0.6,2.5,0.2,5.1,2.3,7.2c1.7,1.7,3.6,2.5,5.6,2.5c0.6,0,1.1-0.1,1.7-0.2c2.7,4.2,2.7,7.6,2.7,7.6
		c2.8-2.8,4.7-7.9,5.7-11.3c1.4-1.1,5.7-5.7,7.1-7.1C42.1,16.1,45.1,1.8,43.7,0.3 M26,29.7c-0.7,2.7-1.7,5.1-2.8,7.1
		c-0.4-1.2-1.1-2.5-2-3.9c-0.4-0.6-1-0.9-1.7-0.9c-0.2,0-0.3,0-0.5,0.1c-0.4,0.1-0.8,0.1-1.2,0.1c-1.5,0-2.9-0.7-4.2-1.9
		c-1.6-1.6-2.2-3.5-1.8-5.3c0.2-0.8-0.1-1.7-0.9-2.2c-1.4-0.9-2.7-1.5-3.9-2c2-1.1,4.4-2,7.1-2.8c0.1,0,0.1,0,0.2-0.1l11.6,11.6
		C26.1,29.6,26.1,29.6,26,29.7 M33.6,21.7c-0.4,0.4-1,1-1.7,1.8c-1.3,1.3-3.3,3.4-4.5,4.5L16,16.6c1.1-1.2,3.2-3.2,4.5-4.4
		c0.8-0.7,1.4-1.3,1.8-1.7C27.7,5,38.1,2,42,2C42,5.2,39.3,16.1,33.6,21.7 M7.8,24.6L0,44l19.4-7.8c-0.3,0-0.7,0.1-1,0.1
		C12.5,36.3,7.1,30.6,7.8,24.6 M3.6,40.4l3.6-9.1c0.5,0.9,1.1,1.8,1.8,2.5c1.1,1.2,2.3,2.2,3.6,2.9L3.6,40.4z M21,16
		c-0.6,0-1,0.4-1,1c0,0.6,0.4,1,1,1c0.6,0,1-0.4,1-1C22,16.4,21.6,16,21,16 M27,24c0.6,0,1-0.4,1-1c0-0.6-0.4-1-1-1
		c-0.6,0-1,0.4-1,1C26,23.6,26.4,24,27,24 M33,14c1.7,0,3-1.3,3-3c0-1.7-1.3-3-3-3c-1.7,0-3,1.3-3,3C30,12.7,31.3,14,33,14 M33,10
		c0.6,0,1,0.4,1,1c0,0.6-0.4,1-1,1c-0.6,0-1-0.4-1-1C32,10.4,32.5,10,33,10 M24,21c0.6,0,1-0.4,1-1c0-0.6-0.4-1-1-1
		c-0.6,0-1,0.4-1,1C23,20.6,23.4,21,24,21"/>
</g>
</svg>
