<?xml version="1.0" encoding="utf-8"?>
<!DOCTYPE svg PUBLIC "-//W3C//DTD SVG 1.1//EN" "http://www.w3.org/Graphics/SVG/1.1/DTD/svg11.dtd">
<svg xmlns="http://www.w3.org/2000/svg" xmlns:xlink="http://www.w3.org/1999/xlink" width="512px" version="1.1" height="512px" viewBox="0 0 64 64" enable-background="new 0 0 64 64">
  <g>
    <g fill="#1D1D1B">
      <path d="M2.252,10.271h58.871c1.124,0,2.034-0.91,2.034-2.034c0-1.123-0.91-2.034-2.034-2.034H2.252    c-1.124,0-2.034,0.911-2.034,2.034C0.218,9.36,1.128,10.271,2.252,10.271z" fill="#FFFFFF"/>
      <path d="m61.123,30.015h-58.871c-1.124,0-2.034,0.912-2.034,2.035 0,1.122 0.91,2.034 2.034,2.034h58.871c1.124,0 2.034-0.912 2.034-2.034-7.10543e-15-1.123-0.91-2.035-2.034-2.035z" fill="#FFFFFF"/>
      <path d="m61.123,53.876h-58.871c-1.124,0-2.034,0.91-2.034,2.034 0,1.123 0.91,2.034 2.034,2.034h58.871c1.124,0 2.034-0.911 2.034-2.034-7.10543e-15-1.124-0.91-2.034-2.034-2.034z" fill="#FFFFFF"/>
    </g>
  </g>
</svg>
