<?xml version="1.0" encoding="UTF-8" standalone="no"?>
<svg
   xmlns:dc="http://purl.org/dc/elements/1.1/"
   xmlns:cc="http://creativecommons.org/ns#"
   xmlns:rdf="http://www.w3.org/1999/02/22-rdf-syntax-ns#"
   xmlns:svg="http://www.w3.org/2000/svg"
   xmlns="http://www.w3.org/2000/svg"
   xmlns:sodipodi="http://sodipodi.sourceforge.net/DTD/sodipodi-0.dtd"
   xmlns:inkscape="http://www.inkscape.org/namespaces/inkscape"
   version="1.0"
   width="224.80347mm"
   height="108.28654mm"
   id="svg3862"
   sodipodi:docname="ngrx-concept.svg"
   inkscape:version="0.92.4 (5da689c313, 2019-01-14)">
  <metadata
     id="metadata3866">
    <rdf:RDF>
      <cc:Work
         rdf:about="">
        <dc:format>image/svg+xml</dc:format>
        <dc:type
           rdf:resource="http://purl.org/dc/dcmitype/StillImage" />
        <dc:title></dc:title>
      </cc:Work>
    </rdf:RDF>
  </metadata>
  <sodipodi:namedview
     pagecolor="#ffffff"
     bordercolor="#666666"
     borderopacity="1"
     objecttolerance="10"
     gridtolerance="10"
     guidetolerance="10"
     inkscape:pageopacity="0"
     inkscape:pageshadow="2"
     inkscape:window-width="1920"
     inkscape:window-height="1017"
     id="namedview3864"
     showgrid="false"
     inkscape:zoom="1.1796355"
     inkscape:cx="446.28063"
     inkscape:cy="177.20036"
     inkscape:window-x="-8"
     inkscape:window-y="-8"
     inkscape:window-maximized="1"
     inkscape:current-layer="svg3862" />
  <defs
     id="defs3714">
    <pattern
       id="EMFhbasepattern"
       patternUnits="userSpaceOnUse"
       width="6"
       height="6"
       x="0"
       y="0" />
  </defs>
  <path
     style="fill:#4472c4;fill-opacity:1;fill-rule:evenodd;stroke:none"
     d="m 374.02331,253.46639 c 0,8.63476 32.10055,15.63052 71.71654,15.63052 39.65596,0 71.75651,-6.99576 71.75651,-15.63052 v 93.74318 c 0,8.63477 -32.10055,15.63053 -71.75651,15.63053 -39.61599,0 -71.71654,-6.99576 -71.71654,-15.63053 z"
     id="path3718"
     inkscape:connector-curvature="0" />
  <path
     style="fill:#8faadc;fill-opacity:1;fill-rule:evenodd;stroke:none"
     d="m 374.02331,253.46639 c 0,-8.63477 32.10055,-15.63053 71.71654,-15.63053 39.65596,0 71.75651,6.99576 71.75651,15.63053 0,8.63476 -32.10055,15.63052 -71.75651,15.63052 -39.61599,0 -71.71654,-6.99576 -71.71654,-15.63052 z"
     id="path3720"
     inkscape:connector-curvature="0" />
  <path
     style="fill:none;stroke:#2f528f;stroke-width:1.31920052px;stroke-linecap:butt;stroke-linejoin:miter;stroke-miterlimit:8;stroke-dasharray:none;stroke-opacity:1"
     d="m 517.49636,253.46639 c 0,8.63476 -32.10055,15.63052 -71.75651,15.63052 -39.61599,0 -71.71654,-6.99576 -71.71654,-15.63052 0,-8.63477 32.10055,-15.63053 71.71654,-15.63053 39.65596,0 71.75651,6.99576 71.75651,15.63053 z m 0,0 v 93.74318 c 0,8.63477 -32.10055,15.63053 -71.75651,15.63053 -39.61599,0 -71.71654,-6.99576 -71.71654,-15.63053 v -93.74318"
     id="path3722"
     inkscape:connector-curvature="0" />
  <text
     xml:space="preserve"
     style="font-style:normal;font-variant:normal;font-weight:400;font-size:24px;line-height:125%;font-family:Calibri;text-align:start;letter-spacing:0px;word-spacing:0px;text-anchor:start;fill:#000000;fill-opacity:1;stroke:none"
     x="419.98874"
     y="316.2049"
     id="text3728"><tspan
       sodipodi:role="line"
       x="419.98874"
       y="316.2049"
       id="tspan3726"><tspan
         dx="0"
         dy="0"
         style="font-style:normal;font-variant:normal;font-weight:400;font-size:24px;font-family:Calibri;fill:#ffffff"
         id="tspan3724">Store</tspan></tspan></text>
  <path
     style="fill:#70ad47;fill-opacity:1;fill-rule:evenodd;stroke:none"
     d="m 0.66959417,257.74379 v 85.16839 H 158.21411 v -85.16839 z"
     id="path3730"
     inkscape:connector-curvature="0" />
  <path
     style="fill:none;stroke:#507e32;stroke-width:1.33918834px;stroke-linecap:butt;stroke-linejoin:miter;stroke-miterlimit:8;stroke-dasharray:none;stroke-opacity:1"
     d="M 0.66959417,257.74379 H 158.21411 v 85.16839 H 0.66959417 Z"
     id="path3732"
     inkscape:connector-curvature="0" />
  <text
     xml:space="preserve"
     style="font-style:normal;font-variant:normal;font-weight:400;font-size:24px;line-height:125%;font-family:Calibri;text-align:start;letter-spacing:0px;word-spacing:0px;text-anchor:start;fill:#000000;fill-opacity:1;stroke:none"
     x="22.061085"
     y="308.39307"
     id="text3738"><tspan
       sodipodi:role="line"
       x="22.061085"
       y="308.39307"
       id="tspan3736"><tspan
         dx="0"
         dy="0"
         style="font-style:normal;font-variant:normal;font-weight:400;font-size:24px;font-family:Calibri;fill:#ffffff"
         id="tspan3734">Component</tspan></tspan></text>
  <path
     style="fill:#ffc000;fill-opacity:1;fill-rule:evenodd;stroke:none"
     d="m 680.75741,165.11993 13.0321,26.70382 -5.39672,3.15808 16.47001,22.86614 -5.39673,3.83768 20.34767,38.29679 -34.49909,-29.38219 6.596,-4.07753 -21.42701,-18.78862 7.67535,-5.79648 -22.62629,-19.74804 z"
     id="path3740"
     inkscape:connector-curvature="0" />
  <path
     style="fill:none;stroke:#bc8c00;stroke-width:1.31920052px;stroke-linecap:butt;stroke-linejoin:miter;stroke-miterlimit:8;stroke-dasharray:none;stroke-opacity:1"
     d="m 680.75741,165.11993 13.0321,26.70382 -5.39672,3.15808 16.47001,22.86614 -5.39673,3.83768 20.34767,38.29679 -34.49909,-29.38219 6.596,-4.07753 -21.42701,-18.78862 7.67535,-5.79648 -22.62629,-19.74804 z"
     id="path3742"
     inkscape:connector-curvature="0" />
  <text
     xml:space="preserve"
     style="font-style:normal;font-variant:normal;font-weight:400;font-size:24px;line-height:125%;font-family:Calibri;text-align:start;letter-spacing:0px;word-spacing:0px;text-anchor:start;fill:#000000;fill-opacity:1;stroke:none"
     x="729.44977"
     y="214.3535"
     id="text3748"><tspan
       sodipodi:role="line"
       x="729.44977"
       y="214.3535"
       id="tspan3746"><tspan
         dx="0"
         dy="0"
         style="font-style:normal;font-variant:normal;font-weight:400;font-size:24px;font-family:Calibri;fill:#000000"
         id="tspan3744">Effect</tspan></tspan></text>
  <path
     style="fill:#ed7d31;fill-opacity:1;fill-rule:evenodd;stroke:none"
     d="m 665.9264,408.61236 v -70.75712 h -10.3937 l 20.7874,-20.7874 20.82738,20.7874 H 686.7138 v 70.75712 z"
     id="path3750"
     inkscape:connector-curvature="0" />
  <path
     style="fill:none;stroke:#ae5a21;stroke-width:1.31920052px;stroke-linecap:butt;stroke-linejoin:miter;stroke-miterlimit:8;stroke-dasharray:none;stroke-opacity:1"
     d="m 665.9264,408.61236 v -70.75712 h -10.3937 l 20.7874,-20.7874 20.82738,20.7874 H 686.7138 v 70.75712 z"
     id="path3752"
     inkscape:connector-curvature="0" />
  <path
     style="fill:#ed7d31;fill-opacity:1;fill-rule:evenodd;stroke:none"
     d="m 689.99182,349.00848 12.15263,-9.63416 v 5.63659 c 20.34767,4.07752 32.74016,17.54936 28.66263,31.22107 -2.95821,-9.87401 -13.95154,-17.86917 -28.66263,-20.82737 v 5.63658 z"
     id="path3754"
     inkscape:connector-curvature="0" />
  <path
     style="fill:#bf6427;fill-opacity:1;fill-rule:evenodd;stroke:none"
     d="m 731.56662,381.42883 c 0,14.99092 -18.62871,27.18353 -41.5748,27.18353 v -10.3937 c 22.94609,0 41.5748,-12.19261 41.5748,-27.18353 z"
     id="path3756"
     inkscape:connector-curvature="0" />
  <path
     style="fill:none;stroke:#ae5a21;stroke-width:1.31920052px;stroke-linecap:butt;stroke-linejoin:miter;stroke-miterlimit:8;stroke-dasharray:none;stroke-opacity:1"
     d="m 730.80708,376.23198 c -2.95821,-9.87401 -13.95154,-17.86917 -28.66263,-20.82737 v 5.63658 l -12.15263,-12.03271 12.15263,-9.63416 v 5.63659 c 17.46941,3.51786 29.42217,14.03149 29.42217,26.02422 v 10.3937 c 0,14.99092 -18.62871,27.18353 -41.5748,27.18353 v -10.3937 c 22.94609,0 41.5748,-12.19261 41.5748,-27.18353"
     id="path3758"
     inkscape:connector-curvature="0" />
  <text
     xml:space="preserve"
     style="font-style:normal;font-variant:normal;font-weight:400;font-size:24px;line-height:125%;font-family:Calibri;text-align:start;letter-spacing:0px;word-spacing:0px;text-anchor:start;fill:#000000;fill-opacity:1;stroke:none"
     x="741.99365"
     y="381.26233"
     id="text3764"><tspan
       sodipodi:role="line"
       x="741.99365"
       y="381.26233"
       id="tspan3762"><tspan
         dx="0"
         dy="0"
         style="font-style:normal;font-variant:normal;font-weight:400;font-size:24px;font-family:Calibri;fill:#000000"
         id="tspan3760">Reducer</tspan></tspan></text>
  <path
     style="fill:#70ad47;fill-opacity:1;fill-rule:evenodd;stroke:none"
     d="M 655.5327,0.65960026 V 71.056937 H 799.00575 V 0.65960026 Z"
     id="path3766"
     inkscape:connector-curvature="0" />
  <path
     style="fill:none;stroke:#507e32;stroke-width:1.31920052px;stroke-linecap:butt;stroke-linejoin:miter;stroke-miterlimit:8;stroke-dasharray:none;stroke-opacity:1"
     d="M 655.5327,0.65960026 H 799.00575 V 71.056937 H 655.5327 Z"
     id="path3768"
     inkscape:connector-curvature="0" />
  <text
     xml:space="preserve"
     style="font-style:normal;font-variant:normal;font-weight:400;font-size:24px;line-height:125%;font-family:Calibri;text-align:start;letter-spacing:0px;word-spacing:0px;text-anchor:start;fill:#000000;fill-opacity:1;stroke:none"
     x="687.5946"
     y="43.925186"
     id="text3774"><tspan
       sodipodi:role="line"
       x="687.5946"
       y="43.925186"
       id="tspan3772"><tspan
         dx="0"
         dy="0"
         style="font-style:normal;font-variant:normal;font-weight:400;font-size:24px;font-family:Calibri;fill:#ffffff"
         id="tspan3770">Services</tspan></tspan></text>
  <path
     style="fill:#000000;fill-opacity:1;fill-rule:nonzero;stroke:#000000;stroke-width:0.01998789px;stroke-linecap:butt;stroke-linejoin:round;stroke-miterlimit:4;stroke-dasharray:none;stroke-opacity:1"
     d="m 169.66716,337.83525 h 189.60509 v 0.67959 H 169.66716 Z m 188.28589,-3.65778 7.99516,3.99758 -7.99516,3.99758 z"
     id="path3776"
     inkscape:connector-curvature="0" />
  <text
     xml:space="preserve"
     style="font-style:normal;font-variant:normal;font-weight:400;font-size:18.6875px;line-height:125%;font-family:Calibri;text-align:start;letter-spacing:0px;word-spacing:0px;text-anchor:start;fill:#000000;fill-opacity:1;stroke:none"
     x="200.03743"
     y="360.15878"
     id="text3782"><tspan
       sodipodi:role="line"
       x="200.03743"
       y="360.15878"
       id="tspan3780"><tspan
         dx="0"
         dy="0"
         style="font-style:normal;font-variant:normal;font-weight:400;font-size:18.6875px;font-family:Calibri;fill:#000000"
         id="tspan3778">dispatches</tspan></tspan></text>
  <text
     xml:space="preserve"
     style="font-style:normal;font-variant:normal;font-weight:400;font-size:18.6875px;line-height:125%;font-family:Calibri;text-align:start;letter-spacing:0px;word-spacing:0px;text-anchor:start;fill:#000000;fill-opacity:1;stroke:none"
     x="284.78607"
     y="360.15878"
     id="text3788"><tspan
       sodipodi:role="line"
       x="284.78607"
       y="360.15878"
       id="tspan3786"><tspan
         dx="0"
         dy="0"
         style="font-style:normal;font-variant:normal;font-weight:400;font-size:18.6875px;font-family:Calibri;fill:#2f5597"
         id="tspan3784">[Action]</tspan></tspan></text>
  <path
     style="fill:#000000;fill-opacity:1;fill-rule:nonzero;stroke:#000000;stroke-width:0.03997577px;stroke-linecap:butt;stroke-linejoin:round;stroke-miterlimit:4;stroke-dasharray:none;stroke-opacity:1"
     d="m 523.61265,340.77347 116.92914,40.89522 -0.19988,0.63961 -116.92914,-40.89521 z m 116.88916,36.97759 6.23622,6.4361 -8.87462,1.11932 z"
     id="path3790"
     inkscape:connector-curvature="0" />
  <path
     style="fill:#2f5597;fill-opacity:1;fill-rule:nonzero;stroke:none"
     d="m 553.0748,376.39189 c -0.08,0.19988 -0.15991,0.3198 -0.19988,0.39975 -0.0799,0.04 -0.15991,0.08 -0.23986,0.04 l -2.19866,-0.75954 c -0.08,-0.04 -0.11993,-0.0799 -0.19988,-0.11993 -0.04,-0.04 -0.08,-0.0799 -0.11993,-0.1599 -0.04,-0.0799 -0.0799,-0.1599 -0.0799,-0.23985 0,-0.08 0.04,-0.15991 0.0799,-0.27984 l 4.79709,-13.63173 c 0.04,-0.08 0.08,-0.15991 0.11993,-0.23986 0.0799,-0.0799 0.1599,-0.11993 0.19988,-0.1599 0.0799,-0.04 0.1599,-0.04 0.23985,-0.04 0.04,0 0.11993,0.04 0.19988,0.04 l 2.19867,0.79951 c 0.04,0 0.08,0 0.08,0.04 0.04,0.04 0.04,0.08 0.04,0.11993 0.04,0.0799 0,0.11992 0,0.19988 0,0.0799 -0.04,0.1599 -0.08,0.23985 -0.04,0.19988 -0.11992,0.31981 -0.19987,0.39976 -0.04,0.04 -0.11993,0.0799 -0.19988,0.04 l -1.43913,-0.4797 -4.47729,12.71229 1.39915,0.47971 c 0.04,0 0.08,0.04 0.08,0.04 0.04,0.04 0.04,0.0799 0.08,0.11992 0,0.0799 0,0.11993 0,0.19988 -0.04,0.0799 -0.04,0.1599 -0.08,0.23986 z m 11.59297,0.99939 c 0,0.1599 -0.04,0.23986 -0.04,0.31981 -0.04,0.0799 -0.0799,0.1599 -0.11992,0.1599 -0.08,0.04 -0.15991,0.04 -0.27983,0 -0.08,-0.04 -0.23986,-0.0799 -0.43974,-0.11993 -0.1599,-0.0799 -0.3198,-0.11992 -0.39975,-0.1599 -0.11993,-0.0799 -0.19988,-0.11993 -0.23986,-0.1599 -0.04,-0.04 -0.0799,-0.0799 -0.0799,-0.11993 0,-0.04 -0.04,-0.0799 -0.04,-0.1599 v -3.03816 l -4.63719,-1.63901 -1.83888,2.35857 c -0.04,0.04 -0.0799,0.0799 -0.11993,0.11993 -0.04,0 -0.08,0.04 -0.1599,0.04 -0.08,0 -0.15991,0 -0.23986,-0.04 -0.11992,0 -0.23985,-0.04 -0.39975,-0.11993 -0.15991,-0.04 -0.31981,-0.11993 -0.39976,-0.1599 -0.11993,-0.04 -0.15991,-0.0799 -0.19988,-0.1599 -0.04,-0.04 -0.04,-0.11993 0,-0.19988 0.04,-0.08 0.0799,-0.15991 0.1599,-0.27983 l 7.39552,-9.03453 c 0.08,-0.04 0.11993,-0.0799 0.1599,-0.11993 0.04,0 0.11993,-0.04 0.19988,-0.04 0.08,0 0.15991,0.04 0.27983,0.08 0.11993,0 0.27983,0.04 0.43974,0.11993 0.19987,0.0799 0.35978,0.11992 0.43973,0.1599 0.11993,0.0799 0.23985,0.11993 0.27983,0.1599 0.0799,0.04 0.11993,0.11993 0.1599,0.15991 0,0.0799 0.04,0.11992 0.04,0.19988 z m -1.55905,-10.83343 h -0.04 l -3.87765,4.87704 3.87765,1.35918 z m 9.15445,12.55239 c 0,0.0799 -0.04,0.1599 -0.08,0.23985 -0.04,0.08 -0.08,0.11993 -0.08,0.15991 -0.04,0.08 -0.0799,0.08 -0.11992,0.11992 -0.04,0.04 -0.08,0.08 -0.19988,0.11993 -0.0799,0.04 -0.23986,0.0799 -0.43974,0.1599 -0.23985,0.04 -0.43973,0.04 -0.67958,0.04 -0.23986,0.04 -0.51969,0 -0.79952,-0.04 -0.23985,-0.04 -0.51968,-0.0799 -0.79951,-0.19987 -0.55967,-0.19988 -0.9994,-0.43974 -1.39916,-0.79952 -0.35978,-0.31981 -0.59963,-0.71956 -0.79951,-1.1593 -0.15991,-0.47971 -0.19988,-0.99939 -0.19988,-1.55905 0.04,-0.55966 0.1599,-1.1593 0.39976,-1.83889 0.27983,-0.75954 0.59963,-1.39915 0.99939,-1.87886 0.35978,-0.47971 0.79952,-0.83949 1.23925,-1.07935 0.43973,-0.23985 0.91944,-0.35978 1.39915,-0.35978 0.51969,-0.04 1.03937,0.04 1.51908,0.23986 0.27983,0.0799 0.47971,0.19988 0.71957,0.3198 0.19987,0.11993 0.39975,0.27983 0.55966,0.39976 0.1599,0.1599 0.3198,0.31981 0.43973,0.43974 0.11993,0.1599 0.19988,0.27983 0.23985,0.35978 0.04,0.11992 0.08,0.19988 0.08,0.23985 0,0.04 0.04,0.0799 0.04,0.1599 -0.04,0.04 -0.04,0.11993 -0.04,0.19988 -0.04,0.08 -0.04,0.15991 -0.08,0.23986 -0.0799,0.23985 -0.1599,0.39976 -0.23985,0.43973 -0.11993,0.0799 -0.1599,0.11993 -0.23986,0.0799 -0.11992,-0.04 -0.19987,-0.11992 -0.27983,-0.23985 -0.04,-0.11993 -0.1599,-0.27983 -0.27983,-0.47971 -0.1599,-0.1599 -0.3198,-0.35978 -0.51968,-0.51969 -0.23986,-0.19987 -0.47971,-0.3198 -0.83949,-0.43973 -0.67959,-0.23985 -1.27923,-0.1599 -1.83889,0.23986 -0.55966,0.35978 -0.99939,1.07934 -1.35917,2.07874 -0.15991,0.4797 -0.27983,0.95941 -0.31981,1.35917 -0.04,0.39976 0,0.75954 0.08,1.07935 0.11993,0.3198 0.27983,0.59963 0.47971,0.79951 0.23986,0.23986 0.51969,0.39976 0.83949,0.51969 0.35978,0.11993 0.63961,0.1599 0.91944,0.1599 0.27983,-0.04 0.55967,-0.04 0.75954,-0.11993 0.23986,-0.04 0.43974,-0.11992 0.59964,-0.1599 0.1599,-0.0799 0.27983,-0.0799 0.31981,-0.0799 0.04,0.04 0.0799,0.04 0.11992,0.0799 0,0.04 0,0.0799 0,0.1599 0,0.04 0,0.11993 0,0.19988 -0.04,0.11993 -0.08,0.19988 -0.11992,0.31981 z m 5.63658,2.67838 c -0.04,0.1599 -0.11993,0.27983 -0.1599,0.35978 -0.08,0.11993 -0.11993,0.1599 -0.19988,0.19988 -0.04,0.04 -0.11993,0.04 -0.23986,0.04 -0.11992,0.04 -0.23985,0 -0.35978,0 -0.11993,0 -0.23985,-0.04 -0.39976,-0.0799 -0.11992,0 -0.23985,-0.04 -0.39975,-0.0799 -0.39976,-0.1599 -0.71957,-0.31981 -0.95942,-0.55966 -0.23986,-0.19988 -0.43974,-0.43974 -0.55966,-0.71957 -0.08,-0.27983 -0.11993,-0.59963 -0.08,-0.95941 0,-0.35979 0.11992,-0.75954 0.27983,-1.19928 l 1.59903,-4.55724 -1.07935,-0.35978 c -0.08,-0.04 -0.1599,-0.11992 -0.1599,-0.19988 -0.04,-0.11992 0,-0.27983 0.0799,-0.47971 0.04,-0.11992 0.08,-0.19987 0.11993,-0.27983 0.04,-0.0799 0.0799,-0.11992 0.11992,-0.1599 0.04,-0.04 0.08,-0.0799 0.11993,-0.0799 0.04,0 0.08,0 0.11993,0 l 1.07934,0.39976 0.67959,-1.83889 c 0,-0.04 0.04,-0.08 0.04,-0.11993 0.04,0 0.0799,-0.04 0.1599,-0.04 0.0799,0 0.15991,0 0.23986,0.04 0.0799,0 0.19988,0.04 0.35978,0.08 0.11993,0.04 0.23985,0.11992 0.3198,0.1599 0.11993,0.04 0.15991,0.0799 0.19988,0.11993 0.04,0.04 0.08,0.0799 0.08,0.11992 0.04,0.04 0,0.08 0,0.11993 l -0.63962,1.83889 1.99879,0.71956 c 0.04,0 0.08,0.04 0.08,0.0799 0.04,0.04 0.04,0.08 0.0799,0.11993 0,0.0799 0,0.11993 -0.04,0.19988 0,0.0799 -0.04,0.19988 -0.0799,0.27983 -0.04,0.23985 -0.11993,0.35978 -0.19988,0.43973 -0.11993,0.0799 -0.19988,0.0799 -0.27983,0.0799 l -1.99879,-0.71956 -1.51908,4.31738 c -0.19988,0.55966 -0.23985,0.95942 -0.19988,1.3192 0.0799,0.31981 0.31981,0.55966 0.71956,0.67959 0.11993,0.04 0.23986,0.0799 0.35979,0.0799 0.11992,0.04 0.23985,0.04 0.3198,0.04 0.08,0 0.15991,0 0.23986,0 0.04,-0.04 0.11993,0 0.1599,0 0.04,0 0.04,0.04 0.0799,0.04 0,0.04 0.04,0.08 0.04,0.11993 0,0.04 -0.04,0.0799 -0.04,0.15991 0,0.0799 -0.04,0.1599 -0.0799,0.27983 z m 3.07814,1.71895 c 0,0.04 -0.04,0.08 -0.08,0.11993 -0.04,0 -0.0799,0.04 -0.11992,0.04 -0.08,0 -0.15991,0 -0.23986,-0.04 -0.11993,0 -0.23985,-0.04 -0.35978,-0.11993 -0.1599,-0.04 -0.27983,-0.08 -0.35978,-0.11992 -0.0799,-0.04 -0.15991,-0.0799 -0.19988,-0.11993 -0.04,-0.04 -0.08,-0.0799 -0.08,-0.11993 0,-0.04 0,-0.08 0,-0.1599 l 2.75833,-7.71533 c 0,-0.04 0.04,-0.0799 0.08,-0.11992 0.04,-0.04 0.0799,-0.04 0.11992,-0.04 0.08,0 0.15991,0 0.23986,0 0.11993,0.04 0.23985,0.0799 0.35978,0.11993 0.1599,0.04 0.23986,0.11993 0.35978,0.1599 0.0799,0.04 0.15991,0.0799 0.19988,0.11993 0.04,0.04 0.04,0.0799 0.08,0.11993 0,0.04 0,0.0799 0,0.11992 z m 3.83767,-10.31375 c -0.11993,0.31981 -0.27983,0.55967 -0.43973,0.59964 -0.15991,0.0799 -0.43974,0.0799 -0.75954,-0.04 -0.31981,-0.11993 -0.55966,-0.27983 -0.63962,-0.43974 -0.0799,-0.1599 -0.04,-0.39976 0.08,-0.71956 0.11992,-0.31981 0.23985,-0.51969 0.39975,-0.59964 0.19988,-0.0799 0.43974,-0.0799 0.75954,0.04 0.35978,0.11992 0.55966,0.27983 0.63962,0.43973 0.08,0.1599 0.08,0.39976 -0.04,0.71956 z m 7.43549,9.83404 c -0.23985,0.63962 -0.51968,1.19928 -0.87946,1.67899 -0.35979,0.43973 -0.75954,0.83949 -1.23925,1.07934 -0.43974,0.27983 -0.95942,0.43974 -1.55906,0.47971 -0.55966,0.04 -1.1593,-0.08 -1.83888,-0.27983 -0.63962,-0.23985 -1.1593,-0.51968 -1.55906,-0.87947 -0.39976,-0.35978 -0.71956,-0.79951 -0.87947,-1.23924 -0.19987,-0.47971 -0.27983,-0.9994 -0.23985,-1.59903 0,-0.55967 0.1599,-1.1593 0.35978,-1.83889 0.23986,-0.59964 0.51969,-1.1593 0.87947,-1.63901 0.35978,-0.47971 0.75954,-0.83949 1.23925,-1.11932 0.43973,-0.27983 0.95942,-0.39976 1.51908,-0.43973 0.59963,-0.04 1.19927,0.04 1.87886,0.27983 0.59963,0.23985 1.1593,0.51968 1.55905,0.87947 0.39976,0.35978 0.67959,0.75953 0.87947,1.23924 0.19988,0.47971 0.27983,0.9994 0.23985,1.55906 0,0.59964 -0.1599,1.19927 -0.35978,1.83888 z m -1.51908,-0.43973 c 0.15991,-0.39976 0.23986,-0.79951 0.31981,-1.19927 0.04,-0.39976 0.04,-0.79952 -0.04,-1.11932 -0.0799,-0.35979 -0.27983,-0.67959 -0.51968,-0.91945 -0.23986,-0.27983 -0.59964,-0.51968 -1.03937,-0.67958 -0.43973,-0.15991 -0.83949,-0.19988 -1.19927,-0.15991 -0.35979,0.04 -0.67959,0.15991 -0.95942,0.35978 -0.27983,0.19988 -0.55966,0.47971 -0.79952,0.8395 -0.19988,0.3198 -0.39976,0.71956 -0.55966,1.15929 -0.1599,0.43974 -0.23985,0.83949 -0.31981,1.23925 -0.04,0.39976 -0.04,0.75954 0.08,1.11932 0.08,0.35979 0.23985,0.63962 0.47971,0.91945 0.23985,0.27983 0.59963,0.47971 1.07934,0.63961 0.39976,0.1599 0.79952,0.19988 1.1593,0.1599 0.35978,-0.04 0.67959,-0.1599 0.95942,-0.35978 0.27983,-0.19988 0.55966,-0.43973 0.79951,-0.79952 0.19988,-0.35978 0.39976,-0.71956 0.55966,-1.19927 z m 8.9146,7.51545 c 0,0.04 -0.04,0.0799 -0.0799,0.11992 -0.04,0 -0.08,0.04 -0.11993,0.04 -0.0799,0 -0.1599,0 -0.23985,-0.04 -0.11993,0 -0.23986,-0.04 -0.35978,-0.0799 -0.15991,-0.0799 -0.23986,-0.11993 -0.35979,-0.1599 -0.08,-0.04 -0.11992,-0.0799 -0.19988,-0.11993 -0.04,-0.04 -0.04,-0.0799 -0.08,-0.11993 0,-0.04 0,-0.0799 0.04,-0.11992 l 1.59903,-4.55724 c 0.1599,-0.43973 0.23985,-0.79952 0.23985,-1.11932 0.04,-0.27983 0.04,-0.55966 -0.04,-0.79952 -0.04,-0.23985 -0.1599,-0.43973 -0.35978,-0.59963 -0.15991,-0.19988 -0.39976,-0.31981 -0.67959,-0.43974 -0.31981,-0.11993 -0.71957,-0.11993 -1.19927,0 -0.43974,0.11993 -0.91945,0.35978 -1.47911,0.71957 l -1.91884,5.4367 c -0.04,0.04 -0.04,0.0799 -0.08,0.0799 -0.04,0.04 -0.0799,0.04 -0.1599,0.04 -0.04,0 -0.11993,0 -0.23985,0 -0.08,-0.04 -0.19988,-0.0799 -0.35979,-0.11993 -0.11992,-0.04 -0.23985,-0.0799 -0.3198,-0.11993 -0.0799,-0.0799 -0.15991,-0.11992 -0.19988,-0.1599 -0.04,-0.04 -0.0799,-0.0799 -0.0799,-0.11993 0,-0.04 0,-0.0799 0,-0.11992 l 2.75833,-7.7553 c 0,-0.04 0.04,-0.08 0.04,-0.08 0.04,-0.04 0.08,-0.0799 0.1599,-0.0799 0.04,0 0.11993,0 0.19988,0.04 0.08,0 0.19988,0.04 0.31981,0.08 0.11993,0.04 0.23985,0.0799 0.31981,0.11993 0.08,0.04 0.11992,0.0799 0.1599,0.11992 0.04,0.04 0.08,0.08 0.08,0.11993 0,0.04 0,0.0799 0,0.15991 l -0.35978,0.99939 c 0.59963,-0.31981 1.1593,-0.51969 1.67898,-0.59964 0.51969,-0.0799 0.99939,-0.04 1.43913,0.11993 0.51968,0.19988 0.91944,0.43973 1.19927,0.71956 0.27983,0.31981 0.47971,0.63962 0.59964,0.9994 0.11993,0.35978 0.1599,0.75954 0.11993,1.19927 -0.04,0.43974 -0.15991,0.91944 -0.35979,1.47911 z m 4.15748,4.1175 c -0.04,0.11993 -0.11993,0.23986 -0.1599,0.27983 -0.08,0.0799 -0.11993,0.11993 -0.19988,0.1599 -0.08,0 -0.11993,0.04 -0.19988,0.04 -0.08,0 -0.1599,-0.04 -0.23985,-0.04 l -2.1587,-0.79951 c -0.08,-0.04 -0.1599,-0.0799 -0.1599,-0.1599 0,-0.11993 0,-0.23986 0.0799,-0.43974 0.04,-0.0799 0.08,-0.1599 0.08,-0.23985 0.04,-0.0799 0.08,-0.11993 0.11993,-0.15991 0.04,-0.04 0.08,-0.04 0.11993,-0.04 0.04,0 0.08,0 0.11993,0 l 1.39915,0.51968 4.47728,-12.75227 -1.39915,-0.47971 c -0.0799,-0.04 -0.11992,-0.0799 -0.11992,-0.19988 -0.04,-0.0799 0,-0.19987 0.04,-0.39975 0.04,-0.0799 0.0799,-0.19988 0.11993,-0.23986 0.04,-0.0799 0.08,-0.11993 0.11993,-0.1599 0.04,-0.04 0.0799,-0.04 0.11992,-0.0799 0,0 0.04,0 0.0799,0.04 l 2.19867,0.75954 c 0.08,0.04 0.15991,0.0799 0.19988,0.11993 0.08,0.04 0.11993,0.0799 0.1599,0.1599 0.04,0.0799 0.04,0.15991 0.04,0.23986 0,0.0799 0,0.1599 -0.04,0.27983 z"
     id="path3792"
     inkscape:connector-curvature="0" />
  <path
     style="fill:#000000;fill-opacity:1;fill-rule:nonzero;stroke:#000000;stroke-width:0.03997577px;stroke-linecap:butt;stroke-linejoin:round;stroke-miterlimit:4;stroke-dasharray:none;stroke-opacity:1"
     d="m 645.73864,365.99819 -116.00969,-39.21624 0.19987,-0.63961 116.04967,39.21623 z M 529.8089,330.6596 l -6.31618,-6.35614 8.87463,-1.19928 z"
     id="path3794"
     inkscape:connector-curvature="0" />
  <path
     style="fill:#000000;fill-opacity:1;fill-rule:nonzero;stroke:none"
     d="m 571.42368,324.58329 c 0,0.04 -0.04,0.0799 -0.04,0.11992 -0.04,0.04 -0.0799,0.04 -0.1599,0.04 -0.04,0 -0.11993,0 -0.19988,0 -0.0799,-0.04 -0.19988,-0.0799 -0.31981,-0.11993 -0.11993,-0.04 -0.23985,-0.0799 -0.3198,-0.11993 -0.08,-0.04 -0.15991,-0.0799 -0.19988,-0.11992 -0.04,-0.04 -0.04,-0.0799 -0.04,-0.11993 0,-0.04 0,-0.0799 0,-0.11993 l 0.35978,-1.03937 c -0.59963,0.35978 -1.15929,0.55966 -1.67898,0.63961 -0.51968,0.08 -0.99939,0.04 -1.43913,-0.11992 -0.51968,-0.19988 -0.91944,-0.43974 -1.19927,-0.71957 -0.31981,-0.27983 -0.51969,-0.63961 -0.63961,-0.99939 -0.11993,-0.35978 -0.15991,-0.75954 -0.11993,-1.19927 0.0799,-0.43974 0.19988,-0.91945 0.35978,-1.47911 l 1.63901,-4.71714 c 0.04,-0.04 0.04,-0.0799 0.08,-0.11993 0.04,0 0.0799,-0.04 0.1599,-0.04 0.04,0 0.11993,0 0.23986,0.04 0.08,0 0.19988,0.04 0.35978,0.08 0.11993,0.0799 0.23985,0.11992 0.31981,0.1599 0.0799,0.04 0.1599,0.0799 0.19987,0.11993 0.04,0.04 0.08,0.0799 0.08,0.11992 0.04,0.04 0.04,0.0799 0,0.11993 l -1.55906,4.51726 c -0.1599,0.47971 -0.23985,0.83949 -0.27983,1.1593 -0.04,0.27983 0,0.55966 0.04,0.79952 0.08,0.23985 0.19988,0.43973 0.35978,0.59963 0.19988,0.19988 0.39976,0.31981 0.67959,0.43974 0.35978,0.11992 0.75954,0.11992 1.19927,-0.04 0.43973,-0.11993 0.95942,-0.35978 1.51908,-0.71956 l 1.87886,-5.39673 c 0,-0.08 0.04,-0.08 0.08,-0.11993 0.04,-0.04 0.0799,-0.04 0.11993,-0.04 0.08,0 0.1599,0 0.23985,0 0.11993,0.04 0.23986,0.08 0.35979,0.11993 0.1599,0.04 0.27983,0.0799 0.35978,0.11993 0.0799,0.04 0.1599,0.0799 0.19988,0.1599 0.04,0.04 0.04,0.0799 0.0799,0.11993 0,0.04 0,0.08 0,0.11993 z m 11.11326,-0.63962 c -0.23985,0.67959 -0.51968,1.27923 -0.83949,1.75894 -0.35978,0.47971 -0.71956,0.87946 -1.1593,1.15929 -0.39976,0.27984 -0.83949,0.43974 -1.35917,0.51969 -0.47971,0.04 -0.9994,0 -1.51908,-0.19988 -0.23986,-0.0799 -0.43974,-0.19988 -0.63962,-0.27983 -0.1599,-0.11993 -0.3198,-0.27983 -0.47971,-0.43973 -0.1599,-0.15991 -0.27983,-0.35979 -0.43973,-0.55966 -0.11993,-0.19988 -0.23985,-0.43974 -0.39976,-0.71957 l -1.35917,3.87765 c 0,0.04 -0.04,0.0799 -0.0799,0.11993 0,0 -0.08,0.04 -0.11993,0.04 -0.0799,0 -0.1599,0 -0.23986,-0.04 -0.08,0 -0.19988,-0.04 -0.35978,-0.0799 -0.11993,-0.0799 -0.23985,-0.11993 -0.3198,-0.15991 -0.11993,-0.04 -0.15991,-0.0799 -0.19988,-0.11992 -0.08,-0.04 -0.08,-0.0799 -0.11993,-0.11993 0,-0.04 0,-0.0799 0.04,-0.11993 l 3.75772,-10.87341 c 0,-0.04 0.04,-0.0799 0.08,-0.11992 0,0 0.04,-0.04 0.11993,-0.04 0.04,0 0.11992,0 0.19988,0.04 0.08,0 0.19987,0.04 0.3198,0.0799 0.11993,0.04 0.19988,0.0799 0.27983,0.11992 0.0799,0.04 0.11993,0.08 0.19988,0.11993 0.04,0.04 0.04,0.0799 0.0799,0.11993 0,0.04 0,0.0799 -0.04,0.11993 l -0.35979,1.03937 c 0.31981,-0.15991 0.63962,-0.27983 0.91945,-0.39976 0.27983,-0.0799 0.51968,-0.1599 0.79951,-0.19988 0.27983,-0.04 0.51969,-0.04 0.75954,-0.04 0.27983,0.04 0.51969,0.08 0.79952,0.15991 0.55966,0.19988 0.99939,0.47971 1.3192,0.83949 0.3198,0.35978 0.51968,0.75954 0.63961,1.23925 0.11993,0.47971 0.1599,0.95942 0.11993,1.51908 -0.0799,0.51968 -0.19988,1.07934 -0.39976,1.639 z m -1.51908,-0.3198 c 0.11993,-0.39976 0.23986,-0.79952 0.27983,-1.19928 0.08,-0.39975 0.08,-0.75954 0.04,-1.07934 -0.04,-0.35978 -0.15991,-0.63961 -0.35978,-0.91944 -0.15991,-0.23986 -0.43974,-0.43974 -0.8395,-0.55967 -0.1599,-0.0799 -0.35978,-0.11992 -0.55966,-0.11992 -0.19988,0 -0.39975,0 -0.63961,0.0799 -0.23985,0.04 -0.47971,0.11993 -0.75954,0.23985 -0.23985,0.11993 -0.55966,0.27983 -0.87947,0.51969 l -1.07934,3.07813 c 0.23985,0.59964 0.47971,1.11932 0.75954,1.47911 0.23985,0.35978 0.59963,0.63961 0.95942,0.75954 0.35978,0.11992 0.71956,0.1599 1.03937,0.0799 0.3198,-0.0799 0.59963,-0.23986 0.83949,-0.47971 0.27983,-0.23986 0.51968,-0.51969 0.67959,-0.83949 0.19987,-0.35978 0.39975,-0.67959 0.51968,-1.03937 z m 8.83465,7.35554 c 0,0.04 -0.04,0.0799 -0.04,0.11993 -0.04,0.04 -0.08,0.04 -0.1599,0.04 -0.04,0 -0.11993,0 -0.19988,0 -0.08,-0.04 -0.19988,-0.04 -0.27983,-0.0799 -0.11993,-0.0799 -0.23986,-0.11993 -0.31981,-0.1599 -0.0799,-0.04 -0.11992,-0.04 -0.1599,-0.0799 -0.04,-0.04 -0.0799,-0.08 -0.0799,-0.11993 -0.04,-0.0799 -0.04,-0.11993 0,-0.1599 l 0.35978,-0.9994 c -0.55966,0.27983 -1.11932,0.47971 -1.63901,0.55966 -0.51968,0.11993 -1.03937,0.0799 -1.59903,-0.11993 -0.55966,-0.19987 -0.99939,-0.4797 -1.3192,-0.83949 -0.3198,-0.35978 -0.55966,-0.75954 -0.67959,-1.23925 -0.11992,-0.43973 -0.1599,-0.95941 -0.08,-1.51907 0.04,-0.55967 0.19988,-1.07935 0.39976,-1.67899 0.19988,-0.63961 0.47971,-1.23925 0.83949,-1.71896 0.31981,-0.4797 0.67959,-0.87946 1.11932,-1.15929 0.39976,-0.27983 0.83949,-0.43974 1.3192,-0.51969 0.51969,-0.04 1.03937,0.04 1.55906,0.19988 0.47971,0.1599 0.83949,0.39976 1.1593,0.75954 0.3198,0.31981 0.55966,0.71956 0.79951,1.23925 l 1.55906,-4.51726 c 0.04,-0.04 0.04,-0.0799 0.0799,-0.0799 0.04,-0.04 0.08,-0.08 0.1599,-0.08 0.04,0 0.11993,0.04 0.23986,0.04 0.08,0 0.19987,0.04 0.3198,0.0799 0.1599,0.0799 0.27983,0.11993 0.35978,0.1599 0.08,0.04 0.15991,0.08 0.19988,0.11993 0.04,0.04 0.08,0.0799 0.08,0.11993 0.04,0.0799 0.04,0.11993 0,0.1599 z m 0.47971,-5.95639 c -0.19988,-0.59964 -0.47971,-1.11932 -0.71957,-1.4791 -0.27983,-0.35979 -0.63961,-0.63962 -0.99939,-0.75954 -0.35978,-0.11993 -0.71957,-0.15991 -1.03937,-0.08 -0.31981,0.11993 -0.59964,0.23986 -0.83949,0.47971 -0.23986,0.23986 -0.47971,0.51969 -0.67959,0.83949 -0.19988,0.31981 -0.35978,0.67959 -0.47971,1.03937 -0.1599,0.39976 -0.23986,0.79952 -0.31981,1.19928 -0.08,0.39976 -0.08,0.75954 -0.04,1.11932 0.08,0.31981 0.19988,0.63961 0.35978,0.87947 0.19988,0.27983 0.47971,0.47971 0.83949,0.59963 0.19988,0.04 0.39976,0.0799 0.59964,0.11993 0.1599,0 0.39975,-0.04 0.59963,-0.08 0.23986,-0.0799 0.47971,-0.1599 0.75954,-0.27983 0.27983,-0.11993 0.55966,-0.27983 0.87947,-0.47971 z m 7.95517,8.87462 c -0.04,0.0799 -0.08,0.11993 -0.11992,0.1599 -0.0799,0 -0.11993,0 -0.23986,0 -0.08,0 -0.19988,-0.04 -0.35978,-0.0799 -0.11993,-0.0799 -0.23985,-0.11993 -0.31981,-0.1599 -0.11992,-0.04 -0.1599,-0.11993 -0.19987,-0.1599 0,-0.04 0,-0.08 0,-0.15991 l 0.27983,-0.79951 c -0.47971,0.23985 -0.95942,0.39976 -1.43913,0.47971 -0.47971,0.04 -0.95942,0 -1.43913,-0.15991 -0.39976,-0.1599 -0.75954,-0.3198 -1.03937,-0.55966 -0.27983,-0.19988 -0.51968,-0.47971 -0.67959,-0.75954 -0.1599,-0.27983 -0.27983,-0.59963 -0.27983,-0.91944 -0.04,-0.35978 0,-0.67959 0.1599,-1.07935 0.11993,-0.43973 0.35979,-0.75954 0.63962,-1.03937 0.27983,-0.23985 0.63961,-0.43973 1.03937,-0.51968 0.43973,-0.11993 0.87946,-0.11993 1.39915,-0.0799 0.51968,0.0799 1.07935,0.19988 1.67898,0.39976 l 1.07935,0.39975 0.19988,-0.59963 c 0.11992,-0.31981 0.1599,-0.59964 0.19988,-0.83949 0,-0.23986 -0.04,-0.47971 -0.11993,-0.67959 -0.0799,-0.19988 -0.23986,-0.39976 -0.43974,-0.51969 -0.1599,-0.1599 -0.43973,-0.3198 -0.75954,-0.43973 -0.35978,-0.11993 -0.67958,-0.1599 -0.99939,-0.19988 -0.31981,0 -0.59964,0 -0.83949,0.04 -0.23986,0.04 -0.43973,0.04 -0.59964,0.0799 -0.19988,0.04 -0.3198,0.04 -0.35978,0.04 -0.04,-0.04 -0.0799,-0.04 -0.11993,-0.0799 -0.04,-0.04 -0.04,-0.0799 -0.04,-0.1599 -0.04,-0.04 -0.04,-0.11993 0,-0.19988 0,-0.04 0.04,-0.11993 0.04,-0.23986 0.08,-0.11992 0.11993,-0.23985 0.15991,-0.3198 0.04,-0.0799 0.11992,-0.11993 0.23985,-0.19988 0.0799,-0.04 0.27983,-0.0799 0.47971,-0.11993 0.23986,-0.04 0.47971,-0.04 0.75954,-0.04 0.27983,0 0.55966,0.04 0.87947,0.0799 0.3198,0.04 0.63961,0.11993 0.91944,0.23985 0.55966,0.15991 0.99939,0.39976 1.35918,0.67959 0.35978,0.23986 0.59963,0.55966 0.75954,0.87947 0.1599,0.3198 0.23985,0.67959 0.19987,1.07934 0,0.39976 -0.11992,0.8395 -0.27983,1.3192 z m -0.19987,-4.03755 -1.19928,-0.39976 c -0.39976,-0.1599 -0.75954,-0.23985 -1.07934,-0.23985 -0.27983,-0.04 -0.55966,-0.04 -0.79952,0.04 -0.23985,0.04 -0.43973,0.1599 -0.59964,0.31981 -0.11992,0.11992 -0.23985,0.3198 -0.3198,0.55966 -0.1599,0.39976 -0.11993,0.75954 0.04,1.11932 0.15991,0.31981 0.47971,0.55966 0.95942,0.71956 0.35978,0.11993 0.75954,0.15991 1.11932,0.08 0.39976,-0.08 0.8395,-0.27984 1.3192,-0.51969 z m 6.87583,5.71653 c -0.04,0.19988 -0.11993,0.31981 -0.1599,0.39976 -0.04,0.0799 -0.11993,0.1599 -0.15991,0.1599 -0.08,0.04 -0.1599,0.08 -0.27983,0.08 -0.08,0 -0.19988,0 -0.3198,0 -0.15991,-0.04 -0.27983,-0.04 -0.39976,-0.08 -0.1599,-0.04 -0.27983,-0.0799 -0.43974,-0.11992 -0.39975,-0.11993 -0.71956,-0.31981 -0.95941,-0.51969 -0.23986,-0.19988 -0.43974,-0.43973 -0.55966,-0.71956 -0.08,-0.27983 -0.11993,-0.59964 -0.11993,-0.95942 0.04,-0.35978 0.1599,-0.75954 0.3198,-1.19927 l 1.55906,-4.55724 -1.07935,-0.35978 c -0.0799,-0.04 -0.1599,-0.11993 -0.1599,-0.23986 -0.04,-0.0799 0,-0.23985 0.08,-0.43973 0.04,-0.11993 0.0799,-0.19988 0.11993,-0.27983 0.04,-0.0799 0.08,-0.11993 0.11993,-0.15991 0.04,-0.04 0.0799,-0.08 0.11992,-0.08 0.04,0 0.08,0 0.11993,0 l 1.07935,0.39976 0.63961,-1.87886 c 0.04,-0.04 0.04,-0.0799 0.0799,-0.0799 0.04,-0.04 0.08,-0.04 0.1599,-0.04 0.04,-0.04 0.11993,0 0.23986,0 0.08,0.04 0.19988,0.04 0.3198,0.11993 0.15991,0.04 0.27984,0.0799 0.35979,0.11993 0.0799,0.04 0.1599,0.0799 0.19988,0.11992 0.04,0.04 0.0799,0.11993 0.0799,0.15991 0,0.04 0,0.0799 0,0.11992 l -0.63962,1.83889 1.99879,0.67959 c 0.04,0.04 0.0799,0.04 0.0799,0.0799 0.04,0.04 0.08,0.0799 0.08,0.11993 0,0.0799 0,0.1599 0,0.23985 -0.04,0.04 -0.04,0.1599 -0.08,0.27983 -0.0799,0.19988 -0.1599,0.31981 -0.23985,0.39976 -0.0799,0.0799 -0.1599,0.11993 -0.27983,0.0799 l -1.95881,-0.71956 -1.51908,4.35736 c -0.19988,0.51968 -0.23986,0.95941 -0.19988,1.27922 0.08,0.31981 0.31981,0.55966 0.71956,0.71956 0.11993,0.04 0.23986,0.08 0.35978,0.08 0.11993,0 0.23986,0 0.31981,0 0.08,0 0.1599,0 0.23986,0 0.04,0 0.11992,0 0.1599,0 0.04,0.04 0.04,0.04 0.08,0.0799 0,0 0.04,0.04 0.04,0.0799 0,0.04 0,0.11993 -0.04,0.19988 0,0.0799 -0.04,0.1599 -0.08,0.23985 z m 9.59418,-0.75954 c -0.08,0.23986 -0.1599,0.35979 -0.3198,0.43974 -0.15991,0.04 -0.27983,0.04 -0.43974,0 l -5.11689,-1.75894 c -0.15991,0.39976 -0.23986,0.83949 -0.27983,1.19928 0,0.35978 0.04,0.71956 0.11992,1.03937 0.11993,0.3198 0.31981,0.59963 0.59964,0.83949 0.27983,0.23985 0.67959,0.43973 1.11932,0.59963 0.39976,0.15991 0.71956,0.23986 1.03937,0.27983 0.31981,0.04 0.55966,0.04 0.79952,0.04 0.23985,0 0.43973,0 0.59963,-0.04 0.15991,0 0.27983,0 0.35978,0.04 0.04,0 0.04,0.04 0.08,0.0799 0.04,0 0.04,0.04 0.04,0.0799 0,0.0799 0,0.11993 0,0.19988 -0.04,0.0799 -0.04,0.15991 -0.08,0.27983 -0.04,0.0799 -0.08,0.11993 -0.08,0.19988 -0.04,0.04 -0.04,0.08 -0.0799,0.11993 -0.04,0.04 -0.04,0.0799 -0.08,0.11993 -0.04,0 -0.08,0.04 -0.11993,0.04 -0.04,0.04 -0.1599,0.04 -0.31981,0.0799 -0.19988,0 -0.39976,0 -0.67959,0 -0.27983,-0.04 -0.59963,-0.0799 -0.91944,-0.11992 -0.35978,-0.04 -0.71956,-0.15991 -1.07934,-0.27983 -0.63962,-0.19988 -1.1593,-0.51969 -1.59904,-0.8395 -0.39975,-0.35978 -0.71956,-0.75954 -0.91944,-1.23924 -0.19988,-0.43974 -0.3198,-0.95942 -0.27983,-1.55906 0,-0.59964 0.11993,-1.23925 0.35978,-1.91884 0.23986,-0.67958 0.55966,-1.23925 0.91945,-1.71896 0.3198,-0.4797 0.75954,-0.83949 1.19927,-1.11932 0.43973,-0.23985 0.95942,-0.39975 1.4791,-0.43973 0.51969,-0.04 1.07935,0.04 1.63901,0.23985 0.59964,0.19988 1.07935,0.47971 1.4791,0.8395 0.35979,0.35978 0.59964,0.71956 0.75954,1.15929 0.15991,0.43974 0.23986,0.87947 0.19988,1.35918 0,0.51968 -0.11993,0.99939 -0.27983,1.51908 z m -1.27922,-0.91944 c 0.27983,-0.71956 0.31981,-1.35918 0.11993,-1.91884 -0.19988,-0.55966 -0.63962,-0.95942 -1.3192,-1.19927 -0.35979,-0.11993 -0.71957,-0.1599 -0.9994,-0.11993 -0.3198,0.04 -0.59963,0.15991 -0.87947,0.31981 -0.23985,0.1599 -0.4797,0.35978 -0.67958,0.59964 -0.19988,0.27983 -0.35979,0.55966 -0.47971,0.87946 z m 7.5954,5.47668 c -0.15991,0.39976 -0.35979,0.71957 -0.59964,0.95942 -0.27983,0.27983 -0.55966,0.47971 -0.91944,0.59964 -0.31981,0.11992 -0.71957,0.1599 -1.11933,0.11992 -0.39975,0 -0.83949,-0.0799 -1.27922,-0.23985 -0.27983,-0.11993 -0.55966,-0.19988 -0.79952,-0.35978 -0.19987,-0.11993 -0.43973,-0.23986 -0.59963,-0.39976 -0.1599,-0.11993 -0.31981,-0.23986 -0.43974,-0.35978 -0.11992,-0.11993 -0.19987,-0.23986 -0.23985,-0.31981 -0.04,-0.0799 -0.04,-0.1599 -0.04,-0.27983 0,-0.11993 0.04,-0.23985 0.11993,-0.43973 0.04,-0.11993 0.04,-0.19988 0.0799,-0.27983 0.04,-0.04 0.08,-0.11993 0.11993,-0.15991 0.04,-0.04 0.0799,-0.04 0.11993,-0.0799 0.04,0 0.08,0 0.11993,0.04 0.04,0 0.11992,0.0799 0.23985,0.19988 0.08,0.11992 0.19988,0.23985 0.35978,0.39975 0.1599,0.15991 0.31981,0.31981 0.55966,0.47971 0.19988,0.15991 0.47971,0.31981 0.79952,0.43974 0.23985,0.0799 0.47971,0.11992 0.67959,0.11992 0.23985,0.04 0.43973,0 0.59963,-0.04 0.15991,-0.04 0.31981,-0.1599 0.47971,-0.27983 0.11993,-0.11993 0.23986,-0.27983 0.27983,-0.51969 0.0799,-0.19988 0.0799,-0.39975 0.04,-0.59963 -0.0799,-0.19988 -0.1599,-0.35978 -0.31981,-0.55966 -0.11993,-0.15991 -0.3198,-0.31981 -0.51968,-0.51969 -0.19988,-0.1599 -0.39976,-0.3198 -0.59964,-0.51968 -0.19988,-0.15991 -0.39976,-0.35979 -0.59964,-0.55966 -0.19988,-0.23986 -0.35978,-0.43974 -0.47971,-0.67959 -0.11992,-0.23986 -0.19987,-0.51969 -0.19987,-0.79952 -0.04,-0.27983 0,-0.59963 0.11992,-0.95942 0.11993,-0.27983 0.27983,-0.55966 0.47971,-0.79951 0.23986,-0.23986 0.47971,-0.43974 0.79952,-0.55966 0.3198,-0.11993 0.63961,-0.19988 1.03937,-0.19988 0.39976,0 0.83949,0.0799 1.3192,0.23985 0.19988,0.08 0.39976,0.15991 0.59963,0.27983 0.19988,0.11993 0.35979,0.19988 0.51969,0.31981 0.1599,0.11993 0.27983,0.19988 0.35978,0.31981 0.11993,0.0799 0.1599,0.19987 0.23986,0.23985 0.04,0.0799 0.04,0.11993 0.04,0.1599 0.04,0.04 0.04,0.0799 0.04,0.15991 -0.04,0.04 -0.04,0.0799 -0.04,0.1599 -0.04,0.04 -0.04,0.11993 -0.0799,0.23985 -0.04,0.08 -0.08,0.15991 -0.08,0.23986 -0.04,0.0799 -0.08,0.11993 -0.11993,0.1599 -0.04,0.04 -0.08,0.0799 -0.11993,0.0799 -0.04,0 -0.04,0 -0.0799,0 -0.08,-0.04 -0.11992,-0.0799 -0.19988,-0.1599 -0.08,-0.11993 -0.19987,-0.23985 -0.3198,-0.35978 -0.11993,-0.11993 -0.27983,-0.23986 -0.47971,-0.39976 -0.19988,-0.11993 -0.39976,-0.23985 -0.67959,-0.31981 -0.23985,-0.0799 -0.47971,-0.1599 -0.67959,-0.1599 -0.19988,0 -0.35978,0.04 -0.51968,0.0799 -0.15991,0.0799 -0.27983,0.15991 -0.39976,0.27983 -0.11993,0.11993 -0.19988,0.23986 -0.23986,0.39976 -0.08,0.23986 -0.08,0.43973 -0.04,0.63961 0.08,0.19988 0.19988,0.35979 0.31981,0.55966 0.1599,0.15991 0.3198,0.35979 0.51968,0.51969 0.19988,0.1599 0.39976,0.35978 0.63961,0.51968 0.19988,0.19988 0.39976,0.39976 0.59964,0.59964 0.19988,0.19988 0.35978,0.39976 0.47971,0.63961 0.11993,0.23986 0.19988,0.51969 0.23985,0.79952 0.04,0.27983 -0.04,0.55966 -0.11992,0.91944 z"
     id="path3796"
     inkscape:connector-curvature="0" />
  <path
     style="fill:#000000;fill-opacity:1;fill-rule:nonzero;stroke:#000000;stroke-width:0.03997577px;stroke-linecap:butt;stroke-linejoin:round;stroke-miterlimit:4;stroke-dasharray:none;stroke-opacity:1"
     d="m 528.24984,246.43065 117.56875,-23.62568 -0.11993,-0.67959 -117.60872,23.66566 z m 116.96911,-19.78801 7.07571,-5.47668 -8.63476,-2.35857 z"
     id="path3798"
     inkscape:connector-curvature="0" />
  <path
     style="fill:#2f5597;fill-opacity:1;fill-rule:nonzero;stroke:none"
     d="m 566.82646,261.14174 c 0.04,0.19987 0.08,0.35978 0.04,0.43973 -0.04,0.0799 -0.0799,0.11993 -0.15991,0.1599 l -2.31859,0.47971 c -0.04,0 -0.11993,0 -0.19988,0 -0.08,0 -0.11993,-0.04 -0.19988,-0.0799 -0.08,-0.04 -0.11993,-0.0799 -0.1599,-0.1599 -0.04,-0.08 -0.08,-0.15991 -0.11993,-0.27983 l -2.91823,-14.15143 c 0,-0.11992 0,-0.19988 0,-0.27983 0.04,-0.0799 0.04,-0.1599 0.08,-0.23985 0.04,-0.04 0.11993,-0.11993 0.1599,-0.11993 0.08,-0.04 0.15991,-0.0799 0.19988,-0.0799 l 2.3186,-0.47971 c 0.04,0 0.04,0 0.08,0 0.04,0 0.0799,0.04 0.11993,0.0799 0.04,0.04 0.08,0.11993 0.08,0.1599 0.04,0.08 0.04,0.15991 0.0799,0.27983 0.04,0.15991 0.04,0.31981 0,0.39976 0,0.0799 -0.0799,0.15991 -0.1599,0.15991 l -1.43913,0.3198 2.71835,13.19201 1.43913,-0.27983 c 0.04,0 0.08,0 0.11993,0 0.04,0 0.0799,0.04 0.0799,0.0799 0.04,0.04 0.08,0.0799 0.11993,0.1599 0,0.04 0.04,0.11993 0.04,0.23986 z m 10.43368,-5.1169 c 0.08,0.11992 0.11993,0.19988 0.1599,0.27983 0,0.0799 0,0.1599 -0.04,0.19988 -0.04,0.04 -0.11993,0.0799 -0.19988,0.11992 -0.11993,0.04 -0.27983,0.0799 -0.43974,0.11993 -0.19988,0.04 -0.35978,0.0799 -0.43973,0.0799 -0.11993,0 -0.19988,0 -0.27983,0 -0.04,0 -0.11993,-0.04 -0.11993,-0.04 -0.04,-0.04 -0.08,-0.08 -0.11993,-0.11993 l -1.55905,-2.6384 -4.83707,0.99939 -0.35978,2.95821 c 0,0.0799 -0.04,0.11993 -0.04,0.1599 -0.04,0.04 -0.0799,0.0799 -0.11992,0.11993 -0.04,0.04 -0.11993,0.0799 -0.23986,0.11993 -0.0799,0.04 -0.23985,0.0799 -0.39976,0.11992 -0.1599,0.04 -0.3198,0.04 -0.43973,0.04 -0.11993,0 -0.19988,0 -0.23985,-0.04 -0.04,0 -0.08,-0.0799 -0.08,-0.1599 -0.04,-0.0799 -0.04,-0.19988 0,-0.31981 l 1.67899,-11.55299 c 0,-0.0799 0,-0.15991 0.04,-0.19988 0.04,-0.04 0.08,-0.0799 0.15991,-0.11993 0.0799,-0.04 0.1599,-0.0799 0.27983,-0.11993 0.11992,-0.04 0.23985,-0.0799 0.43973,-0.0799 0.19988,-0.04 0.35978,-0.0799 0.47971,-0.11993 0.11993,0 0.23985,0 0.3198,0 0.08,0 0.11993,0.04 0.19988,0.08 0.04,0.04 0.08,0.0799 0.11993,0.11992 z m -6.91581,-8.47487 v 0 l -0.83949,6.15627 4.03755,-0.79951 z m 14.3513,5.99637 c 0,0.0799 0.04,0.19988 0.04,0.23985 0,0.0799 0,0.15991 0,0.19988 0,0.0799 0,0.11993 0,0.1599 -0.04,0.04 -0.08,0.11993 -0.11993,0.19988 -0.0799,0.08 -0.1599,0.19988 -0.31981,0.35979 -0.1599,0.1599 -0.35978,0.27983 -0.55966,0.39975 -0.19988,0.15991 -0.43973,0.27983 -0.67958,0.35979 -0.23986,0.11992 -0.51969,0.19987 -0.79952,0.27983 -0.55966,0.11992 -1.11932,0.11992 -1.59903,0 -0.47971,-0.08 -0.91944,-0.27983 -1.27923,-0.59964 -0.39975,-0.27983 -0.71956,-0.71956 -0.95941,-1.19927 -0.27983,-0.51969 -0.47971,-1.11933 -0.63962,-1.79891 -0.1599,-0.79952 -0.19988,-1.51908 -0.11992,-2.11872 0.08,-0.59964 0.23985,-1.11932 0.51968,-1.55905 0.23986,-0.43974 0.59964,-0.75954 0.9994,-1.03937 0.43973,-0.27984 0.91944,-0.47971 1.43912,-0.55967 0.23986,-0.0799 0.51969,-0.0799 0.75954,-0.11992 0.23986,0 0.47971,0.04 0.71957,0.0799 0.19988,0.04 0.39975,0.0799 0.55966,0.1599 0.19988,0.04 0.3198,0.11993 0.39976,0.1599 0.11992,0.08 0.1599,0.11993 0.19987,0.15991 0.04,0.04 0.08,0.0799 0.08,0.11993 0.04,0.0799 0.08,0.11992 0.08,0.19987 0.04,0.08 0.04,0.15991 0.0799,0.27983 0.04,0.19988 0.04,0.39976 0,0.47971 0,0.11993 -0.0799,0.15991 -0.1599,0.19988 -0.08,0 -0.19988,-0.04 -0.31981,-0.0799 -0.1599,-0.0799 -0.31981,-0.1599 -0.51969,-0.23985 -0.19987,-0.08 -0.43973,-0.15991 -0.71956,-0.19988 -0.27983,-0.04 -0.59964,-0.04 -0.91944,0.04 -0.71957,0.11993 -1.19928,0.51969 -1.47911,1.1593 -0.23985,0.59964 -0.27983,1.43913 -0.08,2.4785 0.11993,0.51968 0.23986,0.95942 0.43974,1.3192 0.1599,0.39976 0.39975,0.67959 0.63961,0.91944 0.23985,0.19988 0.51968,0.35978 0.79951,0.43974 0.31981,0.04 0.63962,0.04 0.9994,0 0.35978,-0.08 0.63961,-0.19988 0.87947,-0.35979 0.23985,-0.1599 0.43973,-0.3198 0.59963,-0.47971 0.15991,-0.1599 0.27983,-0.3198 0.39976,-0.43973 0.08,-0.1599 0.19988,-0.23985 0.23985,-0.23985 0.04,0 0.08,0 0.11993,0 0.04,0.04 0.08,0.0799 0.11993,0.11992 0.04,0.04 0.04,0.11993 0.0799,0.19988 0.04,0.0799 0.04,0.19988 0.08,0.31981 z m 6.19625,-0.59964 c 0.04,0.1599 0.04,0.27983 0.04,0.39976 0,0.11993 0,0.19988 -0.04,0.23985 -0.04,0.08 -0.11993,0.11993 -0.19988,0.19988 -0.0799,0.04 -0.19988,0.11993 -0.31981,0.15991 -0.08,0.04 -0.23985,0.0799 -0.35978,0.1599 -0.11993,0.04 -0.27983,0.0799 -0.39976,0.0799 -0.43973,0.08 -0.79951,0.11993 -1.11932,0.08 -0.31981,-0.08 -0.59964,-0.1599 -0.83949,-0.35978 -0.23986,-0.19988 -0.43973,-0.43973 -0.59964,-0.75954 -0.11992,-0.31981 -0.27983,-0.71956 -0.35978,-1.19927 l -0.95942,-4.71714 -1.11932,0.23985 c -0.11993,0.04 -0.19988,0 -0.27983,-0.0799 -0.04,-0.0799 -0.11993,-0.23986 -0.1599,-0.43973 0,-0.11993 -0.04,-0.23986 -0.04,-0.31981 0,-0.0799 0,-0.11993 0.04,-0.19988 0,-0.04 0.04,-0.0799 0.04,-0.11993 0.04,-0.04 0.08,-0.04 0.15991,-0.04 l 1.11932,-0.23986 -0.39976,-1.91883 c -0.04,-0.04 0,-0.08 0,-0.11993 0,-0.04 0.04,-0.0799 0.0799,-0.11993 0.08,-0.04 0.11993,-0.0799 0.23986,-0.11993 0.08,-0.04 0.19987,-0.04 0.35978,-0.0799 0.11993,-0.04 0.23985,-0.04 0.35978,-0.0799 0.08,0 0.1599,0 0.23985,0.04 0.04,0 0.08,0.04 0.11993,0.0799 0.04,0 0.04,0.04 0.08,0.0799 l 0.35979,1.91884 2.07874,-0.39976 c 0.04,-0.04 0.08,-0.04 0.11992,0 0.04,0 0.0799,0.04 0.11993,0.0799 0.04,0.04 0.0799,0.11993 0.11993,0.1599 0,0.08 0.04,0.19988 0.08,0.27983 0.04,0.23986 0.04,0.39976 0,0.51969 -0.04,0.0799 -0.08,0.1599 -0.19988,0.1599 l -2.03876,0.43974 0.91944,4.47728 c 0.11993,0.55966 0.27983,0.95942 0.47971,1.19928 0.23985,0.27983 0.55966,0.35978 0.99939,0.23985 0.11993,0 0.23986,-0.04 0.35978,-0.0799 0.08,-0.0799 0.15991,-0.11993 0.23986,-0.1599 0.0799,-0.04 0.1599,-0.08 0.19988,-0.11993 0.0799,-0.04 0.11992,-0.0799 0.1599,-0.0799 0.04,0 0.0799,0 0.0799,0 0.04,0 0.08,0.04 0.08,0.0799 0.04,0.04 0.08,0.0799 0.08,0.1599 0.04,0.0799 0.0799,0.1599 0.0799,0.27983 z m 3.51786,-0.11993 c 0,0.04 0,0.08 0,0.11993 -0.04,0.04 -0.04,0.0799 -0.11992,0.11993 -0.04,0.04 -0.11993,0.04 -0.19988,0.0799 -0.08,0.04 -0.19988,0.0799 -0.35978,0.11993 -0.15991,0 -0.27983,0.04 -0.35979,0.04 -0.11992,0 -0.19987,0 -0.23985,0 -0.08,0 -0.11993,-0.04 -0.11993,-0.0799 -0.04,0 -0.0799,-0.04 -0.0799,-0.11993 l -1.63901,-8.03513 c 0,-0.04 0,-0.0799 0,-0.11992 0,-0.04 0.04,-0.0799 0.08,-0.11993 0.0799,-0.04 0.1599,-0.08 0.23985,-0.08 0.08,-0.04 0.19988,-0.0799 0.35978,-0.11993 0.11993,0 0.27983,-0.04 0.35978,-0.04 0.08,0 0.15991,0 0.23986,0 0.04,0 0.0799,0.04 0.11993,0.0799 0.04,0 0.08,0.04 0.08,0.0799 z m -2.03876,-10.83343 c 0.0799,0.35978 0.04,0.59964 -0.04,0.75954 -0.11992,0.1599 -0.35978,0.27983 -0.67958,0.35978 -0.35979,0.04 -0.59964,0.04 -0.75954,-0.04 -0.15991,-0.11993 -0.27983,-0.31981 -0.35979,-0.67959 -0.04,-0.31981 -0.04,-0.59964 0.08,-0.71957 0.0799,-0.1599 0.3198,-0.27983 0.67958,-0.35978 0.35979,-0.0799 0.59964,-0.04 0.75954,0.04 0.11993,0.11993 0.23986,0.3198 0.31981,0.63961 z m 11.43307,4.59721 c 0.1599,0.67959 0.1599,1.27923 0.11993,1.87887 -0.08,0.59963 -0.23986,1.11932 -0.47971,1.59903 -0.27983,0.43973 -0.63961,0.83949 -1.07935,1.19927 -0.47971,0.31981 -1.07934,0.55966 -1.75893,0.67959 -0.63961,0.1599 -1.23925,0.1599 -1.75893,0.0799 -0.55967,-0.11993 -1.03937,-0.31981 -1.43913,-0.59964 -0.39976,-0.3198 -0.71957,-0.71956 -0.9994,-1.23925 -0.27983,-0.51968 -0.47971,-1.07934 -0.59963,-1.75893 -0.15991,-0.67959 -0.19988,-1.27923 -0.11993,-1.87886 0.04,-0.59964 0.19988,-1.11932 0.47971,-1.59903 0.23985,-0.43974 0.59964,-0.83949 1.07934,-1.19928 0.47971,-0.3198 1.03937,-0.55966 1.71896,-0.67958 0.67959,-0.11993 1.27923,-0.15991 1.79891,-0.08 0.51969,0.11993 0.9994,0.31981 1.39915,0.63962 0.39976,0.27983 0.75954,0.67958 1.03937,1.19927 0.27984,0.51969 0.47971,1.07935 0.59964,1.75893 z m -1.51908,0.43974 c -0.08,-0.43974 -0.19988,-0.83949 -0.35978,-1.23925 -0.1599,-0.35978 -0.35978,-0.67959 -0.59964,-0.91944 -0.23985,-0.23986 -0.55966,-0.43974 -0.91944,-0.55967 -0.35978,-0.0799 -0.75954,-0.0799 -1.23925,0 -0.43973,0.08 -0.79951,0.23986 -1.07934,0.47971 -0.27983,0.19988 -0.51969,0.47971 -0.63962,0.79952 -0.1599,0.31981 -0.23985,0.71956 -0.23985,1.11932 -0.04,0.39976 0,0.83949 0.0799,1.27923 0.11993,0.43973 0.23985,0.87946 0.39976,1.23924 0.1599,0.35979 0.35978,0.67959 0.59963,0.91945 0.23986,0.23985 0.55967,0.43973 0.91945,0.51968 0.35978,0.11993 0.75954,0.11993 1.23925,0.04 0.43973,-0.11993 0.79951,-0.23986 1.07934,-0.47971 0.27983,-0.19988 0.51969,-0.47971 0.63961,-0.79952 0.15991,-0.3198 0.23986,-0.67958 0.23986,-1.11932 0.04,-0.39976 0,-0.83949 -0.11993,-1.27922 z m 11.51302,1.79891 c 0.04,0.04 0.04,0.0799 0,0.11992 0,0.04 -0.04,0.08 -0.08,0.11993 -0.0799,0.04 -0.11992,0.0799 -0.23985,0.11993 -0.08,0 -0.19988,0.04 -0.35978,0.0799 -0.11993,0.04 -0.23986,0.04 -0.35979,0.04 -0.08,0.04 -0.1599,0 -0.23985,0 -0.04,0 -0.0799,-0.04 -0.11993,-0.04 -0.04,-0.04 -0.04,-0.0799 -0.08,-0.11993 l -0.95942,-4.71714 c -0.0799,-0.47971 -0.19988,-0.83949 -0.3198,-1.07934 -0.11993,-0.27983 -0.27983,-0.51969 -0.47971,-0.67959 -0.15991,-0.1599 -0.35979,-0.27983 -0.59964,-0.35978 -0.23985,-0.04 -0.51968,-0.04 -0.79952,0 -0.35978,0.0799 -0.71956,0.27983 -1.03937,0.63961 -0.3198,0.3198 -0.63961,0.79951 -0.91944,1.35917 l 1.1593,5.63659 c 0,0.04 0,0.0799 0,0.11993 -0.04,0.04 -0.08,0.0799 -0.11993,0.11992 -0.04,0.04 -0.11993,0.08 -0.19988,0.11993 -0.11992,0 -0.23985,0.04 -0.35978,0.0799 -0.1599,0.04 -0.27983,0.04 -0.35978,0.04 -0.11993,0.04 -0.19988,0.04 -0.23986,0 -0.08,0 -0.11992,-0.04 -0.1599,-0.04 0,-0.04 -0.04,-0.0799 -0.04,-0.11992 l -1.63901,-8.07511 c -0.04,-0.04 -0.04,-0.0799 0,-0.11993 0,-0.04 0.04,-0.08 0.0799,-0.11993 0.04,-0.04 0.11993,-0.04 0.19988,-0.0799 0.08,-0.04 0.1599,-0.04 0.31981,-0.0799 0.11992,-0.04 0.23985,-0.04 0.3198,-0.04 0.0799,-0.04 0.1599,0 0.19988,0 0.0799,0 0.11993,0.04 0.11993,0.0799 0.04,0 0.08,0.04 0.08,0.11992 l 0.19988,1.03937 c 0.35978,-0.59963 0.71956,-1.03937 1.1593,-1.39915 0.39975,-0.3198 0.79951,-0.51968 1.27922,-0.63961 0.51969,-0.0799 0.99939,-0.0799 1.39915,0 0.39976,0.11993 0.75954,0.31981 1.03937,0.55966 0.27983,0.23986 0.51969,0.59964 0.71957,0.95942 0.1599,0.39976 0.3198,0.87947 0.43973,1.43913 z m 5.67656,1.39915 c 0.04,0.11993 0.04,0.23985 0.04,0.31981 -0.04,0.0799 -0.08,0.1599 -0.11993,0.19987 -0.04,0.08 -0.08,0.11993 -0.1599,0.15991 -0.04,0.04 -0.11993,0.04 -0.19988,0.0799 l -2.27862,0.47971 c -0.08,0 -0.1599,-0.04 -0.19988,-0.11993 -0.08,-0.04 -0.11992,-0.19988 -0.1599,-0.39976 -0.04,-0.0799 -0.04,-0.1599 -0.04,-0.23985 0,-0.0799 0,-0.11993 0,-0.19988 0.04,-0.04 0.04,-0.0799 0.08,-0.0799 0.04,-0.04 0.0799,-0.04 0.11992,-0.0799 l 1.43913,-0.27983 -2.71835,-13.19201 -1.43913,0.27983 c -0.08,0 -0.1599,0 -0.23985,-0.0799 -0.04,-0.0799 -0.11993,-0.19988 -0.15991,-0.39976 0,-0.11992 0,-0.19988 -0.04,-0.27983 0,-0.04 0,-0.11993 0.04,-0.1599 0,-0.04 0.04,-0.0799 0.04,-0.11993 0.04,-0.04 0.0799,-0.04 0.11993,-0.04 l 2.27861,-0.47971 c 0.08,0 0.15991,0 0.23986,0 0.04,0 0.11993,0 0.19988,0.04 0.04,0.04 0.11993,0.11993 0.1599,0.19988 0.04,0.0799 0.08,0.1599 0.11993,0.27983 z"
     id="path3800"
     inkscape:connector-curvature="0" />
  <path
     style="fill:#000000;fill-opacity:1;fill-rule:nonzero;stroke:#000000;stroke-width:0.03997577px;stroke-linecap:butt;stroke-linejoin:round;stroke-miterlimit:4;stroke-dasharray:none;stroke-opacity:1"
     d="m 641.14142,206.13507 -117.16899,22.14658 0.11993,0.67959 117.16899,-22.14658 z m -116.52937,18.30891 -7.11569,5.39673 8.59479,2.43852 z"
     id="path3802"
     inkscape:connector-curvature="0" />
  <path
     style="fill:#000000;fill-opacity:1;fill-rule:nonzero;stroke:none"
     d="m 513.17898,218.68746 c 0.04,0.04 0.04,0.08 0,0.11993 0,0.04 -0.04,0.0799 -0.08,0.11993 -0.04,0 -0.11992,0.04 -0.19987,0.0799 -0.08,0 -0.19988,0.04 -0.31981,0.0799 -0.11993,0 -0.19988,0.04 -0.27983,0.04 -0.11993,0 -0.1599,0 -0.23986,-0.04 -0.04,0 -0.08,0 -0.11992,-0.04 -0.04,-0.04 -0.04,-0.0799 -0.08,-0.11993 l -0.19988,-1.07935 c -0.31981,0.55966 -0.71957,0.9994 -1.11933,1.3192 -0.39975,0.35979 -0.87946,0.55967 -1.43912,0.67959 -0.55966,0.11993 -1.11932,0.0799 -1.55906,-0.0799 -0.47971,-0.11993 -0.87947,-0.35978 -1.19927,-0.71956 -0.31981,-0.35979 -0.59964,-0.75954 -0.83949,-1.27923 -0.19988,-0.51968 -0.35978,-1.03937 -0.47971,-1.639 -0.11993,-0.67959 -0.15991,-1.3192 -0.11993,-1.91884 0.04,-0.59964 0.1599,-1.11932 0.39976,-1.55906 0.19988,-0.43973 0.51968,-0.83949 0.91944,-1.11932 0.35978,-0.27983 0.83949,-0.47971 1.43913,-0.59963 0.43973,-0.08 0.91944,-0.08 1.35918,0.0799 0.39975,0.11992 0.83949,0.35978 1.3192,0.67958 l -0.87947,-4.71714 c 0,-0.04 0,-0.0799 0,-0.11992 0,-0.04 0.04,-0.08 0.11993,-0.11993 0.04,0 0.11992,-0.04 0.19987,-0.0799 0.08,-0.04 0.19988,-0.04 0.35979,-0.0799 0.1599,-0.04 0.27983,-0.04 0.35978,-0.04 0.11993,0 0.19988,0 0.23985,0 0.08,0 0.11993,0.04 0.15991,0.0799 0,0 0.04,0.04 0.04,0.0799 z m -2.55845,-5.4367 c -0.47971,-0.39976 -0.95942,-0.71956 -1.35918,-0.87947 -0.43973,-0.19988 -0.83949,-0.27983 -1.23925,-0.19988 -0.39976,0.08 -0.67959,0.23986 -0.91944,0.47971 -0.23986,0.19988 -0.39976,0.47971 -0.51969,0.79952 -0.08,0.3198 -0.1599,0.67959 -0.1599,1.07934 0,0.39976 0.04,0.75954 0.0799,1.1593 0.08,0.39976 0.19988,0.79952 0.31981,1.1593 0.1599,0.39976 0.3198,0.71956 0.55966,0.99939 0.19988,0.23986 0.43973,0.43974 0.71956,0.59964 0.31981,0.11993 0.63961,0.1599 1.03937,0.0799 0.19988,-0.04 0.39976,-0.0799 0.55966,-0.19988 0.15991,-0.08 0.31981,-0.19988 0.51969,-0.35978 0.1599,-0.1599 0.3198,-0.35978 0.47971,-0.59964 0.19988,-0.23985 0.35978,-0.51968 0.55966,-0.87946 z m 6.71593,4.63719 c 0,0.04 0,0.08 0,0.11993 -0.04,0.04 -0.08,0.0799 -0.11993,0.11992 -0.04,0.04 -0.11993,0.08 -0.19988,0.08 -0.11993,0.04 -0.23986,0.0799 -0.35978,0.11992 -0.15991,0 -0.27983,0.04 -0.35978,0.04 -0.11993,0 -0.19988,0 -0.23986,0 -0.0799,-0.04 -0.11993,-0.04 -0.1599,-0.0799 0,-0.04 -0.04,-0.0799 -0.04,-0.11993 l -1.51908,-8.07511 c 0,-0.04 0,-0.0799 0,-0.11992 0.04,-0.04 0.04,-0.0799 0.11993,-0.11993 0.04,-0.04 0.11993,-0.0799 0.19988,-0.0799 0.11993,-0.04 0.23985,-0.0799 0.35978,-0.0799 0.1599,-0.04 0.27983,-0.08 0.35978,-0.08 0.11993,0 0.19988,0 0.23986,0.04 0.0799,0 0.11992,0 0.1599,0.04 0,0.04 0.04,0.0799 0.04,0.11992 z m -1.87887,-10.83343 c 0.08,0.35978 0.08,0.59963 -0.04,0.75953 -0.11993,0.11993 -0.35978,0.23986 -0.67959,0.31981 -0.35978,0.04 -0.59964,0.04 -0.75954,-0.0799 -0.1599,-0.0799 -0.27983,-0.27983 -0.31981,-0.63961 -0.0799,-0.35978 -0.04,-0.59964 0.04,-0.75954 0.11993,-0.11993 0.35978,-0.23986 0.71956,-0.31981 0.31981,-0.04 0.59964,-0.04 0.71957,0.04 0.1599,0.11992 0.27983,0.3198 0.3198,0.67959 z m 9.31436,7.15566 c 0.0799,0.43973 0.04,0.79951 -0.04,1.1593 -0.08,0.35978 -0.23985,0.67958 -0.47971,0.91944 -0.23985,0.27983 -0.55966,0.51968 -0.91944,0.71956 -0.35978,0.15991 -0.79951,0.31981 -1.23925,0.39976 -0.3198,0.04 -0.59963,0.0799 -0.83949,0.0799 -0.27983,0 -0.51968,0 -0.75954,-0.04 -0.19988,0 -0.39976,-0.04 -0.55966,-0.11993 -0.1599,-0.04 -0.27983,-0.0799 -0.35978,-0.11993 -0.04,-0.04 -0.11993,-0.11993 -0.1599,-0.23985 -0.08,-0.0799 -0.11993,-0.23986 -0.15991,-0.43974 0,-0.0799 0,-0.19988 0,-0.27983 0,-0.0799 0,-0.1599 0,-0.19988 0,-0.04 0.04,-0.0799 0.04,-0.11992 0.04,0 0.0799,-0.04 0.11993,-0.04 0.08,0 0.1599,0 0.3198,0.0799 0.11993,0.04 0.31981,0.0799 0.51969,0.15991 0.19988,0.04 0.43973,0.11992 0.71956,0.11992 0.27983,0.04 0.55966,0.04 0.91944,-0.04 0.23986,-0.04 0.47971,-0.11993 0.63962,-0.19988 0.19988,-0.0799 0.35978,-0.19988 0.51968,-0.31981 0.11993,-0.1599 0.19988,-0.3198 0.23986,-0.47971 0.0799,-0.1599 0.0799,-0.35978 0.04,-0.59963 -0.04,-0.23986 -0.1599,-0.39976 -0.27983,-0.51969 -0.1599,-0.1599 -0.35978,-0.27983 -0.55966,-0.35978 -0.19988,-0.0799 -0.43973,-0.11993 -0.71956,-0.19988 -0.23986,-0.04 -0.51969,-0.0799 -0.79952,-0.11993 -0.23985,-0.0799 -0.51968,-0.11992 -0.79951,-0.23985 -0.23986,-0.0799 -0.51969,-0.19988 -0.71957,-0.31981 -0.23985,-0.1599 -0.43973,-0.35978 -0.59963,-0.59963 -0.15991,-0.23986 -0.27984,-0.51969 -0.35979,-0.87947 -0.04,-0.31981 -0.04,-0.63961 0.04,-0.95942 0.04,-0.31981 0.19988,-0.59964 0.39976,-0.83949 0.19988,-0.27983 0.47971,-0.51969 0.79951,-0.71957 0.35978,-0.19987 0.75954,-0.35978 1.27923,-0.43973 0.19988,-0.04 0.43973,-0.04 0.63961,-0.0799 0.23985,0 0.43973,0.04 0.59964,0.04 0.19987,0.04 0.35978,0.04 0.47971,0.08 0.1599,0.04 0.23985,0.0799 0.3198,0.11992 0.08,0.04 0.11993,0.08 0.1599,0.11993 0,0.04 0.04,0.0799 0.04,0.11993 0.04,0.04 0.04,0.0799 0.0799,0.1599 0,0.04 0.04,0.11993 0.04,0.23986 0.04,0.0799 0.04,0.1599 0.04,0.23985 0,0.0799 0,0.1599 0,0.19988 0,0.04 -0.04,0.0799 -0.04,0.11993 -0.04,0.04 -0.0799,0.04 -0.11993,0.04 -0.04,0.04 -0.11993,0 -0.23985,-0.04 -0.11993,-0.04 -0.27983,-0.0799 -0.43974,-0.11993 -0.1599,-0.0799 -0.35978,-0.0799 -0.59963,-0.11993 -0.23986,-0.04 -0.47971,0 -0.75954,0.04 -0.27983,0.04 -0.47971,0.11993 -0.67959,0.19988 -0.15991,0.11993 -0.31981,0.19988 -0.39976,0.35978 -0.11993,0.11993 -0.19988,0.23985 -0.19988,0.39976 -0.04,0.1599 -0.04,0.3198 -0.04,0.47971 0.04,0.23985 0.1599,0.43973 0.3198,0.55966 0.11993,0.1599 0.31981,0.23985 0.51969,0.3198 0.23985,0.11993 0.47971,0.15991 0.71956,0.19988 0.27983,0.0799 0.55966,0.11993 0.79952,0.15991 0.27983,0.0799 0.55966,0.11992 0.83949,0.19987 0.27983,0.08 0.51968,0.19988 0.71956,0.35979 0.23986,0.11992 0.43973,0.3198 0.59964,0.55966 0.1599,0.19988 0.27983,0.51968 0.35978,0.83949 z m 9.19443,-3.75772 c 0.1599,0.71956 0.19988,1.35917 0.1599,1.95881 -0.08,0.55966 -0.19988,1.07934 -0.43973,1.55905 -0.19988,0.43974 -0.51969,0.79952 -0.91945,1.11933 -0.39975,0.27983 -0.87946,0.4797 -1.43912,0.59963 -0.23986,0.04 -0.43974,0.04 -0.67959,0.04 -0.19988,0 -0.39976,-0.04 -0.63961,-0.11993 -0.19988,-0.0799 -0.43974,-0.1599 -0.63962,-0.27983 -0.23985,-0.11993 -0.47971,-0.23985 -0.71956,-0.43973 l 0.75954,4.03755 c 0,0.0799 0,0.11993 0,0.1599 -0.04,0.04 -0.04,0.0799 -0.11993,0.0799 -0.04,0.04 -0.11993,0.08 -0.19988,0.11993 -0.0799,0.04 -0.19988,0.04 -0.35978,0.0799 -0.1599,0.04 -0.27983,0.04 -0.35978,0.04 -0.11993,0 -0.19988,0 -0.23986,0 -0.0799,0 -0.11992,-0.04 -0.1599,-0.0799 0,0 -0.04,-0.04 -0.04,-0.11993 l -2.11872,-11.27317 c 0,-0.04 0,-0.0799 0,-0.11993 0,-0.04 0.04,-0.0799 0.08,-0.11992 0.0799,-0.04 0.11993,-0.0799 0.19988,-0.0799 0.08,-0.04 0.19988,-0.04 0.31981,-0.08 0.11992,-0.04 0.23985,-0.04 0.3198,-0.04 0.0799,0 0.11993,0 0.19988,0 0.04,0.04 0.0799,0.04 0.11993,0.0799 0.04,0.04 0.04,0.0799 0.08,0.11993 l 0.19988,1.07934 c 0.19988,-0.27983 0.35978,-0.55966 0.55966,-0.79951 0.19988,-0.19988 0.39976,-0.39976 0.59964,-0.55966 0.19988,-0.19988 0.43973,-0.31981 0.67958,-0.43974 0.23986,-0.0799 0.47971,-0.1599 0.75954,-0.23985 0.55966,-0.0799 1.07935,-0.0799 1.55906,0.0799 0.43973,0.1599 0.83949,0.39976 1.1593,0.71956 0.35978,0.35979 0.63961,0.79952 0.83949,1.27923 0.19988,0.51968 0.39976,1.03937 0.47971,1.63901 z m -1.47911,0.43973 c -0.08,-0.39976 -0.19988,-0.79952 -0.3198,-1.1593 -0.15991,-0.35978 -0.31981,-0.67959 -0.51969,-0.95942 -0.19988,-0.27983 -0.47971,-0.47971 -0.75954,-0.59963 -0.27983,-0.15991 -0.63961,-0.15991 -1.03937,-0.0799 -0.1599,0 -0.35978,0.0799 -0.51968,0.1599 -0.19988,0.11993 -0.35978,0.23985 -0.51969,0.39976 -0.19988,0.1599 -0.35978,0.35978 -0.51968,0.59963 -0.19988,0.23986 -0.35978,0.51969 -0.51969,0.83949 l 0.59964,3.23804 c 0.47971,0.39976 0.95942,0.71957 1.35918,0.91944 0.43973,0.19988 0.83949,0.23986 1.23924,0.15991 0.35979,-0.04 0.67959,-0.19988 0.91945,-0.43974 0.23985,-0.23985 0.39975,-0.51968 0.51968,-0.83949 0.08,-0.3198 0.15991,-0.67959 0.15991,-1.07934 0,-0.39976 0,-0.75954 -0.08,-1.1593 z m 10.51363,2.19867 c 0,0.04 0,0.11992 -0.04,0.1599 -0.04,0.04 -0.11993,0.0799 -0.19988,0.11993 -0.08,0.04 -0.19988,0.0799 -0.35978,0.0799 -0.11993,0.04 -0.27984,0.0799 -0.35979,0.04 -0.0799,0 -0.1599,0 -0.19988,-0.04 -0.0799,0 -0.0799,-0.0799 -0.11992,-0.11993 l -0.15991,-0.83949 c -0.27983,0.47971 -0.59963,0.83949 -0.99939,1.11932 -0.39976,0.27983 -0.83949,0.47971 -1.3192,0.55966 -0.43973,0.0799 -0.83949,0.11993 -1.19927,0.0799 -0.35979,-0.0799 -0.67959,-0.1599 -0.95942,-0.3198 -0.27983,-0.15991 -0.51969,-0.39976 -0.71957,-0.67959 -0.1599,-0.27983 -0.3198,-0.59964 -0.39975,-0.99939 -0.08,-0.43974 -0.04,-0.87947 0.0799,-1.23925 0.11992,-0.35979 0.3198,-0.67959 0.63961,-0.9994 0.27983,-0.27983 0.67959,-0.51968 1.1593,-0.71956 0.47971,-0.19988 1.03937,-0.35978 1.67898,-0.47971 l 1.11932,-0.19988 -0.11993,-0.63961 c -0.08,-0.31981 -0.1599,-0.59964 -0.23985,-0.79952 -0.11993,-0.23985 -0.27983,-0.43973 -0.43973,-0.55966 -0.19988,-0.11993 -0.39976,-0.19988 -0.63962,-0.23985 -0.23985,-0.04 -0.55966,-0.04 -0.87946,0.04 -0.35979,0.0799 -0.67959,0.15991 -0.95942,0.31981 -0.27983,0.11993 -0.51969,0.27983 -0.71957,0.43973 -0.19988,0.11993 -0.35978,0.23986 -0.47971,0.35978 -0.1599,0.11993 -0.23985,0.19988 -0.3198,0.19988 -0.04,0 -0.0799,0 -0.11993,0 -0.04,-0.04 -0.08,-0.04 -0.11993,-0.0799 -0.04,-0.04 -0.08,-0.11993 -0.08,-0.19988 -0.04,-0.0799 -0.08,-0.1599 -0.08,-0.23985 -0.04,-0.1599 -0.04,-0.27983 -0.04,-0.35978 0,-0.08 0.04,-0.15991 0.11993,-0.27983 0.04,-0.08 0.15991,-0.19988 0.35978,-0.35979 0.15991,-0.11992 0.39976,-0.27983 0.63962,-0.39975 0.23985,-0.11993 0.47971,-0.23986 0.79951,-0.35979 0.27983,-0.11992 0.59964,-0.19987 0.87947,-0.27983 0.59964,-0.11992 1.11932,-0.11992 1.51908,-0.0799 0.43973,0.0799 0.79951,0.19988 1.11932,0.39976 0.27983,0.19988 0.51968,0.47971 0.71956,0.83949 0.19988,0.35978 0.31981,0.79952 0.39976,1.27923 z m -2.15869,-3.43792 -1.27922,0.23986 c -0.39976,0.0799 -0.75954,0.19987 -1.03937,0.3198 -0.27984,0.11993 -0.51969,0.27983 -0.67959,0.43973 -0.15991,0.15991 -0.27983,0.35979 -0.35978,0.55967 -0.04,0.19987 -0.04,0.43973 0,0.67958 0.08,0.43974 0.27983,0.71957 0.59963,0.91945 0.31981,0.19988 0.67959,0.27983 1.1593,0.1599 0.39976,-0.0799 0.75954,-0.23986 1.03937,-0.47971 0.27983,-0.27983 0.59964,-0.63961 0.87947,-1.11932 z m 8.79467,1.55906 c 0.04,0.1599 0.04,0.3198 0.04,0.39975 0,0.11993 0,0.19988 -0.04,0.23986 -0.04,0.0799 -0.11993,0.11993 -0.19988,0.19988 -0.0799,0.04 -0.19988,0.11992 -0.31981,0.1599 -0.11992,0.04 -0.23985,0.0799 -0.35978,0.1599 -0.1599,0.04 -0.27983,0.04 -0.39975,0.0799 -0.43974,0.08 -0.79952,0.08 -1.11933,0.04 -0.3198,-0.04 -0.59963,-0.1599 -0.83949,-0.35978 -0.23985,-0.19988 -0.43973,-0.43974 -0.55966,-0.75954 -0.1599,-0.35978 -0.27983,-0.75954 -0.35978,-1.19927 l -0.91944,-4.71715 -1.11932,0.19988 c -0.08,0 -0.15991,-0.04 -0.23986,-0.11992 -0.0799,-0.08 -0.11993,-0.23986 -0.1599,-0.43974 -0.04,-0.11992 -0.04,-0.19988 -0.04,-0.27983 0,-0.0799 0,-0.1599 0.04,-0.19988 0,-0.0799 0.04,-0.11992 0.04,-0.11992 0.04,-0.04 0.0799,-0.08 0.15991,-0.08 l 1.11932,-0.19987 -0.35978,-1.91884 c -0.04,-0.04 -0.04,-0.0799 0,-0.11993 0,-0.04 0.04,-0.0799 0.0799,-0.11993 0.08,-0.04 0.11992,-0.0799 0.23985,-0.11992 0.08,0 0.19988,-0.04 0.35978,-0.08 0.11993,-0.04 0.27983,-0.04 0.35979,-0.04 0.08,0 0.1599,0 0.23985,0 0.04,0.04 0.0799,0.04 0.11993,0.0799 0.04,0.04 0.04,0.0799 0.08,0.11993 l 0.35978,1.91883 2.07874,-0.39975 c 0.04,0 0.08,0 0.11993,0 0.04,0.04 0.0799,0.04 0.11993,0.11992 0.04,0.04 0.04,0.08 0.08,0.15991 0.04,0.0799 0.04,0.1599 0.0799,0.27983 0.04,0.23985 0.04,0.39976 0,0.47971 -0.04,0.11992 -0.0799,0.1599 -0.19988,0.19988 l -2.07874,0.39975 0.87947,4.47729 c 0.0799,0.55966 0.23985,0.95942 0.47971,1.23925 0.19988,0.23985 0.51968,0.31981 0.95942,0.23985 0.11992,0 0.23985,-0.04 0.35978,-0.0799 0.08,-0.0799 0.19988,-0.11992 0.27983,-0.1599 0.0799,-0.04 0.11992,-0.0799 0.19988,-0.11993 0.04,-0.04 0.0799,-0.0799 0.1599,-0.0799 0,0 0.04,0 0.0799,0 0.04,0.04 0.04,0.04 0.08,0.0799 0,0.04 0.04,0.0799 0.0799,0.15991 0,0.0799 0.04,0.1599 0.04,0.27983 z m 7.47547,-2.07874 c 0,0.11992 0.04,0.19987 0.04,0.27983 0,0.0799 0,0.11992 0,0.19987 0,0.04 0,0.08 -0.04,0.11993 0,0.0799 -0.04,0.11993 -0.11993,0.19988 -0.04,0.11993 -0.1599,0.23986 -0.3198,0.35978 -0.15991,0.15991 -0.31981,0.27983 -0.55967,0.39976 -0.19987,0.1599 -0.39975,0.27983 -0.67958,0.35978 -0.23986,0.11993 -0.51969,0.19988 -0.79952,0.23986 -0.55966,0.11992 -1.11932,0.11992 -1.59903,0 -0.47971,-0.11993 -0.91944,-0.31981 -1.27922,-0.63962 -0.35979,-0.27983 -0.67959,-0.71956 -0.95942,-1.19927 -0.23986,-0.51968 -0.43974,-1.11932 -0.55966,-1.83888 -0.15991,-0.75954 -0.19988,-1.47911 -0.11993,-2.07874 0.11993,-0.59964 0.27983,-1.11933 0.55966,-1.55906 0.23985,-0.43973 0.59964,-0.79951 1.03937,-1.03937 0.39976,-0.27983 0.87947,-0.43973 1.43913,-0.55966 0.23985,-0.04 0.47971,-0.0799 0.75954,-0.04 0.23985,0 0.47971,0 0.67959,0.04 0.23985,0.04 0.43973,0.11993 0.59963,0.1599 0.19988,0.0799 0.31981,0.15991 0.39976,0.19988 0.0799,0.0799 0.1599,0.11993 0.19988,0.1599 0,0.04 0.04,0.08 0.0799,0.11993 0.04,0.04 0.04,0.11993 0.08,0.19988 0,0.08 0.04,0.1599 0.04,0.27983 0.04,0.19988 0.04,0.39976 0.04,0.47971 -0.04,0.11993 -0.11992,0.1599 -0.19988,0.19988 -0.0799,0 -0.19987,-0.04 -0.3198,-0.11993 -0.1599,-0.0799 -0.31981,-0.1599 -0.51969,-0.23985 -0.19988,-0.0799 -0.43973,-0.15991 -0.71956,-0.19988 -0.23986,-0.04 -0.55966,-0.04 -0.91944,0.04 -0.71957,0.11993 -1.19928,0.47971 -1.47911,1.11933 -0.27983,0.59963 -0.3198,1.43912 -0.11992,2.47849 0.0799,0.51969 0.23985,0.95942 0.39975,1.35918 0.15991,0.35978 0.39976,0.67959 0.63962,0.87947 0.23985,0.23985 0.47971,0.39976 0.79951,0.47971 0.31981,0.0799 0.63961,0.0799 0.9994,0 0.3198,-0.0799 0.63961,-0.15991 0.87946,-0.31981 0.19988,-0.1599 0.39976,-0.31981 0.59964,-0.47971 0.1599,-0.1599 0.27983,-0.31981 0.39976,-0.43973 0.11992,-0.15991 0.19988,-0.19988 0.27983,-0.23986 0.04,0 0.08,0 0.08,0.04 0.04,0 0.0799,0.04 0.11993,0.0799 0.04,0.0799 0.04,0.11993 0.08,0.23985 0.04,0.08 0.04,0.15991 0.0799,0.27984 z m 9.0745,-0.43974 c 0,0.0799 0,0.11993 0,0.1599 -0.04,0.04 -0.08,0.04 -0.11993,0.08 -0.04,0.04 -0.11993,0.0799 -0.19988,0.11992 -0.11992,0 -0.19988,0.04 -0.35978,0.08 -0.1599,0.04 -0.27983,0.04 -0.35978,0.04 -0.11993,0 -0.19988,0 -0.23986,0 -0.08,0 -0.11992,-0.04 -0.1599,-0.0799 0,0 -0.04,-0.04 -0.04,-0.11993 l -0.87947,-4.71714 c -0.08,-0.43973 -0.19988,-0.83949 -0.31981,-1.07934 -0.11992,-0.27984 -0.27983,-0.51969 -0.43973,-0.67959 -0.19988,-0.15991 -0.39976,-0.31981 -0.63961,-0.35978 -0.23986,-0.08 -0.51969,-0.08 -0.79952,-0.04 -0.35978,0.0799 -0.71956,0.27983 -1.03937,0.59964 -0.3198,0.35978 -0.63961,0.79951 -0.95942,1.39915 l 1.07935,5.63658 c 0,0.04 0,0.0799 0,0.11993 -0.04,0.04 -0.08,0.0799 -0.11993,0.11993 -0.04,0.04 -0.11993,0.0799 -0.19988,0.0799 -0.11992,0.04 -0.23985,0.0799 -0.35978,0.11993 -0.1599,0 -0.27983,0.04 -0.35978,0.04 -0.11993,0 -0.19988,0 -0.23986,0 -0.08,-0.04 -0.11992,-0.04 -0.1599,-0.0799 0,-0.04 -0.04,-0.0799 -0.04,-0.11993 l -2.23865,-11.99273 c -0.04,-0.04 -0.04,-0.0799 0,-0.11993 0,-0.04 0.04,-0.0799 0.0799,-0.11992 0.08,-0.04 0.11993,-0.08 0.23986,-0.08 0.08,-0.04 0.19988,-0.08 0.35978,-0.11992 0.11993,0 0.23985,-0.04 0.35978,-0.04 0.08,0 0.15991,0 0.23986,0 0.04,0.04 0.08,0.04 0.11992,0.0799 0.04,0.04 0.04,0.08 0.08,0.11993 l 0.87946,4.83707 c 0.35978,-0.51969 0.71957,-0.91944 1.11932,-1.23925 0.39976,-0.27983 0.79952,-0.47971 1.23925,-0.55966 0.51969,-0.11993 0.9994,-0.11993 1.39916,0 0.39975,0.11993 0.75953,0.31981 1.03937,0.55966 0.27983,0.27983 0.51968,0.59964 0.67958,0.99939 0.19988,0.39976 0.31981,0.87947 0.43974,1.43913 z m 8.71472,-6.15627 c 0.04,0.23986 0,0.39976 -0.0799,0.51969 -0.11993,0.11993 -0.23986,0.19988 -0.39976,0.23985 l -5.31678,0.9994 c 0.0799,0.43973 0.19988,0.83949 0.35978,1.15929 0.15991,0.35979 0.35978,0.63962 0.63962,0.8395 0.23985,0.23985 0.55966,0.39975 0.91944,0.43973 0.35978,0.0799 0.79951,0.0799 1.27922,0 0.39976,-0.0799 0.71957,-0.1599 0.9994,-0.27983 0.3198,-0.11993 0.55966,-0.23986 0.75954,-0.35978 0.19988,-0.11993 0.35978,-0.23986 0.47971,-0.31981 0.1599,-0.0799 0.23985,-0.1599 0.3198,-0.1599 0.04,0 0.08,0 0.11993,0 0.04,0.04 0.0799,0.04 0.0799,0.08 0.04,0.04 0.08,0.11993 0.08,0.1599 0.04,0.0799 0.04,0.15991 0.0799,0.27983 0,0.0799 0,0.15991 0,0.19988 0.04,0.08 0.04,0.11993 0.04,0.1599 0,0.04 -0.04,0.08 -0.04,0.11993 0,0.04 -0.04,0.0799 -0.04,0.11993 -0.04,0.04 -0.11993,0.11993 -0.27983,0.23985 -0.15991,0.08 -0.35978,0.19988 -0.59964,0.31981 -0.23985,0.11993 -0.51968,0.23985 -0.83949,0.35978 -0.31981,0.11993 -0.67959,0.23986 -1.07935,0.27983 -0.63961,0.15991 -1.23924,0.15991 -1.79891,0.0799 -0.51968,-0.11992 -0.99939,-0.27983 -1.39915,-0.59963 -0.39976,-0.31981 -0.75954,-0.71957 -1.03937,-1.23925 -0.27983,-0.51969 -0.47971,-1.11932 -0.63961,-1.87886 -0.11993,-0.67959 -0.11993,-1.3192 -0.08,-1.91884 0.08,-0.55966 0.27983,-1.07935 0.51968,-1.55906 0.27983,-0.43973 0.63962,-0.79951 1.07935,-1.11932 0.43973,-0.27983 0.95942,-0.47971 1.51908,-0.59963 0.63961,-0.11993 1.19927,-0.11993 1.67898,0 0.51969,0.11992 0.91944,0.3198 1.27923,0.63961 0.35978,0.27983 0.63961,0.63961 0.83949,1.07934 0.23985,0.43974 0.39975,0.91945 0.47971,1.43913 z m -1.59903,-0.1599 c -0.11993,-0.79952 -0.39976,-1.35918 -0.83949,-1.75893 -0.47971,-0.35979 -1.03937,-0.47971 -1.75894,-0.35979 -0.35978,0.08 -0.67959,0.19988 -0.91944,0.39976 -0.27983,0.19988 -0.43973,0.43974 -0.59964,0.67959 -0.1599,0.27983 -0.23985,0.55966 -0.27983,0.87947 -0.04,0.3198 -0.04,0.63961 0,0.99939 z m 9.27438,0.95942 c 0.08,0.43973 0.08,0.79951 0,1.1593 -0.08,0.35978 -0.27983,0.67958 -0.51969,0.95941 -0.23985,0.23986 -0.51968,0.47971 -0.87947,0.67959 -0.39975,0.19988 -0.79951,0.31981 -1.27922,0.39976 -0.27983,0.04 -0.55966,0.0799 -0.83949,0.0799 -0.23986,0 -0.47971,0 -0.71957,-0.04 -0.19987,0 -0.39975,-0.04 -0.55966,-0.11993 -0.1599,-0.04 -0.27983,-0.0799 -0.35978,-0.11993 -0.0799,-0.04 -0.11993,-0.11993 -0.19988,-0.23985 -0.04,-0.0799 -0.08,-0.23986 -0.11992,-0.43974 0,-0.0799 -0.04,-0.19988 -0.04,-0.27983 0,-0.0799 0,-0.11992 0,-0.19988 0.04,-0.04 0.04,-0.0799 0.08,-0.11992 0.04,0 0.08,-0.04 0.11993,-0.04 0.04,0 0.1599,0 0.27983,0.0799 0.1599,0.04 0.31981,0.11993 0.55966,0.15991 0.19988,0.08 0.43973,0.11992 0.71956,0.1599 0.23986,0 0.55966,0 0.87947,-0.0799 0.27983,-0.04 0.47971,-0.11993 0.67959,-0.19988 0.19988,-0.0799 0.35978,-0.19988 0.47971,-0.31981 0.11993,-0.1599 0.23985,-0.27983 0.27983,-0.47971 0.04,-0.1599 0.04,-0.35978 0,-0.59963 -0.04,-0.23986 -0.11993,-0.39976 -0.27983,-0.51969 -0.11993,-0.1599 -0.31981,-0.23985 -0.51969,-0.35978 -0.23985,-0.0799 -0.47971,-0.11993 -0.71956,-0.1599 -0.23986,-0.08 -0.51969,-0.11993 -0.79952,-0.15991 -0.27983,-0.0799 -0.51968,-0.11992 -0.79951,-0.19988 -0.27983,-0.11992 -0.51969,-0.19987 -0.75954,-0.35978 -0.19988,-0.1599 -0.39976,-0.35978 -0.55966,-0.59963 -0.15991,-0.23986 -0.27983,-0.51969 -0.35978,-0.87947 -0.08,-0.31981 -0.04,-0.63961 0,-0.95942 0.08,-0.27983 0.19987,-0.59964 0.39975,-0.83949 0.23986,-0.27983 0.47971,-0.51969 0.83949,-0.71957 0.35979,-0.19987 0.75954,-0.3198 1.23925,-0.43973 0.23986,-0.04 0.43974,-0.04 0.67959,-0.04 0.19988,-0.04 0.39976,0 0.59964,0 0.19988,0.04 0.35978,0.04 0.47971,0.0799 0.11992,0.04 0.23985,0.0799 0.3198,0.11992 0.04,0.04 0.11993,0.08 0.11993,0.11993 0.04,0.04 0.0799,0.0799 0.0799,0.11993 0.04,0.04 0.04,0.0799 0.08,0.1599 0,0.04 0.04,0.11993 0.04,0.23986 0.04,0.0799 0.04,0.1599 0.04,0.23985 0,0.0799 0,0.1599 0,0.19988 -0.04,0.0799 -0.04,0.11993 -0.08,0.11993 0,0.04 -0.04,0.04 -0.08,0.04 -0.04,0.04 -0.1599,0 -0.23985,-0.04 -0.11993,-0.04 -0.27983,-0.0799 -0.43974,-0.11993 -0.19987,-0.04 -0.39975,-0.0799 -0.59963,-0.11993 -0.23986,-0.04 -0.51969,0 -0.79952,0.04 -0.23985,0.04 -0.43973,0.11993 -0.63961,0.19988 -0.1599,0.11992 -0.31981,0.19988 -0.43973,0.35978 -0.08,0.11993 -0.15991,0.23985 -0.19988,0.39976 -0.04,0.1599 -0.04,0.3198 0,0.47971 0.04,0.23985 0.1599,0.43973 0.27983,0.55966 0.1599,0.1599 0.35978,0.23985 0.55966,0.3198 0.19988,0.11993 0.43973,0.15991 0.71956,0.19988 0.23986,0.0799 0.51969,0.11993 0.79952,0.15991 0.27983,0.0799 0.55966,0.11992 0.79951,0.19987 0.27983,0.08 0.55966,0.19988 0.75954,0.35979 0.23986,0.11992 0.43974,0.3198 0.59964,0.55966 0.1599,0.19988 0.27983,0.51968 0.31981,0.83949 z"
     id="path3804"
     inkscape:connector-curvature="0" />
  <path
     style="fill:#548235;fill-opacity:1;fill-rule:nonzero;stroke:none"
     d="m 593.4903,206.21502 c 0.04,0.19988 0.04,0.35979 0.04,0.43974 -0.04,0.0799 -0.08,0.1599 -0.19988,0.1599 l -2.27862,0.43973 c -0.0799,0 -0.1599,0 -0.19988,0 -0.0799,0 -0.1599,-0.04 -0.19988,-0.0799 -0.0799,-0.04 -0.11993,-0.0799 -0.19988,-0.1599 -0.04,-0.0799 -0.0799,-0.1599 -0.0799,-0.27983 l -2.67838,-14.1914 c 0,-0.11993 0,-0.19988 0,-0.27983 0,-0.11993 0.04,-0.1599 0.08,-0.23986 0.04,-0.0799 0.11992,-0.11992 0.1599,-0.1599 0.08,0 0.1599,-0.04 0.19988,-0.04 l 2.31859,-0.43974 c 0.04,0 0.08,0 0.11993,0 0,0 0.04,0.04 0.0799,0.0799 0.04,0.04 0.08,0.11993 0.08,0.15991 0.04,0.0799 0.08,0.1599 0.08,0.27983 0.04,0.1599 0.04,0.3198 0,0.39976 0,0.11992 -0.08,0.1599 -0.15991,0.1599 l -1.4791,0.27983 2.51847,13.27196 1.43913,-0.27984 c 0.04,0 0.0799,0 0.11993,0 0.04,0 0.08,0.04 0.11992,0.08 0,0.04 0.04,0.0799 0.08,0.1599 0,0.08 0.04,0.1599 0.04,0.23985 z m 10.55361,-4.95699 c 0.04,0.11993 0.11992,0.23985 0.11992,0.3198 0,0.08 0,0.11993 -0.04,0.19988 -0.04,0.04 -0.11993,0.0799 -0.19988,0.11993 -0.11993,0.04 -0.27983,0.04 -0.43973,0.0799 -0.19988,0.04 -0.35979,0.0799 -0.47971,0.0799 -0.08,0 -0.19988,0 -0.23986,0 -0.0799,0 -0.11993,-0.04 -0.1599,-0.04 0,-0.04 -0.04,-0.0799 -0.0799,-0.11993 l -1.51908,-2.6384 -4.83707,0.87947 -0.43973,2.99818 c 0,0.04 0,0.0799 -0.04,0.11993 -0.04,0.0799 -0.08,0.11992 -0.11993,0.11992 -0.04,0.04 -0.11993,0.08 -0.23985,0.11993 -0.08,0.04 -0.23986,0.0799 -0.39976,0.0799 -0.1599,0.04 -0.31981,0.08 -0.43973,0.08 -0.08,0 -0.15991,0 -0.23986,-0.04 -0.04,-0.04 -0.08,-0.0799 -0.08,-0.1599 -0.04,-0.08 0,-0.19988 0,-0.35979 l 1.87886,-11.51302 c 0,-0.0799 0.04,-0.11993 0.0799,-0.19988 0,-0.04 0.08,-0.0799 0.11993,-0.11992 0.0799,-0.04 0.1599,-0.08 0.27983,-0.08 0.11993,-0.04 0.27983,-0.0799 0.43973,-0.11992 0.19988,-0.04 0.35979,-0.04 0.47971,-0.08 0.11993,0 0.23986,0 0.31981,0 0.0799,0 0.1599,0.04 0.19988,0.08 0.04,0.04 0.08,0.0799 0.11993,0.1599 z m -6.79589,-8.59479 h -0.04 l -0.87947,6.19624 4.03755,-0.75954 z m 14.23138,6.27619 c 0.04,0.0799 0.04,0.15991 0.04,0.23986 0,0.0799 0,0.1599 0,0.19988 0,0.04 0,0.11992 -0.04,0.1599 0,0.04 -0.04,0.0799 -0.08,0.19988 -0.0799,0.0799 -0.19988,0.19988 -0.35978,0.31981 -0.15991,0.1599 -0.31981,0.27983 -0.51969,0.43973 -0.23985,0.11993 -0.43973,0.23985 -0.71956,0.3198 -0.23986,0.11993 -0.51969,0.19988 -0.79952,0.23986 -0.55966,0.11993 -1.11932,0.11993 -1.59903,0 -0.47971,-0.0799 -0.91944,-0.31981 -1.27922,-0.59964 -0.35979,-0.3198 -0.67959,-0.71956 -0.91945,-1.23925 -0.27983,-0.51968 -0.47971,-1.11932 -0.59963,-1.79891 -0.15991,-0.79951 -0.19988,-1.51908 -0.0799,-2.11871 0.0799,-0.59964 0.23985,-1.11932 0.51968,-1.55906 0.27983,-0.43973 0.59964,-0.75954 1.03937,-1.03937 0.43973,-0.23985 0.91944,-0.43973 1.43913,-0.51968 0.23985,-0.0799 0.51968,-0.0799 0.75954,-0.0799 0.23985,0 0.47971,0 0.71956,0.04 0.19988,0.04 0.39976,0.11993 0.55966,0.19988 0.19988,0.04 0.31981,0.11993 0.39976,0.19988 0.08,0.04 0.1599,0.0799 0.19988,0.11993 0.04,0.04 0.04,0.0799 0.0799,0.11992 0.04,0.08 0.08,0.11993 0.08,0.19988 0,0.0799 0.04,0.15991 0.04,0.27983 0.0799,0.23986 0.0799,0.39976 0.04,0.47971 -0.04,0.11993 -0.11992,0.19988 -0.19988,0.19988 -0.08,0 -0.19987,0 -0.3198,-0.0799 -0.11993,-0.0799 -0.31981,-0.1599 -0.51969,-0.23985 -0.19988,-0.11993 -0.43973,-0.15991 -0.67958,-0.23986 -0.27983,-0.04 -0.59964,-0.04 -0.95942,0.04 -0.71957,0.11992 -1.19928,0.51968 -1.47911,1.11932 -0.27983,0.63961 -0.3198,1.43913 -0.11992,2.4785 0.11992,0.51968 0.23985,0.99939 0.39975,1.35917 0.19988,0.35978 0.39976,0.67959 0.63962,0.91945 0.23985,0.19987 0.51968,0.35978 0.79951,0.43973 0.31981,0.0799 0.63961,0.0799 0.9994,0 0.35978,-0.04 0.63961,-0.1599 0.87946,-0.31981 0.23986,-0.1599 0.43974,-0.3198 0.59964,-0.47971 0.1599,-0.1599 0.27983,-0.3198 0.39976,-0.43973 0.11992,-0.11993 0.19988,-0.19988 0.27983,-0.19988 0.04,-0.04 0.0799,0 0.11992,0 0.04,0.04 0.04,0.04 0.08,0.11993 0.04,0.04 0.0799,0.11993 0.0799,0.19988 0.04,0.0799 0.04,0.19988 0.08,0.3198 z m 6.19624,-0.51968 c 0.04,0.1599 0.08,0.3198 0.08,0.39976 -0.04,0.11992 -0.04,0.19987 -0.08,0.27983 -0.04,0.04 -0.11992,0.0799 -0.19987,0.1599 -0.08,0.04 -0.19988,0.11993 -0.31981,0.1599 -0.11993,0.04 -0.23986,0.0799 -0.35978,0.15991 -0.11993,0.04 -0.27983,0.0799 -0.39976,0.0799 -0.43973,0.08 -0.79952,0.08 -1.11932,0.04 -0.31981,-0.04 -0.59964,-0.1599 -0.83949,-0.35978 -0.23986,-0.19988 -0.39976,-0.43973 -0.55966,-0.75954 -0.15991,-0.35978 -0.27983,-0.75954 -0.35979,-1.19927 l -0.87946,-4.71714 -1.1593,0.19988 c -0.08,0 -0.1599,0 -0.23986,-0.11993 -0.08,-0.0799 -0.11992,-0.23986 -0.1599,-0.43973 0,-0.11993 -0.04,-0.19988 -0.04,-0.27984 0,-0.0799 0,-0.1599 0.04,-0.19987 0,-0.08 0.04,-0.11993 0.0799,-0.11993 0.04,-0.04 0.08,-0.0799 0.11993,-0.0799 l 1.11932,-0.19988 -0.35978,-1.91884 c 0,-0.04 0,-0.0799 0,-0.11993 0,-0.04 0.04,-0.0799 0.11993,-0.11992 0.04,-0.04 0.11992,-0.08 0.19988,-0.11993 0.08,0 0.19988,-0.04 0.35978,-0.0799 0.1599,-0.04 0.27983,-0.04 0.35978,-0.04 0.11993,0 0.19988,0 0.23986,0 0.0799,0.04 0.11992,0.04 0.11992,0.08 0.04,0.04 0.08,0.0799 0.08,0.11993 l 0.35979,1.91884 2.07874,-0.39976 c 0.04,0 0.08,0 0.11992,0 0.04,0.04 0.0799,0.04 0.11993,0.11993 0.04,0.04 0.08,0.0799 0.08,0.1599 0.04,0.0799 0.0799,0.1599 0.0799,0.27983 0.04,0.23986 0.04,0.39976 0,0.47971 -0.04,0.11993 -0.0799,0.1599 -0.1599,0.19988 l -2.07874,0.39976 0.83949,4.47728 c 0.0799,0.55966 0.27983,0.95942 0.47971,1.23925 0.19988,0.23986 0.51969,0.31981 0.95942,0.23986 0.1599,0 0.27983,-0.04 0.35978,-0.0799 0.11993,-0.08 0.19988,-0.11993 0.27983,-0.15991 0.08,-0.04 0.1599,-0.0799 0.19988,-0.11993 0.04,-0.04 0.11993,-0.0799 0.1599,-0.0799 0,0 0.04,0 0.08,0 0.04,0.04 0.04,0.04 0.08,0.0799 0.04,0.04 0.04,0.11993 0.0799,0.15991 0,0.0799 0.04,0.1599 0.04,0.27983 z m 3.55785,-0.04 c 0,0.04 0,0.0799 -0.04,0.11993 0,0.04 -0.04,0.0799 -0.08,0.11993 -0.0799,0 -0.11993,0.04 -0.23985,0.0799 -0.08,0.04 -0.19988,0.04 -0.35979,0.0799 -0.11992,0.04 -0.23985,0.04 -0.35978,0.04 -0.0799,0.04 -0.1599,0 -0.23985,0 -0.04,0 -0.08,-0.04 -0.11993,-0.04 -0.04,-0.04 -0.04,-0.0799 -0.0799,-0.11993 l -1.51908,-8.0751 c 0,-0.0799 0,-0.11993 0.04,-0.15991 0,-0.04 0.04,-0.04 0.08,-0.0799 0.0799,-0.04 0.11992,-0.0799 0.23985,-0.11992 0.08,0 0.19988,-0.04 0.35978,-0.08 0.11993,-0.04 0.23986,-0.04 0.35979,-0.04 0.08,0 0.1599,0 0.23985,0 0.04,0 0.0799,0.04 0.11993,0.0799 0.04,0.04 0.04,0.08 0.08,0.11993 z m -1.87886,-10.87341 c 0.0799,0.35978 0.04,0.59964 -0.08,0.75954 -0.08,0.15991 -0.31981,0.27983 -0.67959,0.31981 -0.35979,0.08 -0.59964,0.08 -0.75954,-0.04 -0.11993,-0.0799 -0.23986,-0.3198 -0.31981,-0.63961 -0.04,-0.35978 -0.04,-0.59964 0.0799,-0.75954 0.11993,-0.1599 0.31981,-0.27983 0.67959,-0.31981 0.35978,-0.0799 0.59964,-0.04 0.75954,0.04 0.1599,0.0799 0.23986,0.31981 0.31981,0.63961 z m 11.35312,4.7971 c 0.11992,0.67958 0.1599,1.27922 0.0799,1.87886 -0.0799,0.55966 -0.23986,1.11932 -0.47971,1.55905 -0.27983,0.47971 -0.67959,0.87947 -1.11932,1.19927 -0.47971,0.31981 -1.07935,0.51969 -1.75894,0.67959 -0.63961,0.11993 -1.23925,0.11993 -1.79891,0 -0.51968,-0.0799 -0.99939,-0.27983 -1.39915,-0.59963 -0.39976,-0.31981 -0.71956,-0.75954 -0.99939,-1.23925 -0.23986,-0.51969 -0.43974,-1.11932 -0.55966,-1.79891 -0.11993,-0.63961 -0.15991,-1.27923 -0.08,-1.87886 0.04,-0.55966 0.23986,-1.07935 0.47971,-1.55906 0.27983,-0.47971 0.63962,-0.83949 1.11933,-1.1593 0.4797,-0.3198 1.03937,-0.55966 1.75893,-0.67958 0.63961,-0.11993 1.23925,-0.15991 1.79891,-0.04 0.51968,0.11993 0.95942,0.31981 1.35918,0.63961 0.39975,0.31981 0.75953,0.71957 0.99939,1.23925 0.27983,0.47971 0.47971,1.07935 0.59964,1.75894 z m -1.51908,0.39975 c -0.0799,-0.43973 -0.19988,-0.83949 -0.35979,-1.23925 -0.1599,-0.35978 -0.3198,-0.67958 -0.59963,-0.91944 -0.23986,-0.27983 -0.51969,-0.43973 -0.87947,-0.55966 -0.35978,-0.11993 -0.75954,-0.11993 -1.23925,-0.04 -0.43973,0.08 -0.79951,0.23986 -1.07934,0.43974 -0.31981,0.23985 -0.51969,0.47971 -0.67959,0.79951 -0.1599,0.31981 -0.23986,0.71957 -0.27983,1.11933 0,0.39975 0.04,0.83949 0.11993,1.27922 0.0799,0.43973 0.19987,0.87947 0.35978,1.23925 0.1599,0.35978 0.35978,0.67959 0.59963,0.95942 0.23986,0.23985 0.51969,0.43973 0.87947,0.51968 0.35978,0.11993 0.75954,0.11993 1.23925,0.04 0.43973,-0.0799 0.79951,-0.23986 1.07935,-0.43974 0.3198,-0.19987 0.51968,-0.4797 0.67958,-0.79951 0.15991,-0.31981 0.23986,-0.67959 0.27983,-1.07935 0,-0.43973 -0.04,-0.87946 -0.11992,-1.3192 z m 11.47304,1.99879 c 0.04,0.04 0.04,0.0799 0,0.11993 0,0.04 -0.04,0.0799 -0.0799,0.11993 -0.08,0.04 -0.11993,0.0799 -0.23985,0.0799 -0.0799,0.04 -0.19988,0.0799 -0.35978,0.11993 -0.11993,0 -0.27984,0.04 -0.35979,0.04 -0.0799,0 -0.1599,0 -0.23985,0 -0.04,-0.04 -0.08,-0.04 -0.11993,-0.0799 -0.04,-0.04 -0.04,-0.0799 -0.0799,-0.11993 l -0.87947,-4.71714 c -0.0799,-0.47971 -0.19988,-0.83949 -0.3198,-1.11932 -0.11993,-0.23986 -0.27983,-0.47971 -0.43974,-0.63961 -0.19988,-0.19988 -0.39975,-0.31981 -0.63961,-0.35979 -0.23985,-0.0799 -0.47971,-0.0799 -0.75954,-0.04 -0.39976,0.0799 -0.71956,0.27983 -1.03937,0.59964 -0.31981,0.35978 -0.63961,0.79951 -0.95942,1.39915 l 1.03937,5.63658 c 0.04,0.04 0.04,0.0799 0,0.11993 0,0.04 -0.04,0.0799 -0.0799,0.11993 -0.08,0.04 -0.11993,0.04 -0.23985,0.0799 -0.08,0.04 -0.19988,0.0799 -0.35979,0.0799 -0.1599,0.04 -0.27983,0.04 -0.35978,0.08 -0.0799,0 -0.1599,0 -0.23985,-0.04 -0.0799,0 -0.11993,0 -0.11993,-0.04 -0.04,-0.04 -0.04,-0.0799 -0.0799,-0.11993 l -1.51908,-8.0751 c 0,-0.04 0,-0.08 0,-0.11993 0.04,-0.04 0.0799,-0.0799 0.11993,-0.11993 0.04,-0.04 0.11992,-0.0799 0.19988,-0.0799 0.08,-0.04 0.1599,-0.0799 0.3198,-0.0799 0.11993,-0.04 0.23986,-0.04 0.31981,-0.0799 0.0799,0 0.1599,0 0.19988,0.04 0.0799,0 0.11992,0.04 0.11992,0.0799 0.04,0 0.08,0.04 0.08,0.08 l 0.19987,1.07934 c 0.35979,-0.59964 0.71957,-1.03937 1.1593,-1.35917 0.39976,-0.31981 0.83949,-0.51969 1.27923,-0.59964 0.55966,-0.11993 0.99939,-0.11993 1.43912,0 0.39976,0.11993 0.71957,0.3198 0.9994,0.55966 0.27983,0.27983 0.51968,0.59964 0.71956,0.99939 0.15991,0.35979 0.31981,0.87947 0.39976,1.43913 z m 5.67656,1.51908 c 0,0.11993 0,0.19988 0,0.27983 0,0.0799 -0.04,0.1599 -0.08,0.23986 -0.08,0.04 -0.11993,0.0799 -0.19988,0.11992 -0.04,0.04 -0.11992,0.0799 -0.19988,0.0799 l -2.27862,0.43974 c -0.08,0 -0.1599,-0.04 -0.19987,-0.0799 -0.08,-0.0799 -0.11993,-0.23986 -0.15991,-0.43974 0,-0.0799 -0.04,-0.1599 -0.04,-0.23985 0,-0.08 0,-0.11993 0.04,-0.1599 0,-0.08 0.04,-0.11993 0.04,-0.11993 0.04,-0.04 0.08,-0.04 0.11993,-0.04 l 1.4791,-0.27983 -2.51847,-13.27195 -1.43913,0.27983 c -0.0799,0 -0.15991,0 -0.23986,-0.08 -0.04,-0.0799 -0.0799,-0.19987 -0.11992,-0.39975 -0.04,-0.11993 -0.04,-0.19988 -0.04,-0.27983 0,-0.04 0,-0.11993 0,-0.15991 0.04,-0.0799 0.04,-0.11992 0.08,-0.11992 0.04,-0.04 0.04,-0.04 0.11993,-0.04 l 2.27862,-0.43973 c 0.0799,0 0.11993,0 0.19988,0 0.0799,0 0.1599,0.04 0.19988,0.0799 0.0799,0.04 0.11992,0.0799 0.19987,0.1599 0.04,0.0799 0.08,0.1599 0.08,0.27983 z"
     id="path3806"
     inkscape:connector-curvature="0" />
  <path
     style="fill:#000000;fill-opacity:1;fill-rule:nonzero;stroke:#000000;stroke-width:0.01998789px;stroke-linecap:butt;stroke-linejoin:round;stroke-miterlimit:4;stroke-dasharray:none;stroke-opacity:1"
     d="m 169.66716,287.82556 h 189.60509 v 0.6596 H 169.66716 Z m 188.28589,-3.67777 7.99516,3.99758 -7.99516,3.99758 z"
     id="path3808"
     inkscape:connector-curvature="0" />
  <text
     xml:space="preserve"
     style="font-style:normal;font-variant:normal;font-weight:400;font-size:18.6875px;line-height:125%;font-family:Calibri;text-align:start;letter-spacing:0px;word-spacing:0px;text-anchor:start;fill:#000000;fill-opacity:1;stroke:none"
     x="207.22258"
     y="306.47781"
     id="text3814"><tspan
       sodipodi:role="line"
       x="207.22258"
       y="306.47781"
       id="tspan3812"><tspan
         dx="0"
         dy="0"
         style="font-style:normal;font-variant:normal;font-weight:400;font-size:18.6875px;font-family:Calibri;fill:#000000"
         id="tspan3810">selects</tspan></tspan></text>
  <text
     xml:space="preserve"
     style="font-style:normal;font-variant:normal;font-weight:400;font-size:18.6875px;line-height:125%;font-family:Calibri;text-align:start;letter-spacing:0px;word-spacing:0px;text-anchor:start;fill:#000000;fill-opacity:1;stroke:none"
     x="263.18866"
     y="306.47781"
     id="text3820"><tspan
       sodipodi:role="line"
       x="263.18866"
       y="306.47781"
       id="tspan3818"><tspan
         dx="0"
         dy="0"
         style="font-style:normal;font-variant:normal;font-weight:400;font-size:18.6875px;font-family:Calibri;fill:#000000"
         id="tspan3816">state</tspan></tspan></text>
  <text
     xml:space="preserve"
     style="font-style:normal;font-variant:normal;font-weight:400;font-size:18.6875px;line-height:125%;font-family:Calibri;text-align:start;letter-spacing:0px;word-spacing:0px;text-anchor:start;fill:#000000;fill-opacity:1;stroke:none"
     x="304.92334"
     y="306.47781"
     id="text3826"><tspan
       sodipodi:role="line"
       x="304.92334"
       y="306.47781"
       id="tspan3824"><tspan
         dx="0"
         dy="0"
         style="font-style:normal;font-variant:normal;font-weight:400;font-size:18.6875px;font-family:Calibri;fill:#000000"
         id="tspan3822">slice</tspan></tspan></text>
  <path
     style="fill:#000000;fill-opacity:1;fill-rule:nonzero;stroke:#000000;stroke-width:0.01998789px;stroke-linecap:butt;stroke-linejoin:round;stroke-miterlimit:4;stroke-dasharray:none;stroke-opacity:1"
     d="m 366.08812,272.11508 h -2.65839 v 0.67959 h 2.65839 z m -4.65718,0 h -2.67837 v 0.67959 h 2.67837 z m -4.67716,0 h -2.65839 v 0.67959 h 2.65839 z m -4.65718,0 h -2.65839 v 0.67959 h 2.65839 z m -4.65718,0 h -2.67837 v 0.67959 h 2.67837 z m -4.67716,0 h -2.65839 v 0.67959 h 2.65839 z m -4.65718,0 h -2.65839 v 0.67959 h 2.65839 z m -4.65718,0 h -2.67837 v 0.67959 h 2.67837 z m -4.67716,0 h -2.65839 v 0.67959 h 2.65839 z m -4.65718,0 h -2.65839 v 0.67959 h 2.65839 z m -4.65718,0 h -2.67837 v 0.67959 h 2.67837 z m -4.67716,0 h -2.65839 v 0.67959 h 2.65839 z m -4.65718,0 h -2.65839 v 0.67959 h 2.65839 z m -4.65718,0 h -2.67837 v 0.67959 h 2.67837 z m -4.67716,0 h -2.65839 v 0.67959 h 2.65839 z m -4.65718,0 h -2.65839 v 0.67959 h 2.65839 z m -4.65718,0 h -2.67837 v 0.67959 h 2.67837 z m -4.67716,0 h -2.65839 v 0.67959 h 2.65839 z m -4.65718,0 h -2.65839 v 0.67959 h 2.65839 z m -4.65718,0 h -2.67837 v 0.67959 h 2.67837 z m -4.67716,0 h -2.65839 v 0.67959 h 2.65839 z m -4.65718,0 h -2.65839 v 0.67959 h 2.65839 z m -4.65718,0 h -2.67837 v 0.67959 h 2.67837 z m -4.67716,0 h -2.65839 v 0.67959 h 2.65839 z m -4.65718,0 h -2.65839 v 0.67959 h 2.65839 z m -4.65718,0 h -2.67838 v 0.67959 h 2.67838 z m -4.67716,0 h -2.65839 v 0.67959 h 2.65839 z m -4.65718,0 h -2.65839 v 0.67959 h 2.65839 z m -4.65718,0 h -2.67838 v 0.67959 h 2.67838 z m -4.67716,0 h -2.65839 v 0.67959 h 2.65839 z m -4.65718,0 h -2.65839 v 0.67959 h 2.65839 z m -4.65718,0 h -2.67838 v 0.67959 h 2.67838 z m -4.67716,0 h -2.65839 v 0.67959 h 2.65839 z m -4.65718,0 h -2.65839 v 0.67959 h 2.65839 z m -4.65718,0 h -2.67838 v 0.67959 h 2.67838 z m -4.67716,0 h -2.65839 v 0.67959 h 2.65839 z m -4.65718,0 h -2.65839 v 0.67959 h 2.65839 z m -4.65718,0 h -2.67838 v 0.67959 h 2.67838 z m -4.67716,0 h -2.65839 v 0.67959 h 2.65839 z m -4.65718,0 h -2.65839 v 0.67959 h 2.65839 z m -4.65718,0 h -2.67838 v 0.67959 h 2.67838 z m -1.73895,-3.65778 -7.99515,3.99758 7.99515,3.99758 z"
     id="path3828"
     inkscape:connector-curvature="0" />
  <text
     xml:space="preserve"
     style="font-style:normal;font-variant:normal;font-weight:400;font-size:18.6875px;line-height:125%;font-family:Calibri;text-align:start;letter-spacing:0px;word-spacing:0px;text-anchor:start;fill:#000000;fill-opacity:1;stroke:none"
     x="219.11385"
     y="260.02368"
     id="text3834"><tspan
       sodipodi:role="line"
       x="219.11385"
       y="260.02368"
       id="tspan3832"><tspan
         dx="0"
         dy="0"
         style="font-style:normal;font-variant:normal;font-weight:400;font-size:18.6875px;font-family:Calibri;fill:#000000"
         id="tspan3830">emits</tspan></tspan></text>
  <text
     xml:space="preserve"
     style="font-style:normal;font-variant:normal;font-weight:400;font-size:18.6875px;line-height:125%;font-family:Calibri;text-align:start;letter-spacing:0px;word-spacing:0px;text-anchor:start;fill:#000000;fill-opacity:1;stroke:none"
     x="265.48575"
     y="260.02368"
     id="text3840"><tspan
       sodipodi:role="line"
       x="265.48575"
       y="260.02368"
       id="tspan3838"><tspan
         dx="0"
         dy="0"
         style="font-style:normal;font-variant:normal;font-weight:400;font-size:18.6875px;font-family:Calibri;fill:#000000"
         id="tspan3836">updates</tspan></tspan></text>
  <path
     style="fill:#000000;fill-opacity:1;fill-rule:nonzero;stroke:#000000;stroke-width:0.03997577px;stroke-linecap:butt;stroke-linejoin:round;stroke-miterlimit:4;stroke-dasharray:none;stroke-opacity:1"
     d="M 709.10024,163.64083 V 82.330107 h -0.67959 v 81.310723 z m 3.63779,-79.991523 -3.99758,-7.99516 -3.99757,7.99516 z"
     id="path3842"
     inkscape:connector-curvature="0" />
  <text
     xml:space="preserve"
     style="font-style:normal;font-variant:normal;font-weight:400;font-size:18.6875px;line-height:125%;font-family:Calibri;text-align:start;letter-spacing:0px;word-spacing:0px;text-anchor:start;fill:#000000;fill-opacity:1;stroke:none"
     x="718.41071"
     y="124.24287"
     id="text3848"><tspan
       sodipodi:role="line"
       x="718.41071"
       y="124.24287"
       id="tspan3846"><tspan
         dx="0"
         dy="0"
         style="font-style:normal;font-variant:normal;font-weight:400;font-size:18.6875px;font-family:Calibri;fill:#000000"
         id="tspan3844">Invoke</tspan></tspan></text>
  <text
     xml:space="preserve"
     style="font-style:normal;font-variant:normal;font-weight:400;font-size:18.6875px;line-height:125%;font-family:Calibri;text-align:start;letter-spacing:0px;word-spacing:0px;text-anchor:start;fill:#000000;fill-opacity:1;stroke:none"
     x="772.13812"
     y="124.24287"
     id="text3854"><tspan
       sodipodi:role="line"
       x="772.13812"
       y="124.24287"
       id="tspan3852"><tspan
         dx="0"
         dy="0"
         style="font-style:normal;font-variant:normal;font-weight:400;font-size:18.6875px;font-family:Calibri;fill:#000000"
         id="tspan3850">side</tspan></tspan></text>
  <text
     xml:space="preserve"
     style="font-style:normal;font-variant:normal;font-weight:400;font-size:18.6875px;line-height:125%;font-family:Calibri;text-align:start;letter-spacing:0px;word-spacing:0px;text-anchor:start;fill:#000000;fill-opacity:1;stroke:none"
     x="807.15692"
     y="124.24287"
     id="text3860"><tspan
       sodipodi:role="line"
       x="807.15692"
       y="124.24287"
       id="tspan3858"><tspan
         dx="0"
         dy="0"
         style="font-style:normal;font-variant:normal;font-weight:400;font-size:18.6875px;font-family:Calibri;fill:#000000"
         id="tspan3856">effect</tspan></tspan></text>
</svg>
