<?xml version="1.0" encoding="UTF-8" standalone="no"?>
<!-- Created with Inkscape (http://www.inkscape.org/) -->

<svg
   xmlns:dc="http://purl.org/dc/elements/1.1/"
   xmlns:cc="http://creativecommons.org/ns#"
   xmlns:rdf="http://www.w3.org/1999/02/22-rdf-syntax-ns#"
   xmlns:svg="http://www.w3.org/2000/svg"
   xmlns="http://www.w3.org/2000/svg"
   xmlns:sodipodi="http://sodipodi.sourceforge.net/DTD/sodipodi-0.dtd"
   xmlns:inkscape="http://www.inkscape.org/namespaces/inkscape"
   width="241.63866mm"
   height="93.217987mm"
   viewBox="0 0 241.63866 93.217987"
   version="1.1"
   id="svg8"
   inkscape:version="0.92.1 r15371"
   sodipodi:docname="smart-smart-components.svg">
  <defs
     id="defs2">
    <clipPath
       id="clipPath26"
       clipPathUnits="userSpaceOnUse">
      <path
         style="clip-rule:evenodd"
         inkscape:connector-curvature="0"
         id="path24"
         d="M 0,1.2207e-4 H 780 V 540.00012 H 0 Z" />
    </clipPath>
    <clipPath
       id="clipPath38"
       clipPathUnits="userSpaceOnUse">
      <path
         style="clip-rule:evenodd"
         inkscape:connector-curvature="0"
         id="path36"
         d="M 1.1623e-5,0 H 780.00001 V 540 H 1.1623e-5 Z" />
    </clipPath>
    <clipPath
       id="clipPath50"
       clipPathUnits="userSpaceOnUse">
      <path
         style="clip-rule:evenodd"
         inkscape:connector-curvature="0"
         id="path48"
         d="M 1.1623e-5,0 H 780.00001 V 540 H 1.1623e-5 Z" />
    </clipPath>
    <clipPath
       id="clipPath62"
       clipPathUnits="userSpaceOnUse">
      <path
         style="clip-rule:evenodd"
         inkscape:connector-curvature="0"
         id="path60"
         d="M 1.1623e-5,0 H 780.00001 V 540 H 1.1623e-5 Z" />
    </clipPath>
    <clipPath
       id="clipPath74"
       clipPathUnits="userSpaceOnUse">
      <path
         style="clip-rule:evenodd"
         inkscape:connector-curvature="0"
         id="path72"
         d="M 1.1623e-5,0 H 780.00001 V 540 H 1.1623e-5 Z" />
    </clipPath>
    <clipPath
       id="clipPath86"
       clipPathUnits="userSpaceOnUse">
      <path
         style="clip-rule:evenodd"
         inkscape:connector-curvature="0"
         id="path84"
         d="M 1.1623e-5,0 H 780.00001 V 540 H 1.1623e-5 Z" />
    </clipPath>
    <clipPath
       id="clipPath98"
       clipPathUnits="userSpaceOnUse">
      <path
         style="clip-rule:evenodd"
         inkscape:connector-curvature="0"
         id="path96"
         d="M 1.1623e-5,0 H 780.00001 V 540 H 1.1623e-5 Z" />
    </clipPath>
    <clipPath
       id="clipPath110"
       clipPathUnits="userSpaceOnUse">
      <path
         style="clip-rule:evenodd"
         inkscape:connector-curvature="0"
         id="path108"
         d="M 1.1623e-5,0 H 780.00001 V 540 H 1.1623e-5 Z" />
    </clipPath>
    <clipPath
       id="clipPath122"
       clipPathUnits="userSpaceOnUse">
      <path
         style="clip-rule:evenodd"
         inkscape:connector-curvature="0"
         id="path120"
         d="M 1.1623e-5,0 H 780.00001 V 540 H 1.1623e-5 Z" />
    </clipPath>
    <clipPath
       id="clipPath136"
       clipPathUnits="userSpaceOnUse">
      <path
         style="clip-rule:evenodd"
         inkscape:connector-curvature="0"
         id="path134"
         d="M 1.1623e-5,0 H 780.00001 V 540 H 1.1623e-5 Z" />
    </clipPath>
    <clipPath
       id="clipPath148"
       clipPathUnits="userSpaceOnUse">
      <path
         style="clip-rule:evenodd"
         inkscape:connector-curvature="0"
         id="path146"
         d="M 1.1623e-5,0 H 780.00001 V 540 H 1.1623e-5 Z" />
    </clipPath>
    <clipPath
       id="clipPath160"
       clipPathUnits="userSpaceOnUse">
      <path
         style="clip-rule:evenodd"
         inkscape:connector-curvature="0"
         id="path158"
         d="M 1.1623e-5,0 H 780.00001 V 540 H 1.1623e-5 Z" />
    </clipPath>
    <clipPath
       id="clipPath174"
       clipPathUnits="userSpaceOnUse">
      <path
         style="clip-rule:evenodd"
         inkscape:connector-curvature="0"
         id="path172"
         d="M 1.1623e-5,0 H 780.00001 V 540 H 1.1623e-5 Z" />
    </clipPath>
    <clipPath
       id="clipPath186"
       clipPathUnits="userSpaceOnUse">
      <path
         style="clip-rule:evenodd"
         inkscape:connector-curvature="0"
         id="path184"
         d="M 1.1623e-5,0 H 780.00001 V 540 H 1.1623e-5 Z" />
    </clipPath>
    <clipPath
       id="clipPath198"
       clipPathUnits="userSpaceOnUse">
      <path
         style="clip-rule:evenodd"
         inkscape:connector-curvature="0"
         id="path196"
         d="M 1.1623e-5,0 H 780.00001 V 540 H 1.1623e-5 Z" />
    </clipPath>
    <clipPath
       id="clipPath212"
       clipPathUnits="userSpaceOnUse">
      <path
         style="clip-rule:evenodd"
         inkscape:connector-curvature="0"
         id="path210"
         d="M 1.1623e-5,0 H 780.00001 V 540 H 1.1623e-5 Z" />
    </clipPath>
    <clipPath
       id="clipPath224"
       clipPathUnits="userSpaceOnUse">
      <path
         style="clip-rule:evenodd"
         inkscape:connector-curvature="0"
         id="path222"
         d="M 1.1623e-5,0 H 780.00001 V 540 H 1.1623e-5 Z" />
    </clipPath>
    <clipPath
       id="clipPath236"
       clipPathUnits="userSpaceOnUse">
      <path
         style="clip-rule:evenodd"
         inkscape:connector-curvature="0"
         id="path234"
         d="M 1.1623e-5,0 H 780.00001 V 540 H 1.1623e-5 Z" />
    </clipPath>
    <clipPath
       id="clipPath248"
       clipPathUnits="userSpaceOnUse">
      <path
         style="clip-rule:evenodd"
         inkscape:connector-curvature="0"
         id="path246"
         d="M -2.6926e-5,540 H 780 V 1.2207e-4 H -2.6926e-5" />
    </clipPath>
    <clipPath
       id="clipPath258"
       clipPathUnits="userSpaceOnUse">
      <path
         style="clip-rule:evenodd"
         inkscape:connector-curvature="0"
         id="path256"
         d="M -2.12e-5,540 H 780 V 1.2207e-4 H -4.0885e-5" />
    </clipPath>
    <clipPath
       id="clipPath268"
       clipPathUnits="userSpaceOnUse">
      <path
         style="clip-rule:evenodd"
         inkscape:connector-curvature="0"
         id="path266"
         d="M 1.1623e-5,0 H 780.00001 V 540 H 1.1623e-5 Z" />
    </clipPath>
    <clipPath
       id="clipPath280"
       clipPathUnits="userSpaceOnUse">
      <path
         style="clip-rule:evenodd"
         inkscape:connector-curvature="0"
         id="path278"
         d="M 1.1623e-5,0 H 780.00001 V 540 H 1.1623e-5 Z" />
    </clipPath>
    <clipPath
       id="clipPath294"
       clipPathUnits="userSpaceOnUse">
      <path
         style="clip-rule:evenodd"
         inkscape:connector-curvature="0"
         id="path292"
         d="M 1.1623e-5,0 H 780.00001 V 540 H 1.1623e-5 Z" />
    </clipPath>
    <clipPath
       id="clipPath306"
       clipPathUnits="userSpaceOnUse">
      <path
         style="clip-rule:evenodd"
         inkscape:connector-curvature="0"
         id="path304"
         d="M 1.1623e-5,0 H 780.00001 V 540 H 1.1623e-5 Z" />
    </clipPath>
    <clipPath
       id="clipPath318"
       clipPathUnits="userSpaceOnUse">
      <path
         style="clip-rule:evenodd"
         inkscape:connector-curvature="0"
         id="path316"
         d="M 1.1623e-5,0 H 780.00001 V 540 H 1.1623e-5 Z" />
    </clipPath>
    <clipPath
       id="clipPath330"
       clipPathUnits="userSpaceOnUse">
      <path
         style="clip-rule:evenodd"
         inkscape:connector-curvature="0"
         id="path328"
         d="M 1.1623e-5,0 H 780.00001 V 540 H 1.1623e-5 Z" />
    </clipPath>
    <clipPath
       id="clipPath346"
       clipPathUnits="userSpaceOnUse">
      <path
         style="clip-rule:evenodd"
         inkscape:connector-curvature="0"
         id="path344"
         d="M 1.1623e-5,0 H 780.00001 V 540 H 1.1623e-5 Z" />
    </clipPath>
  </defs>
  <sodipodi:namedview
     id="base"
     pagecolor="#ffffff"
     bordercolor="#666666"
     borderopacity="1.0"
     inkscape:pageopacity="0.0"
     inkscape:pageshadow="2"
     inkscape:zoom="0.35"
     inkscape:cx="428.93713"
     inkscape:cy="230.74298"
     inkscape:document-units="mm"
     inkscape:current-layer="layer1"
     showgrid="false"
     fit-margin-top="0"
     fit-margin-left="0"
     fit-margin-right="0"
     fit-margin-bottom="0"
     inkscape:window-width="1920"
     inkscape:window-height="1015"
     inkscape:window-x="-9"
     inkscape:window-y="-9"
     inkscape:window-maximized="1" />
  <metadata
     id="metadata5">
    <rdf:RDF>
      <cc:Work
         rdf:about="">
        <dc:format>image/svg+xml</dc:format>
        <dc:type
           rdf:resource="http://purl.org/dc/dcmitype/StillImage" />
        <dc:title></dc:title>
      </cc:Work>
    </rdf:RDF>
  </metadata>
  <g
     inkscape:label="Ebene 1"
     inkscape:groupmode="layer"
     id="layer1"
     transform="translate(7.6562814,-116.66609)">
    <path
       d="m 22.358051,122.59981 c 0,-3.27731 2.656417,-5.93372 5.933722,-5.93372 h 72.037217 c 3.27731,0 5.93373,2.65641 5.93373,5.93372 v 23.73489 c 0,3.2773 -2.65642,5.93372 -5.93373,5.93372 H 28.291773 c -3.277305,0 -5.933722,-2.65642 -5.933722,-5.93372 z"
       style="fill:#e47e1a;fill-opacity:1;fill-rule:evenodd;stroke:none;stroke-width:0.35277778"
       id="path30"
       inkscape:connector-curvature="0" />
    <g
       id="g32"
       transform="matrix(0.35277777,0,0,-0.35277777,-27.214281,253.91075)">
      <g
         id="g34"
         clip-path="url(#clipPath38)">
        <text
           transform="matrix(1,0,0,-1,152.69,362.02)"
           style="font-variant:normal;font-weight:normal;font-size:18.95999908px;font-family:Arial;-inkscape-font-specification:ArialMT;writing-mode:lr-tb;fill:#ffffff;fill-opacity:1;fill-rule:nonzero;stroke:none"
           id="text42">
          <tspan
             x="0 12.64632 17.9172 28.45896 34.77264"
             y="0"
             sodipodi:role="line"
             id="tspan40">Store</tspan>
        </text>
      </g>
    </g>
    <g
       id="g44"
       transform="matrix(0.35277777,0,0,-0.35277777,-27.214281,253.91075)">
      <g
         id="g46"
         clip-path="url(#clipPath50)">
        <text
           transform="matrix(1,0,0,-1,152.69,344.5)"
           style="font-variant:normal;font-weight:normal;font-size:14.03999996px;font-family:Consolas;-inkscape-font-specification:Consolas;writing-mode:lr-tb;fill:#ffffff;fill-opacity:1;fill-rule:nonzero;stroke:none"
           id="text54">
          <tspan
             x="0 7.7220001 15.444 23.166 30.94416 38.666161 46.388161 54.208439 61.930439 69.652443 77.374443 85.152603 92.944801 100.6668 108.3888 116.20908 123.93108 131.65308 139.37508 147.15324 154.87524 162.59724 170.41753 178.13953 185.86153 193.58353 201.36168"
             y="0"
             sodipodi:role="line"
             id="tspan52">+ state$: Observable&lt;State&gt;</tspan>
        </text>
      </g>
    </g>
    <g
       id="g56"
       transform="matrix(0.35277777,0,0,-0.35277777,-27.214281,253.91075)">
      <g
         id="g58"
         clip-path="url(#clipPath62)">
        <text
           transform="matrix(1,0,0,-1,152.69,327.7)"
           style="font-variant:normal;font-weight:normal;font-size:14.03999996px;font-family:Consolas;-inkscape-font-specification:Consolas;writing-mode:lr-tb;fill:#ffffff;fill-opacity:1;fill-rule:nonzero;stroke:none"
           id="text66">
          <tspan
             x="0 7.6799998"
             y="0"
             sodipodi:role="line"
             id="tspan64">+</tspan>
        </text>
      </g>
    </g>
    <g
       id="g68"
       transform="matrix(0.35277777,0,0,-0.35277777,-27.214281,253.91075)">
      <g
         id="g70"
         clip-path="url(#clipPath74)">
        <text
           transform="matrix(1,0,0,-1,168.17,327.7)"
           style="font-variant:normal;font-weight:normal;font-size:14.03999996px;font-family:Consolas;-inkscape-font-specification:Consolas;writing-mode:lr-tb;fill:#ffffff;fill-opacity:1;fill-rule:nonzero;stroke:none"
           id="text78">
          <tspan
             x="0 7.7220001 15.444 23.166 30.94416 38.736359 46.458359 54.180359 61.902359 69.680519 77.472717"
             y="0"
             sodipodi:role="line"
             id="tspan76">changeState</tspan>
        </text>
      </g>
    </g>
    <g
       id="g80"
       transform="matrix(0.35277777,0,0,-0.35277777,-27.214281,253.91075)">
      <g
         id="g82"
         clip-path="url(#clipPath86)">
        <text
           transform="matrix(1,0,0,-1,253.37,327.7)"
           style="font-variant:normal;font-weight:normal;font-size:14.03999996px;font-family:Consolas;-inkscape-font-specification:Consolas;writing-mode:lr-tb;fill:#ffffff;fill-opacity:1;fill-rule:nonzero;stroke:none"
           id="text90">
          <tspan
             x="0"
             y="0"
             id="tspan88">(</tspan>
        </text>
      </g>
    </g>
    <g
       id="g92"
       transform="matrix(0.35277777,0,0,-0.35277777,-27.214281,253.91075)">
      <g
         id="g94"
         clip-path="url(#clipPath98)">
        <text
           transform="matrix(1,0,0,-1,261.17,327.7)"
           style="font-variant:normal;font-weight:normal;font-size:14.03999996px;font-family:Consolas;-inkscape-font-specification:Consolas;writing-mode:lr-tb;fill:#ffffff;fill-opacity:1;fill-rule:nonzero;stroke:none"
           id="text102">
          <tspan
             x="0 7.7922001 15.5142 23.2362"
             y="0"
             sodipodi:role="line"
             id="tspan100">args</tspan>
        </text>
      </g>
    </g>
    <g
       id="g104"
       transform="matrix(0.35277777,0,0,-0.35277777,-27.214281,253.91075)">
      <g
         id="g106"
         clip-path="url(#clipPath110)">
        <text
           transform="matrix(1,0,0,-1,292.13,327.7)"
           style="font-variant:normal;font-weight:normal;font-size:14.03999996px;font-family:Consolas;-inkscape-font-specification:Consolas;writing-mode:lr-tb;fill:#ffffff;fill-opacity:1;fill-rule:nonzero;stroke:none"
           id="text114">
          <tspan
             x="0 7.7922001 15.5142"
             y="0"
             sodipodi:role="line"
             id="tspan112">):</tspan>
        </text>
      </g>
    </g>
    <g
       id="g116"
       transform="matrix(0.35277777,0,0,-0.35277777,-27.214281,253.91075)">
      <g
         id="g118"
         clip-path="url(#clipPath122)">
        <text
           transform="matrix(1,0,0,-1,315.43,327.7)"
           style="font-variant:normal;font-weight:normal;font-size:14.03999996px;font-family:Consolas;-inkscape-font-specification:Consolas;writing-mode:lr-tb;fill:#ffffff;fill-opacity:1;fill-rule:nonzero;stroke:none"
           id="text126">
          <tspan
             x="0 7.7922001 15.5142 23.2362"
             y="0"
             sodipodi:role="line"
             id="tspan124">void</tspan>
        </text>
      </g>
    </g>
    <path
       d="m -7.6562814,188.15297 c 0,-2.39889 1.9459221,-4.34622 4.3462221,-4.34622 H 48.576495 c 2.398889,0 4.346222,1.94733 4.346222,4.34622 v 17.38489 c 0,2.39889 -1.947333,4.34622 -4.346222,4.34622 H -3.3100593 c -2.4003,0 -4.3462221,-1.94733 -4.3462221,-4.34622 z"
       style="fill:#5b9bd5;fill-opacity:1;fill-rule:evenodd;stroke:none;stroke-width:0.35277778"
       id="path128"
       inkscape:connector-curvature="0" />
    <g
       id="g130"
       transform="matrix(0.35277777,0,0,-0.35277777,-27.214281,253.91075)">
      <g
         id="g132"
         clip-path="url(#clipPath136)">
        <text
           transform="matrix(1,0,0,-1,115.99,165.94)"
           style="font-variant:normal;font-weight:normal;font-size:18.95999908px;font-family:Arial;-inkscape-font-specification:ArialMT;writing-mode:lr-tb;fill:#ffffff;fill-opacity:1;fill-rule:nonzero;stroke:none"
           id="text140">
          <tspan
             x="0 12.64632 28.440001 38.981758 45.333359 50.60424"
             y="0"
             sodipodi:role="line"
             id="tspan138">Smart</tspan>
        </text>
      </g>
    </g>
    <g
       id="g142"
       transform="matrix(0.35277777,0,0,-0.35277777,-27.214281,253.91075)">
      <g
         id="g144"
         clip-path="url(#clipPath148)">
        <text
           transform="matrix(1,0,0,-1,83.592,143.14)"
           style="font-variant:normal;font-weight:normal;font-size:18.95999908px;font-family:Arial;-inkscape-font-specification:ArialMT;writing-mode:lr-tb;fill:#ffffff;fill-opacity:1;fill-rule:nonzero;stroke:none"
           id="text152">
          <tspan
             x="0 13.68912 24.230881 40.024559 50.623199 61.164959 71.706718 82.248482 92.847122 98.117996"
             y="0"
             sodipodi:role="line"
             id="tspan150">Component</tspan>
        </text>
      </g>
    </g>
    <g
       id="g154"
       transform="matrix(0.35277777,0,0,-0.35277777,-27.214281,253.91075)">
      <g
         id="g156"
         clip-path="url(#clipPath160)">
        <text
           transform="matrix(1,0,0,-1,186.46,143.14)"
           style="font-variant:normal;font-weight:normal;font-size:18.95999908px;font-family:Arial;-inkscape-font-specification:ArialMT;writing-mode:lr-tb;fill:#ffffff;fill-opacity:1;fill-rule:nonzero;stroke:none"
           id="text164">
          <tspan
             x="0"
             y="0"
             id="tspan162">A</tspan>
        </text>
      </g>
    </g>
    <path
       d="m 79.592717,188.15297 c 0,-2.39889 1.947333,-4.34622 4.346222,-4.34622 h 51.844221 c 2.39889,0 4.34622,1.94733 4.34622,4.34622 v 17.38489 c 0,2.39889 -1.94733,4.34622 -4.34622,4.34622 H 83.938939 c -2.398889,0 -4.346222,-1.94733 -4.346222,-4.34622 z"
       style="fill:#5b9bd5;fill-opacity:1;fill-rule:evenodd;stroke:none;stroke-width:0.35277778"
       id="path166"
       inkscape:connector-curvature="0" />
    <g
       id="g168"
       transform="matrix(0.35277777,0,0,-0.35277777,-27.214281,253.91075)">
      <g
         id="g170"
         clip-path="url(#clipPath174)">
        <text
           transform="matrix(1,0,0,-1,363.31,165.94)"
           style="font-variant:normal;font-weight:normal;font-size:18.95999908px;font-family:Arial;-inkscape-font-specification:ArialMT;writing-mode:lr-tb;fill:#ffffff;fill-opacity:1;fill-rule:nonzero;stroke:none"
           id="text178">
          <tspan
             x="0 12.64632 28.440001 38.981758 45.333359 50.60424"
             y="0"
             sodipodi:role="line"
             id="tspan176">Smart</tspan>
        </text>
      </g>
    </g>
    <g
       id="g180"
       transform="matrix(0.35277777,0,0,-0.35277777,-27.214281,253.91075)">
      <g
         id="g182"
         clip-path="url(#clipPath186)">
        <text
           transform="matrix(1,0,0,-1,330.31,143.14)"
           style="font-variant:normal;font-weight:normal;font-size:18.95999908px;font-family:Arial;-inkscape-font-specification:ArialMT;writing-mode:lr-tb;fill:#ffffff;fill-opacity:1;fill-rule:nonzero;stroke:none"
           id="text190">
          <tspan
             x="0 13.68912 24.230881 40.024559 50.623199 61.164959 71.706718 82.248482 92.847122 98.117996"
             y="0"
             sodipodi:role="line"
             id="tspan188">Component</tspan>
        </text>
      </g>
    </g>
    <g
       id="g192"
       transform="matrix(0.35277777,0,0,-0.35277777,-27.214281,253.91075)">
      <g
         id="g194"
         clip-path="url(#clipPath198)">
        <text
           transform="matrix(1,0,0,-1,434.26,143.14)"
           style="font-variant:normal;font-weight:normal;font-size:18.95999908px;font-family:Arial;-inkscape-font-specification:ArialMT;writing-mode:lr-tb;fill:#ffffff;fill-opacity:1;fill-rule:nonzero;stroke:none"
           id="text202">
          <tspan
             x="0"
             y="0"
             id="tspan200">B</tspan>
        </text>
      </g>
    </g>
    <path
       d="m 161.71938,188.15297 c 0,-2.39889 1.94733,-4.34622 4.34622,-4.34622 h 51.88656 c 2.39889,0 4.34622,1.94733 4.34622,4.34622 v 17.38489 c 0,2.39889 -1.94733,4.34622 -4.34622,4.34622 H 166.0656 c -2.39889,0 -4.34622,-1.94733 -4.34622,-4.34622 z"
       style="fill:#5b9bd5;fill-opacity:1;fill-rule:evenodd;stroke:none;stroke-width:0.35277778"
       id="path204"
       inkscape:connector-curvature="0" />
    <g
       id="g206"
       transform="matrix(0.35277777,0,0,-0.35277777,-27.214281,253.91075)">
      <g
         id="g208"
         clip-path="url(#clipPath212)">
        <text
           transform="matrix(1,0,0,-1,596.21,165.94)"
           style="font-variant:normal;font-weight:normal;font-size:18.95999908px;font-family:Arial;-inkscape-font-specification:ArialMT;writing-mode:lr-tb;fill:#ffffff;fill-opacity:1;fill-rule:nonzero;stroke:none"
           id="text216">
          <tspan
             x="0 12.64632 28.440001 38.981758 45.333359 50.60424"
             y="0"
             sodipodi:role="line"
             id="tspan214">Smart</tspan>
        </text>
      </g>
    </g>
    <g
       id="g218"
       transform="matrix(0.35277777,0,0,-0.35277777,-27.214281,253.91075)">
      <g
         id="g220"
         clip-path="url(#clipPath224)">
        <text
           transform="matrix(1,0,0,-1,562.73,143.14)"
           style="font-variant:normal;font-weight:normal;font-size:18.95999908px;font-family:Arial;-inkscape-font-specification:ArialMT;writing-mode:lr-tb;fill:#ffffff;fill-opacity:1;fill-rule:nonzero;stroke:none"
           id="text228">
          <tspan
             x="0 13.68912 24.230881 40.024559 50.623199 61.164959 71.706718 82.248482 92.847122 98.117996"
             y="0"
             sodipodi:role="line"
             id="tspan226">Component</tspan>
        </text>
      </g>
    </g>
    <g
       id="g230"
       transform="matrix(0.35277777,0,0,-0.35277777,-27.214281,253.91075)">
      <g
         id="g232"
         clip-path="url(#clipPath236)">
        <text
           transform="matrix(1,0,0,-1,666.65,143.14)"
           style="font-variant:normal;font-weight:normal;font-size:18.95999908px;font-family:Arial;-inkscape-font-specification:ArialMT;writing-mode:lr-tb;fill:#ffffff;fill-opacity:1;fill-rule:nonzero;stroke:none"
           id="text240">
          <tspan
             x="0"
             y="0"
             id="tspan238">C</tspan>
        </text>
      </g>
    </g>
    <g
       id="g242"
       transform="matrix(0.35277777,0,0,-0.35277777,-27.214281,253.91075)">
      <g
         id="g244"
         clip-path="url(#clipPath248)">
        <path
           d="m 260.24,283.06 v -39.73 c 0,-0.44 -0.35,-0.78 -0.78,-0.78 H 141.3 l 0.78,0.78 v -44.74 h -1.56 v 44.74 c 0,0.43 0.35,0.78 0.78,0.78 h 118.16 l -0.78,-0.78 v 39.73 z m -3.78,-1 3,6 3,-6 z"
           style="fill:#5b9bd5;fill-opacity:1;fill-rule:nonzero;stroke:none"
           id="path250"
           inkscape:connector-curvature="0" />
      </g>
    </g>
    <g
       id="g252"
       transform="matrix(0.35277777,0,0,-0.35277777,-27.214281,253.91075)">
      <g
         id="g254"
         clip-path="url(#clipPath258)">
        <path
           d="m 258.72,283.06 v -39.73 c 0,-0.43 0.35,-0.78 0.78,-0.78 h 129.13 l -0.78,0.78 v -44.74 h 1.56 v 44.74 c 0,0.43 -0.35,0.78 -0.78,0.78 H 259.5 l 0.78,-0.78 v 39.73 z m 3.78,-1 -3,6 -3,-6 z"
           style="fill:#5b9bd5;fill-opacity:1;fill-rule:nonzero;stroke:none"
           id="path260"
           inkscape:connector-curvature="0" />
      </g>
    </g>
    <g
       id="g262"
       transform="matrix(0.35277777,0,0,-0.35277777,-27.214281,253.91075)">
      <g
         id="g264"
         clip-path="url(#clipPath268)">
        <text
           transform="matrix(1,0,0,-1,636.02,235.15)"
           style="font-variant:normal;font-weight:normal;font-size:18.95999908px;font-family:Arial;-inkscape-font-specification:ArialMT;writing-mode:lr-tb;fill:#000000;fill-opacity:1;fill-rule:nonzero;stroke:none"
           id="text272">
          <tspan
             x="0 10.54176 20.021761 25.292641 29.50176 40.043522 50.585281 56.9748"
             y="0"
             sodipodi:role="line"
             id="tspan270">action()</tspan>
        </text>
      </g>
    </g>
    <g
       id="g274"
       transform="matrix(0.35277777,0,0,-0.35277777,-27.214281,253.91075)">
      <g
         id="g276"
         clip-path="url(#clipPath280)">
        <text
           transform="matrix(1,0,0,-1,125.06,256.63)"
           style="font-variant:normal;font-weight:normal;font-size:18.95999908px;font-family:Arial;-inkscape-font-specification:ArialMT;writing-mode:lr-tb;fill:#000000;fill-opacity:1;fill-rule:nonzero;stroke:none"
           id="text284">
          <tspan
             x="0 9.4799995 20.021761 30.56352 40.043522 49.523521 55.894081 60.103199 70.644958 81.186722 87.557281"
             y="0"
             sodipodi:role="line"
             id="tspan282">subscribe()</tspan>
        </text>
      </g>
    </g>
    <path
       d="m 150.03538,122.59981 c 0,-3.27731 2.65642,-5.93372 5.93372,-5.93372 h 72.07956 c 3.2773,0 5.93372,2.65641 5.93372,5.93372 v 23.73489 c 0,3.2773 -2.65642,5.93372 -5.93372,5.93372 H 155.9691 c -3.2773,0 -5.93372,-2.65642 -5.93372,-5.93372 z"
       style="fill:#e47e1a;fill-opacity:1;fill-rule:evenodd;stroke:none;stroke-width:0.35277778"
       id="path286"
       inkscape:connector-curvature="0" />
    <g
       id="g288"
       transform="matrix(0.35277777,0,0,-0.35277777,-27.214281,253.91075)">
      <g
         id="g290"
         clip-path="url(#clipPath294)">
        <text
           transform="matrix(1,0,0,-1,514.7,362.5)"
           style="font-variant:normal;font-weight:normal;font-size:18.95999908px;font-family:Arial;-inkscape-font-specification:ArialMT;writing-mode:lr-tb;fill:#ffffff;fill-opacity:1;fill-rule:nonzero;stroke:none"
           id="text298">
          <tspan
             x="0 13.68912 23.169121 33.71088 47.400002 57.941761 67.421761 77.963516 90.60984 101.1516 107.46528 116.94528 121.1544 130.6344"
             y="0"
             sodipodi:role="line"
             id="tspan296">UseCaseService</tspan>
        </text>
      </g>
    </g>
    <g
       id="g300"
       transform="matrix(0.35277777,0,0,-0.35277777,-27.214281,253.91075)">
      <g
         id="g302"
         clip-path="url(#clipPath306)">
        <text
           transform="matrix(1,0,0,-1,514.7,344.5)"
           style="font-variant:normal;font-weight:normal;font-size:14.03999996px;font-family:Consolas;-inkscape-font-specification:Consolas;writing-mode:lr-tb;fill:#ffffff;fill-opacity:1;fill-rule:nonzero;stroke:none"
           id="text310">
          <tspan
             x="0 7.6799998"
             y="0"
             sodipodi:role="line"
             id="tspan308">+</tspan>
        </text>
      </g>
    </g>
    <g
       id="g312"
       transform="matrix(0.35277777,0,0,-0.35277777,-27.214281,253.91075)">
      <g
         id="g314"
         clip-path="url(#clipPath318)">
        <text
           transform="matrix(1,0,0,-1,530.18,344.5)"
           style="font-variant:normal;font-weight:normal;font-size:14.03999996px;font-family:Consolas;-inkscape-font-specification:Consolas;writing-mode:lr-tb;fill:#ffffff;fill-opacity:1;fill-rule:nonzero;stroke:none"
           id="text322">
          <tspan
             x="0 7.7220001 15.444 23.166 30.94416 38.736359 46.458359 54.180359 61.902359 69.680519"
             y="0"
             sodipodi:role="line"
             id="tspan320">action():</tspan>
        </text>
      </g>
    </g>
    <g
       id="g324"
       transform="matrix(0.35277777,0,0,-0.35277777,-27.214281,253.91075)">
      <g
         id="g326"
         clip-path="url(#clipPath330)">
        <text
           transform="matrix(1,0,0,-1,607.73,344.5)"
           style="font-variant:normal;font-weight:normal;font-size:14.03999996px;font-family:Consolas;-inkscape-font-specification:Consolas;writing-mode:lr-tb;fill:#ffffff;fill-opacity:1;fill-rule:nonzero;stroke:none"
           id="text334">
          <tspan
             x="0 7.7220001 15.444 23.26428"
             y="0"
             sodipodi:role="line"
             id="tspan332">void</tspan>
        </text>
      </g>
    </g>
    <path
       d="m 150.06713,134.19209 h -42.01936 v 0.55033 h 42.01936 z m -41.66658,-0.78317 -2.11667,1.05833 2.11667,1.05834 z"
       style="fill:#e47e1a;fill-opacity:1;fill-rule:nonzero;stroke:none;stroke-width:0.35277778"
       id="path336"
       inkscape:connector-curvature="0" />
    <path
       d="m 192.32638,183.85261 v -29.79914 h -0.55033 v 29.79914 z m 0.78317,-29.44636 -1.05834,-2.11666 -1.05833,2.11666 z"
       style="fill:#5b9bd5;fill-opacity:1;fill-rule:nonzero;stroke:none;stroke-width:0.35277778"
       id="path338"
       inkscape:connector-curvature="0" />
    <g
       id="g340"
       transform="matrix(0.35277777,0,0,-0.35277777,-27.214281,253.91075)">
      <g
         id="g342"
         clip-path="url(#clipPath346)">
        <text
           transform="matrix(1,0,0,-1,277.46,256.63)"
           style="font-variant:normal;font-weight:normal;font-size:18.95999908px;font-family:Arial;-inkscape-font-specification:ArialMT;writing-mode:lr-tb;fill:#000000;fill-opacity:1;fill-rule:nonzero;stroke:none"
           id="text350">
          <tspan
             x="0 9.4799995 20.021761 30.56352 40.043522 49.523521 55.894081 60.103199 70.644958 81.186722 87.557281"
             y="0"
             sodipodi:role="line"
             id="tspan348">subscribe()</tspan>
        </text>
      </g>
    </g>
  </g>
</svg>
