<?xml version="1.0" encoding="UTF-8" standalone="no"?>
<!-- Created with Inkscape (http://www.inkscape.org/) -->

<svg
   xmlns:dc="http://purl.org/dc/elements/1.1/"
   xmlns:cc="http://creativecommons.org/ns#"
   xmlns:rdf="http://www.w3.org/1999/02/22-rdf-syntax-ns#"
   xmlns:svg="http://www.w3.org/2000/svg"
   xmlns="http://www.w3.org/2000/svg"
   xmlns:sodipodi="http://sodipodi.sourceforge.net/DTD/sodipodi-0.dtd"
   xmlns:inkscape="http://www.inkscape.org/namespaces/inkscape"
   width="178.81503mm"
   height="111.42133mm"
   viewBox="0 0 178.81503 111.42133"
   version="1.1"
   id="svg8"
   inkscape:version="0.92.1 r15371"
   sodipodi:docname="smart-dumb-components-interaction.svg">
  <defs
     id="defs2">
    <clipPath
       id="clipPath26"
       clipPathUnits="userSpaceOnUse">
      <path
         style="clip-rule:evenodd"
         inkscape:connector-curvature="0"
         id="path24"
         d="M 0,1.2207e-4 H 780 V 540.00012 H 0 Z" />
    </clipPath>
    <clipPath
       id="clipPath38"
       clipPathUnits="userSpaceOnUse">
      <path
         style="clip-rule:evenodd"
         inkscape:connector-curvature="0"
         id="path36"
         d="M 1.1623e-5,0 H 780.00001 V 540 H 1.1623e-5 Z" />
    </clipPath>
    <clipPath
       id="clipPath50"
       clipPathUnits="userSpaceOnUse">
      <path
         style="clip-rule:evenodd"
         inkscape:connector-curvature="0"
         id="path48"
         d="M 1.1623e-5,0 H 780.00001 V 540 H 1.1623e-5 Z" />
    </clipPath>
    <clipPath
       id="clipPath64"
       clipPathUnits="userSpaceOnUse">
      <path
         style="clip-rule:evenodd"
         inkscape:connector-curvature="0"
         id="path62"
         d="M 1.1623e-5,0 H 780.00001 V 540 H 1.1623e-5 Z" />
    </clipPath>
    <clipPath
       id="clipPath76"
       clipPathUnits="userSpaceOnUse">
      <path
         style="clip-rule:evenodd"
         inkscape:connector-curvature="0"
         id="path74"
         d="M 1.1623e-5,0 H 780.00001 V 540 H 1.1623e-5 Z" />
    </clipPath>
    <clipPath
       id="clipPath90"
       clipPathUnits="userSpaceOnUse">
      <path
         style="clip-rule:evenodd"
         inkscape:connector-curvature="0"
         id="path88"
         d="M 1.1623e-5,0 H 780.00001 V 540 H 1.1623e-5 Z" />
    </clipPath>
    <clipPath
       id="clipPath102"
       clipPathUnits="userSpaceOnUse">
      <path
         style="clip-rule:evenodd"
         inkscape:connector-curvature="0"
         id="path100"
         d="M 1.1623e-5,0 H 780.00001 V 540 H 1.1623e-5 Z" />
    </clipPath>
    <clipPath
       id="clipPath116"
       clipPathUnits="userSpaceOnUse">
      <path
         style="clip-rule:evenodd"
         inkscape:connector-curvature="0"
         id="path114"
         d="M 1.1623e-5,0 H 780.00001 V 540 H 1.1623e-5 Z" />
    </clipPath>
    <clipPath
       id="clipPath128"
       clipPathUnits="userSpaceOnUse">
      <path
         style="clip-rule:evenodd"
         inkscape:connector-curvature="0"
         id="path126"
         d="M 1.1623e-5,0 H 780.00001 V 540 H 1.1623e-5 Z" />
    </clipPath>
    <clipPath
       id="clipPath140"
       clipPathUnits="userSpaceOnUse">
      <path
         style="clip-rule:evenodd"
         inkscape:connector-curvature="0"
         id="path138"
         d="M -9.623e-6,540 H 780 V 1.2207e-4 H -4.8993e-5" />
    </clipPath>
    <clipPath
       id="clipPath152"
       clipPathUnits="userSpaceOnUse">
      <path
         style="clip-rule:evenodd"
         inkscape:connector-curvature="0"
         id="path150"
         d="M 1.1623e-5,0 H 780.00001 V 540 H 1.1623e-5 Z" />
    </clipPath>
    <clipPath
       id="clipPath164"
       clipPathUnits="userSpaceOnUse">
      <path
         style="clip-rule:evenodd"
         inkscape:connector-curvature="0"
         id="path162"
         d="M 1.1623e-5,0 H 780.00001 V 540 H 1.1623e-5 Z" />
    </clipPath>
    <clipPath
       id="clipPath176"
       clipPathUnits="userSpaceOnUse">
      <path
         style="clip-rule:evenodd"
         inkscape:connector-curvature="0"
         id="path174"
         d="M 1.1623e-5,0 H 780.00001 V 540 H 1.1623e-5 Z" />
    </clipPath>
    <clipPath
       id="clipPath190"
       clipPathUnits="userSpaceOnUse">
      <path
         style="clip-rule:evenodd"
         inkscape:connector-curvature="0"
         id="path188"
         d="M 1.1623e-5,0 H 780.00001 V 540 H 1.1623e-5 Z" />
    </clipPath>
    <clipPath
       id="clipPath204"
       clipPathUnits="userSpaceOnUse">
      <path
         style="clip-rule:evenodd"
         inkscape:connector-curvature="0"
         id="path202"
         d="M -2.3617e-5,540 H 780 V 1.2207e-4 H -2.3617e-5" />
    </clipPath>
    <clipPath
       id="clipPath214"
       clipPathUnits="userSpaceOnUse">
      <path
         style="clip-rule:evenodd"
         inkscape:connector-curvature="0"
         id="path212"
         d="M 1.1623e-5,0 H 780.00001 V 540 H 1.1623e-5 Z" />
    </clipPath>
  </defs>
  <sodipodi:namedview
     id="base"
     pagecolor="#ffffff"
     bordercolor="#666666"
     borderopacity="1.0"
     inkscape:pageopacity="0.0"
     inkscape:pageshadow="2"
     inkscape:zoom="0.35"
     inkscape:cx="338.55635"
     inkscape:cy="209.44009"
     inkscape:document-units="mm"
     inkscape:current-layer="layer1"
     showgrid="false"
     fit-margin-top="0"
     fit-margin-left="0"
     fit-margin-right="0"
     fit-margin-bottom="0"
     inkscape:window-width="1920"
     inkscape:window-height="1015"
     inkscape:window-x="-9"
     inkscape:window-y="-9"
     inkscape:window-maximized="1" />
  <metadata
     id="metadata5">
    <rdf:RDF>
      <cc:Work
         rdf:about="">
        <dc:format>image/svg+xml</dc:format>
        <dc:type
           rdf:resource="http://purl.org/dc/dcmitype/StillImage" />
        <dc:title></dc:title>
      </cc:Work>
    </rdf:RDF>
  </metadata>
  <g
     inkscape:label="Ebene 1"
     inkscape:groupmode="layer"
     id="layer1"
     transform="translate(-16.256967,-92.826363)">
    <path
       d="m 71.839667,97.172585 c 0,-2.398888 1.947334,-4.346222 4.346223,-4.346222 h 51.84422 c 2.39889,0 4.34622,1.947334 4.34622,4.346222 v 17.384885 c 0,2.39889 -1.94733,4.34623 -4.34622,4.34623 H 76.18589 c -2.398889,0 -4.346223,-1.94734 -4.346223,-4.34623 z"
       style="fill:#5b9bd5;fill-opacity:1;fill-rule:evenodd;stroke:none;stroke-width:0.35277778"
       id="path30"
       inkscape:connector-curvature="0" />
    <g
       id="g32"
       transform="matrix(0.35277777,0,0,-0.35277777,-31.749997,244.08336)">
      <g
         id="g34"
         clip-path="url(#clipPath38)">
        <text
           transform="matrix(1,0,0,-1,354.17,396.07)"
           style="font-variant:normal;font-weight:normal;font-size:18.95999908px;font-family:Arial;-inkscape-font-specification:ArialMT;writing-mode:lr-tb;fill:#ffffff;fill-opacity:1;fill-rule:nonzero;stroke:none"
           id="text42">
          <tspan
             x="0 12.64632 28.440001 38.981758 45.333359 50.60424"
             y="0"
             sodipodi:role="line"
             id="tspan40">Smart</tspan>
        </text>
      </g>
    </g>
    <g
       id="g44"
       transform="matrix(0.35277777,0,0,-0.35277777,-31.749997,244.08336)">
      <g
         id="g46"
         clip-path="url(#clipPath50)">
        <text
           transform="matrix(1,0,0,-1,330.41,373.27)"
           style="font-variant:normal;font-weight:normal;font-size:18.95999908px;font-family:Arial;-inkscape-font-specification:ArialMT;writing-mode:lr-tb;fill:#ffffff;fill-opacity:1;fill-rule:nonzero;stroke:none"
           id="text54">
          <tspan
             x="0 13.68912 24.230881 40.024559 50.623199 61.164959 71.706718 82.248482 92.847122"
             y="0"
             sodipodi:role="line"
             id="tspan52">Component</tspan>
        </text>
      </g>
    </g>
    <path
       d="m 34.459335,141.07225 c 0,-2.39889 1.947333,-4.34622 4.346222,-4.34622 h 51.844221 c 2.398889,0 4.346222,1.94733 4.346222,4.34622 v 17.38489 c 0,2.39889 -1.947333,4.34622 -4.346222,4.34622 H 38.805557 c -2.398889,0 -4.346222,-1.94733 -4.346222,-4.34622 z"
       style="fill:#70ad47;fill-opacity:1;fill-rule:evenodd;stroke:none;stroke-width:0.35277778"
       id="path56"
       inkscape:connector-curvature="0" />
    <g
       id="g58"
       transform="matrix(0.35277777,0,0,-0.35277777,-31.749997,244.08336)">
      <g
         id="g60"
         clip-path="url(#clipPath64)">
        <text
           transform="matrix(1,0,0,-1,248.21,271.61)"
           style="font-variant:normal;font-weight:normal;font-size:18.95999908px;font-family:Arial;-inkscape-font-specification:ArialMT;writing-mode:lr-tb;fill:#ffffff;fill-opacity:1;fill-rule:nonzero;stroke:none"
           id="text68">
          <tspan
             x="0 13.68912 24.230881 40.024559 50.623199"
             y="0"
             sodipodi:role="line"
             id="tspan66">Dumb</tspan>
        </text>
      </g>
    </g>
    <g
       id="g70"
       transform="matrix(0.35277777,0,0,-0.35277777,-31.749997,244.08336)">
      <g
         id="g72"
         clip-path="url(#clipPath76)">
        <text
           transform="matrix(1,0,0,-1,215.81,248.81)"
           style="font-variant:normal;font-weight:normal;font-size:18.95999908px;font-family:Arial;-inkscape-font-specification:ArialMT;writing-mode:lr-tb;fill:#ffffff;fill-opacity:1;fill-rule:nonzero;stroke:none"
           id="text80">
          <tspan
             x="0 13.68912 24.230881 40.024559 50.623199 61.164959 71.706718 82.248482 92.847122 98.117996 102.80112"
             y="0"
             sodipodi:role="line"
             id="tspan78">Component A</tspan>
        </text>
      </g>
    </g>
    <path
       d="m 134.53533,142.89258 c 0,-2.39888 1.94734,-4.34622 4.34622,-4.34622 h 51.84423 c 2.39888,0 4.34622,1.94734 4.34622,4.34622 v 17.38489 c 0,2.39889 -1.94734,4.34623 -4.34622,4.34623 h -51.84423 c -2.39888,0 -4.34622,-1.94734 -4.34622,-4.34623 z"
       style="fill:#70ad47;fill-opacity:1;fill-rule:evenodd;stroke:none;stroke-width:0.35277778"
       id="path82"
       inkscape:connector-curvature="0" />
    <g
       id="g84"
       transform="matrix(0.35277777,0,0,-0.35277777,-31.749997,244.08336)">
      <g
         id="g86"
         clip-path="url(#clipPath90)">
        <text
           transform="matrix(1,0,0,-1,531.91,266.45)"
           style="font-variant:normal;font-weight:normal;font-size:18.95999908px;font-family:Arial;-inkscape-font-specification:ArialMT;writing-mode:lr-tb;fill:#ffffff;fill-opacity:1;fill-rule:nonzero;stroke:none"
           id="text94">
          <tspan
             x="0 13.68912 24.268801 40.119362 50.661121"
             y="0"
             sodipodi:role="line"
             id="tspan92">Dumb</tspan>
        </text>
      </g>
    </g>
    <g
       id="g96"
       transform="matrix(0.35277777,0,0,-0.35277777,-31.749997,244.08336)">
      <g
         id="g98"
         clip-path="url(#clipPath102)">
        <text
           transform="matrix(1,0,0,-1,498.91,243.65)"
           style="font-variant:normal;font-weight:normal;font-size:18.95999908px;font-family:Arial;-inkscape-font-specification:ArialMT;writing-mode:lr-tb;fill:#ffffff;fill-opacity:1;fill-rule:nonzero;stroke:none"
           id="text106">
          <tspan
             x="0 13.68912 24.230881 40.024559 50.623199 61.164959 71.706718 82.248482 92.847122 98.117996 103.86288"
             y="0"
             sodipodi:role="line"
             id="tspan104">Component B</tspan>
        </text>
      </g>
    </g>
    <path
       d="m 34.459335,182.51658 c 0,-2.39889 1.947333,-4.34622 4.346222,-4.34622 h 51.844221 c 2.398889,0 4.346222,1.94733 4.346222,4.34622 v 17.38489 c 0,2.39889 -1.947333,4.34622 -4.346222,4.34622 H 38.805557 c -2.398889,0 -4.346222,-1.94733 -4.346222,-4.34622 z"
       style="fill:#70ad47;fill-opacity:1;fill-rule:evenodd;stroke:none;stroke-width:0.35277778"
       id="path108"
       inkscape:connector-curvature="0" />
    <g
       id="g110"
       transform="matrix(0.35277777,0,0,-0.35277777,-31.749997,244.08336)">
      <g
         id="g112"
         clip-path="url(#clipPath116)">
        <text
           transform="matrix(1,0,0,-1,248.21,154.15)"
           style="font-variant:normal;font-weight:normal;font-size:18.95999908px;font-family:Arial;-inkscape-font-specification:ArialMT;writing-mode:lr-tb;fill:#ffffff;fill-opacity:1;fill-rule:nonzero;stroke:none"
           id="text120">
          <tspan
             x="0 13.68912 24.230881 40.024559 50.623199"
             y="0"
             sodipodi:role="line"
             id="tspan118">Dumb</tspan>
        </text>
      </g>
    </g>
    <g
       id="g122"
       transform="matrix(0.35277777,0,0,-0.35277777,-31.749997,244.08336)">
      <g
         id="g124"
         clip-path="url(#clipPath128)">
        <text
           transform="matrix(1,0,0,-1,214.73,131.35)"
           style="font-variant:normal;font-weight:normal;font-size:18.95999908px;font-family:Arial;-inkscape-font-specification:ArialMT;writing-mode:lr-tb;fill:#ffffff;fill-opacity:1;fill-rule:nonzero;stroke:none"
           id="text132">
          <tspan
             x="0 13.68912 24.230881 40.024559 50.623199 61.164959 71.706718 82.248482 92.847122 98.117996 103.86288"
             y="0"
             sodipodi:role="line"
             id="tspan130">Component C</tspan>
        </text>
      </g>
    </g>
    <g
       id="g134"
       transform="matrix(0.35277777,0,0,-0.35277777,-31.749997,244.08336)">
      <g
         id="g136"
         clip-path="url(#clipPath140)">
        <path
           d="m 425.52,354.78 v -27.83 c 0,-0.43 0.35,-0.78 0.78,-0.78 h 127.92 l -0.78,0.78 V 304.12 H 555 v 22.83 c 0,0.43 -0.35,0.78 -0.78,0.78 H 426.3 l 0.78,-0.78 v 27.83 z m 125.7,-49.66 3,-6 3,6 z"
           style="fill:#5b9bd5;fill-opacity:1;fill-rule:nonzero;stroke:none"
           id="path142"
           inkscape:connector-curvature="0" />
      </g>
    </g>
    <path
       d="m 51.265668,162.82453 v 13.58194 h -0.550333 v -13.58194 z m 0.783166,13.22916 -1.058333,2.11667 -1.058333,-2.11667 z"
       style="fill:#5b9bd5;fill-opacity:1;fill-rule:nonzero;stroke:none;stroke-width:0.35277778"
       id="path144"
       inkscape:connector-curvature="0" />
    <g
       id="g146"
       transform="matrix(0.35277777,0,0,-0.35277777,-31.749997,244.08336)">
      <g
         id="g148"
         clip-path="url(#clipPath152)">
        <text
           transform="matrix(1,0,0,-1,177.5,335.09)"
           style="font-variant:normal;font-weight:normal;font-size:18.95999908px;font-family:Arial;-inkscape-font-specification:ArialMT;writing-mode:lr-tb;fill:#000000;fill-opacity:1;fill-rule:nonzero;stroke:none"
           id="text156">
          <tspan
             x="0 13.68912 24.230881 29.50176 40.043522 45.46608 58.1124 62.321522 72.863281 83.405037 87.614159 98.155922"
             y="0"
             sodipodi:role="line"
             id="tspan154">Data Binding</tspan>
        </text>
      </g>
    </g>
    <g
       id="g158"
       transform="matrix(0.35277777,0,0,-0.35277777,-31.749997,244.08336)">
      <g
         id="g160"
         clip-path="url(#clipPath164)">
        <text
           transform="matrix(1,0,0,-1,462.43,331.94)"
           style="font-variant:normal;font-weight:normal;font-size:18.95999908px;font-family:Arial;-inkscape-font-specification:ArialMT;writing-mode:lr-tb;fill:#000000;fill-opacity:1;fill-rule:nonzero;stroke:none"
           id="text168">
          <tspan
             x="0 13.68912 24.230881 29.50176 40.043522 45.46608 58.1124 62.321522 72.863281 83.405037 87.614159 98.155922"
             y="0"
             sodipodi:role="line"
             id="tspan166">Data Binding</tspan>
        </text>
      </g>
    </g>
    <g
       id="g170"
       transform="matrix(0.35277777,0,0,-0.35277777,-31.749997,244.08336)">
      <g
         id="g172"
         clip-path="url(#clipPath176)">
        <text
           transform="matrix(1,0,0,-1,134.62,201.02)"
           style="font-variant:normal;font-weight:normal;font-size:18.95999908px;font-family:Arial;-inkscape-font-specification:ArialMT;writing-mode:lr-tb;fill:#000000;fill-opacity:1;fill-rule:nonzero;stroke:none"
           id="text180">
          <tspan
             x="0 13.68912 24.230881 29.50176 40.043522 45.46608 58.1124 62.321522 72.863281 83.405037 87.614159 98.155922"
             y="0"
             sodipodi:role="line"
             id="tspan178">Data Binding</tspan>
        </text>
      </g>
    </g>
    <path
       d="m 81.364667,178.17036 v -2.20133 h -0.550333 v 2.20133 z m 0,-3.85233 v -2.20134 h -0.550333 v 2.20134 z m 0,-3.85234 v -2.20133 h -0.550333 v 2.20133 z m 0,-3.85233 v -2.02494 h -0.550333 v 2.02494 z m 0.783167,-1.67216 -1.058333,-2.11667 -1.058334,2.11667 z"
       style="fill:#70ad47;fill-opacity:1;fill-rule:nonzero;stroke:none;stroke-width:0.35277778"
       id="path182"
       inkscape:connector-curvature="0" />
    <g
       id="g184"
       transform="matrix(0.35277777,0,0,-0.35277777,-31.749997,244.08336)">
      <g
         id="g186"
         clip-path="url(#clipPath190)">
        <text
           transform="matrix(1,0,0,-1,327.02,201.02)"
           style="font-variant:normal;font-weight:normal;font-size:18.95999908px;font-family:Arial;-inkscape-font-specification:ArialMT;writing-mode:lr-tb;fill:#000000;fill-opacity:1;fill-rule:nonzero;stroke:none"
           id="text194">
          <tspan
             x="0 12.64632 22.12632 32.668079 43.209839 48.480721 53.86536 66.511681 70.720802 81.262558 91.804321 96.013443 106.5552"
             y="0"
             sodipodi:role="line"
             id="tspan192">Event Binding</tspan>
        </text>
      </g>
    </g>
    <path
       d="m 85.682667,136.74367 0.0071,-2.20134 -0.550334,-0.004 -0.0071,2.20133 z m 0.01058,-3.85234 0.0071,-2.20133 -0.550333,-0.004 -0.0071,2.20134 z m 0.01058,-3.85233 0.0071,-2.20133 -0.550333,-0.004 -0.0071,2.20133 z m 0.01058,-3.85233 0.0071,-2.20134 -0.550334,-0.004 -0.0071,2.20133 z m 0.01058,-3.85234 0.0035,-0.64558 h -0.550333 l -0.0035,0.64206 z m 0.786695,-0.28927 -1.054806,-2.1202 -1.061861,2.11314 z"
       style="fill:#70ad47;fill-opacity:1;fill-rule:nonzero;stroke:none;stroke-width:0.35277778"
       id="path196"
       inkscape:connector-curvature="0" />
    <g
       id="g198"
       transform="matrix(0.35277777,0,0,-0.35277777,-31.749997,244.08336)">
      <g
         id="g200"
         clip-path="url(#clipPath204)">
        <path
           d="m 321.29,354.78 v -25.25 c 0,-0.43 -0.35,-0.78 -0.78,-0.78 h -46.97 l 0.78,0.78 v -20.25 h -1.56 v 20.25 c 0,0.43 0.35,0.78 0.78,0.78 h 46.97 l -0.78,-0.78 v 25.25 z m -44.75,-44.5 -3,-6 -3,6 z"
           style="fill:#5b9bd5;fill-opacity:1;fill-rule:nonzero;stroke:none"
           id="path206"
           inkscape:connector-curvature="0" />
      </g>
    </g>
    <g
       id="g208"
       transform="matrix(0.35277777,0,0,-0.35277777,-31.749997,244.08336)">
      <g
         id="g210"
         clip-path="url(#clipPath214)">
        <text
           transform="matrix(1,0,0,-1,337.85,309.1)"
           style="font-variant:normal;font-weight:normal;font-size:18.98399925px;font-family:Arial;-inkscape-font-specification:ArialMT;writing-mode:lr-tb;fill:#000000;fill-opacity:1;fill-rule:nonzero;stroke:none"
           id="text218">
          <tspan
             x="0 12.605376 22.097376 32.652481 43.207584 48.485134 53.857609 66.462982 70.677429 81.232536 91.787643 96.00209 106.55719"
             y="0"
             sodipodi:role="line"
             id="tspan216">Event Binding</tspan>
        </text>
      </g>
    </g>
  </g>
</svg>
